<?xml version="1.0" encoding="UTF-8"?>
<svg id="Layer_2" data-name="Layer 2" xmlns="http://www.w3.org/2000/svg" viewBox="0 0 296.16 255.05">
  <defs>
    <style>
      .cls-1 {
        fill: #ffb563;
        fill-rule: evenodd;
        stroke-width: 0px;
      }
    </style>
  </defs>
  <g id="OBJECTS">
    <g>
      <path class="cls-1" d="M266.41,164.36c-.06-.4-.32-.97-.15-1.17.51-.6.34-1.16.3-1.82-.04-.57.26-1.17.44-1.9-.14-.07-.55-.28-.96-.49l.05.05c.21-.26.41-.51.66-.82-.86-.1-1.69-.2-2.58-.3.03,3.42,1.36,7-.04,10.61-.64.09-1.2.14-1.2-.84,0-.67.44-1.56-.54-1.81-.61,1.09-1.14,2.14-1.81,3.12-.09.13-.8-.15-1.32-.27.04-4.04-1.42-7.99-.54-12.13,1.2-.14,1.37-.33,1.04-1.68-.23.18-.39.36-.58.44-.18.07-.39.05-.72.08,1.17-1.18-.33-1.5-.56-2.23-.26-.81.26-1.73-.46-2.55-.17-.19.49-1.11.94-2.05-.34-.46-1.04-1.19-1.48-2.05-.55-1.06-1.59-1.84-1.66-3.22-.04-.66-.68-1.29-1.05-1.93-.03-.06-.13-.1-.13-.15-.13-2.14-1.88-3.37-2.83-5.06l-.08.06c.36.18.73.35,1.09.53.09-.14.18-.29.26-.43-.8-1.21-1.79-2.15-3.44-2.21l.05.05c.4-.44.81-.88,1.27-1.39-.96-.52-1.9-1.04-2.77-1.51-.05.73.11,1.54-.17,1.73-.88.61-.09,1.07-.03,1.58l.06-.05c-2.1-.19-2.71-.77-2.63-2.72-2.42,1.92-4.51-.02-6.72-.43-.7-.13-1.27-.39-2.04-.2-1.4.34-2.83.29-4.04-.7q-1.7,1.47-.35,3.02c-.57,0-.99,0-1.41,0,.07-.33.14-.66.23-1.1-.91-.26-1.73-.89-2.39.26.78.28,1.49.54,2.19.79-.28.3-.57.85-.86.85-2.75.02-4.96,1.75-7.53,2.29-.11.02-.25-.07-.5-.14.23-.47.62-.92.65-1.38.03-.57-.23-1.16-.4-1.88-.4.16-.74.41-1.1.43-1.06.05-1.03.65-.82,1.4.24.89.48,1.78.75,2.77-2-.59-3.65.69-4.26,2.87-.81.33-1.52.51-2.1.89-.68.45-1.27,1.05-1.86,1.62-.79.77-1.44,1.64-2.82,1.25-.36-.1-.96.49-1.4.84-.9.71-1.47,1.57-1.08,2.55-.5.36-1.1.57-1.33.99-.88,1.59-2.04,2.8-3.64,3.74-.88.52-1.51,1.56-2.06,2.49-.28.47-.1,1.2-.15,2.25-1.66,1.12-2.86,3.15-3.65,5.44-.91,2.62-1.8,5.25-2.79,8.14-.89.13-1.34.9-1.48,2.16-.21,1.94-.67,3.85-1.09,5.76-.17.77-.54,1.51-.86,2.37h1.75c.16-.53.3-.98.43-1.43.1.02.2.05.3.08-.03.25.04.59-.1.73-1.1,1.1-1.33,2.66-2.1,3.94-.82,1.35-1.53,3.08-.56,5.14.35-1.09.62-1.92.94-2.92,1.19,2.43-1.17,3.94-.99,5.94-.91-.23-1.51-.38-2.21-.56-.45,2.28.32,4.17.86,6.08.04.13.46.14.9.27-.04-.62-.07-1.08-.1-1.6,1.18-.01.86.97,1.27,1.34-.41.48-.76.9-1.14,1.35.44.62.79,1.21,1.23,1.72,1.21,1.41,1.21,1.64-.2,2.9.76.51,1.52,1.02,2.46,1.66-.8.97-1.65,2-2.49,3.03-.04-.6-.07-1.19-.11-1.78.4-.13,1.05-.19,1.12-.42.11-.36-.18-.84-.3-1.27-.16.03-.31.05-.47.07-.09.56-.19,1.12-.28,1.68-.34.03-.67.07-1,.1q-.09,1.49,1.11,1.56c-1.85.55-1.64,2.38-2.38,3.83-2.01-1.04-3.12.55-4.44,1.76-.99-1.15-.55-2.17.03-3.1-.4-.28-.97-.46-1.11-.81-.48-1.25-.72-2.55-.46-3.92.2-1.07.15-1.08-.83-2.07-.54.89-.97,3.2-.34,4.72.66,1.59-.63,3.41,1.11,4.61-1.48.87-2.63,1.44-3.54-.14-.61.36-1.15.67-1.93,1.13.43-2.65-1.8-2.7-3.07-3.53.64-.58,1.19-1.08,1.74-1.58-.08-.17-.17-.33-.25-.5-.47.09-.95.18-1.65.31-.53-1.4-3.16-2.59-.88-5.02-.42-.49-.81-.94-1.19-1.38-.09.04-.19.09-.28.13.07.52.13,1.05.2,1.57-.09.04-.17.07-.26.11-.38-.69-.75-1.38-1.2-2.2-1,.34-2.02-.54-3.46.12,2.06-2.38-.47-3.58-.83-5.24q1.15-1.86.09-2.98c-.08.42-.14.71-.29,1.45-.53-.87-.89-1.47-1.28-2.1.57-.23,1.03-.41,1.48-.59-.08-.31-.07-.51-.15-.54-.77-.38-1.26-1.16-2.3-1.24-.8-.06-1.53-.76-.73-1.77-.96-.35-1.78-.64-2.65-.96-.36.41-.7.81-1.07,1.23-.07-.61-.14-1.15-.24-1.99-1.31,1.02-2,2.01-2.03,3.44-.41-.15-.77-.29-1.14-.42-.32.87-.67,1.66-.88,2.49-.22.85-.29,1.74-.47,2.83-.48-.4-.84-.7-1.37-1.13-.31,1.1-.59,2.06-.89,3.11.48.42.97.85,1.56,1.38-.32.15-.48.28-.65.29-.41.02-.96-.6-1.19.17-.09.3.1.73.26,1.04.38.72.82,1.41,1.25,2.14-.44.72-1.48,1.08-.65,2.27.4.57-.14,1.81-.3,2.74-.04.24-.3.64-.43.63-2.08-.13-2.23,1.69-3,2.9-.11.17-.24.34-.44.63-.3-.47-.57-.91-.96-1.52-.92,1.98.66,3.29.76,5.09-.61.29-1.3.61-1.99.93.01.09.02.18.04.26.34-.02.67-.04,1.16-.06-.07.34-.16.92-.19.92-1.26-.12-1.25,1-1.73,1.67-.48.67-.79,1.77-2.03,1.21l.05.06c.56-.91,1.89-1.35,1.66-2.93-1.21.9-2.58,1.36-3.54,2.6-.53.69-1.04,1.58-2.37,1.47-.84-.07-1.36,1.31-2.67,1.16-.81-.09-1.93.32-2.28,1.63-.21.78-1.05,1.38-1.6,2.06-.45.56-.88,1.12-1.45,1.83.77.15,1.2.23,1.6.31-.51.94-.97,1.8-1.43,2.66.09.07.19.14.28.21.28-.22.55-.44.83-.67.26,1.11.25,1.1-.68,1.56-.21.11-.38.35-.51.56-.35.57-.66,1.17-.99,1.76l.03.06v-2.71c-.12-.02-.24-.05-.36-.07-.38.78-.77,1.56-1.15,2.34.07.25.14.5.2.75-.76,1.58-1.81,2.55-3.78,2.59-.83.02-1.67,1.01-2.46,1.61-.83.62-1.38,1.68-2.88,1.69.5-.56.84-.94,1.18-1.33-.05-.08-.1-.15-.15-.23-.52.22-1.03.44-1.61.68-.06-.24-.21-.54-.15-.59.87-.72,1.76-1.41,2.65-2.1.2-.15.4-.3.71-.55-.65-.55-1.18-.7-1.72-.2-.66.61-1.65,1.21-1.78,1.94-.22,1.2-1.39,1.83-1.45,3.03-.01.24-.18.63-.36.69-1.15.4-2.31.83-3.51,1.05-.6.11-1.28-.19-2.05-.33.87-1.06,2.68-.36,2.94-2.34-.83.35-1.44-.27-2.23.43-.35.32-1.46-.22-2.32-.38v1.18c-.86.23-1.69.45-2.52.67-.14-.5-.27-.96-.41-1.43-.19.06-.33.05-.39.12-.28.35-.5.98-.8,1.02-1.03.14-.55.87-.75,1.37,1.8-.26,3.53-.51,5.25-.76-.12,1.22-.75,1.71-2.21,1.52-2.36-.3-4.65-.2-7.03,1.12-.39-.63-.79-1.27-1.25-2.01-.76.6-1.74.81-2.59-.08-.33.41-.51.62-.68.83-.37-.33-.73-.65-1.22-1.1-.91,1.28-1.73,2.44-2.54,3.59-2.64-1.47-2.86-2.16-8.96-1.62-.05-.37-.11-.75-.2-1.41-1.58,1.72-3.4,1.36-5.35,1.04v1.34c-1.08-.4-2.13-.79-3.18-1.17-.26-.09-.52-.2-.78-.23-1.63-.19-1.63-.19-1.95-2-.4,1.31-1.08,1.7-2.11,1.07-1-.61-2.34-.37-3.25-1.33-.16-.17-.95.24-1.6.42-.59-2.09-2.47-.97-3.92-1.35.33-.21.54-.35.96-.64-.55-.2-.93-.35-1.41-.52-.28,1.03-.53,1.94-.79,2.93-1.53.17-2.83-1.54-4.59-.51.31.26.54.56.84.69.82.36,1.63.45,1.9,1.71.24,1.17,2.33,1.66,3.66,1.29.27-.08.64.16.96.25-.37.3-.74.6-1.42,1.14,1.23.05,1.76-.13,1.73-1,1.92.41,3.78.95,4.85,2.68-.6.14-1.35.32-2.09.49-.01.13-.02.25-.03.38,2.11.67,4.22,1.33,6.48,2.04-.54.43-.98.78-1.51,1.2-.28-.55-.55-1.08-.81-1.6-.14.03-.27.07-.41.1-.11.61-.22,1.22-.41,2.27-.6-.87-.96-1.38-1.44-2.06-.42.88-1.04,1.43-2.01,1.36-.39-.03-.82.04-1.15-.11-1.54-.75-1.69-.79-3.39-.35-.75.19-1.5-.36-2.6-1.46-.6-.59-1.49-.92-2.28-1.28-.6-.28-1.26-.43-2.11-.71.67-.51,1.17-.89,1.74-1.33-.61-.75-1.4-.64-2.02-.34-.37.18-.51.83-.75,1.26-.85-.34-1.93-.78-3.01-1.21-1.25-.48-1.14-1.86-1.82-2.94-.89,1.16-1.93.92-2.99.57l.07.08c-.1-.28-.13-.75-.3-.8-.73-.23-1.5-.34-2.25-.5l.08.05c-.21-.25-.38-.58-.65-.73-1.42-.82-2.78-1.63-3.94-2.9-.99-1.09-2.49-1.72-3.81-2.59-.47,1.09-.43,1.75.47,2.33.98.63,1.84,1.43,2.75,2.16.07.06.1.17.16.27-.34.07-.65.14-.97.21.03,1.18,1.02,1.23,1.62,1.68.05.15.1.31.15.47-1.23.79-1.67-.54-2.28-1.02-.37-.29-.54-.61-1.13-.78-.92-.26-2-.69-1.48-2.23.15-.45-.64-1.23-1.18-2.15.34-2.58.32-2.64-1.83-3.2-.16-1.35-.92-2.22-2.13-2.9-.72-.4-1.22-1.21-1.84-1.82-.22-.21-.5-.35-.74-.55-1.2-1.02-2.3-2.13-3.07-3.54.64.05,1.29.11,2.1.18-.45-.57-.81-1.03-1.12-1.42-1.02.04-.99.67-.94,1.31-2.45-1.37-4.38-3.32-6.21-5.4-.38-.44-.93-.73-1.4-1.09l.07.07c-.42-.68-.84-1.37-1.47-2.39-.2.69-.3,1.02-.5,1.7-1.09-1.64-2.05-3.09-3.01-4.54.56-.38.96-.65,1.64-1.11,1.34.26,2.54,1.32,3.53,2.77.42.62,1.12,1.05,1.86,1.42-1.26-1.85-1.59-4.21-3.48-5.65-.79-.6-1.59-1.27-1.15-2.51.06-.17-.35-.51-.59-.83.86-.14,1.51.09,2.07.77.28.33.71.54,1.08.8.13,1.73,1.5,2.53,2.47,3.64.12-.1.24-.19.37-.29-.96-1.11-1.92-2.21-2.88-3.32.85-1.5.08-2.89-.25-4.35.76.78,1.52,1.57,2.54,2.61.28-1.88-1.57-2.2-1.62-3.71-.04-1.15-1.32-2.28-2.11-3.38-.84-1.16-1.76-2.26-2.69-3.45.51-.85.98-1.64,1.55-2.59-1.26-.1-1.43.79-1.76,1.52-1.94-2.11-1.98-4.93-3.1-7.29.92-1.85-.66-2.84-1.46-4.06-.71-1.08-1.57-2.06-.91-3.5-.42-.13-.73-.22-.99-.3-.11-.56-.19-1.11-.33-1.63-.16-.58-.71-1.26-.54-1.67.57-1.39-.31-2.46-.55-3.88.54-.42,1.16-.91,1.9-1.49-.76,0-.45-1.34-1.5-1.1l.02.06c-.04-.6-.09-1.19-.1-1.79,0-.25.03-.53.15-.73.44-.71.46-.81-.17-.81-1.17.02-1-.39-.44-1.05.89-1.04.8-1.25-.65-1.65-.42-1.53-.83-3.07-1.27-4.59-.15-.53-.47-1.03.27-1.39.09-.04.11-.53,0-.63-.76-.66-.46-1.59-.65-2.38-.73-3-.54-5.98.29-8.94.17-.6-.1-2.86-.31-3.61-.09-.32-.11-.68-.08-1.02.1-1.27.24-2.53.38-4,.22.52.36.86.5,1.18.36-.21.7-.42,1.04-.62-1.09-1.16-.54-2.12.42-3.04.06-.06.03-.3-.04-.38-.47-.49.44-1.55-.72-1.76-.03,0,.01-.38.02-.58l-.03.06c.45-.1.9-.2,1.63-.36-.36-1.51-.69-2.89-1.02-4.27-1.44-.25-.47-1.08-.46-1.83.23.33.39.54.8,1.11.22-1.64.56-2.97.54-4.3-.02-.93.27-1.55.77-2.24.53-.73.93-1.55,1.3-2.17.14,1.23.99-.22,1.44.05.34,1.52-.5,2.75-.85,4.12-.76,2.98-1.17,6.06-1.71,9.1-.81,4.57-.4,9.18-.39,13.77,0,3.49.52,6.97.84,10.46.03.39.21.76.41,1.46.46-.79.79-1.11.74-1.95-.17-2.83-.07-5.68-.07-8.84.35.44.78.74.79,1.04.07,2.41.76,4.77.42,7.24-.12.84.66,1.82,1.04,2.73.15.35.54.76.45,1.03-.68,2.18.33,3.71,1.78,5.12.14.14.26.32.34.51.67,1.64,1.33,3.29,2.04,5.07.54-.16,1.14-.34,1.9-.57-.28-.72-.5-1.3-.72-1.88.13-.06.26-.12.4-.19.55,1.09,1.44,2.14,1.57,3.28.17,1.39,1.01,2.12,1.82,2.94,1.23,1.24,1.3,1.3,1.35,3.06.44.22,1.05.33,1.31.7.29.4.26,1.03.37,1.61.98.09,1.97.17,3.09.27.02.35.05.79.08,1.28h1.26c.44.68.92,1.41,1.52,2.33-.44.05-.74.09-1.18.15.69,2.36,1.81,4.32,4.06,5.47.07.03.29-.24.44-.37l-.04.05q1.73.6,2,1.93c1.92.31,3.12,1.48,4.4,2.89,1.14,1.24,2.29,2.48,3.43,3.74.56.61,1.53,1.04,2.37,1.17,1.01.15,1.51.85,2.21,1.35.56.4.39,1.69,1.61,1.32.05-.01.27.31.29.49.11,1.32,1.22,1.63,2.42,2.59-.28-1-.43-1.52-.58-2.06,1.05.08,1.54.62,1.57,1.66.04,1.13.28,1.26,1.39.91.96-.3,1.13,0,2.3.46.89.35,1.77.61,2.51,1.24.07.06.36-.14.54-.22,1.29,1.75,1.54,1.81,4.31,1.75.5-.01,1.12.24,1.5.58.79.71,1.7.75,2.65.91,3.05.52,6.08,1.16,9.11,1.77.25.05.46.23,1.06.55-.66.29-1.08.65-1.38.58-2.57-.63-5.26-.61-7.78-1.48-.44-.16-.99-.37-1.38-.25-.98.3-1.72.09-2.38-.63-.63-.69-1.41.22-2.33-.38-1.52-.99-3.5-1.3-5.29-1.88-.18-.06-.4,0-.84,0,.23.4.33.84.57.95,1.22.53,2.48.98,3.73,1.44.77.28,1.78.31,2.27.84,1.1,1.18,2.58.91,3.84,1.12.73.12,1.24,0,1.82.7.72.87,1.92.89,3.01.91.04,0,.08-.46.15-.88,1.25.25,2.55.37,3.76.76,4.9,1.56,9.95,1.22,14.96,1.09,1.44-.04,2.85-.93,4.26-1.84-.42-.08-.84-.22-1.27-.24-1.34-.06-2.69-.15-4.03-.09-.71.03-1.7.1-1.09,1.81-1.74-1.79-3.52-1.37-5.28-1.31-1.06.04-2.37.37-3.13-1,1.71,0,3.35.08,4.98-.02,2-.12,3.99-.39,5.98-.6.27-.03.66,0,.79-.15,1.15-1.45,2.89-.99,4.36-1.42,1.7-.5,3.39-1.08,5.06-1.67,1.36-.48,2.69-1.05,4.02-1.57,1.05,1.06,2.63,1.16,2.52.4-.13-.9.29-.75.72-1.05,2.01-1.39,4.5-2.07,6.3-3.68,2.21-1.97,4.92-3.71,5.38-7.09.03-.22.29-.42.45-.62.49-.58.99-1.15,1.48-1.72.98.73,1.02-.81,1.77-.76.18.01.5-.44.57-.72.37-1.5.35-1.5,1.97-2.05.24-.74.5-1.51.6-1.82.93-.38,1.51-.62,2.09-.85-.36-.82-.88-1.44-.82-2,.09-.86.4-2.27.91-2.42,1.7-.5,1.52-1.8,1.67-2.96.11-.86-.04-1.74-.05-2.61-.01-1.23,0-2.45,0-3.86-.64.11-1.14.2-1.76.31-.24-1.12.26-2.28,1.03-2.74,1.01-.62,1.23-1.3,1.29-2.3.02-.25.48-.48,1.03-.47.05-.33.09-.66.17-.99.4-1.7.22-2.12-1.21-3.08-.35-.24-.88-.64-.86-.93.1-1.51-.87-2.35-1.74-3.33-1.55-1.75-2.98-3.6-4.5-5.37-.44-.51-1.01-.91-1.57-1.28-.13-.09-.46.13-1.02.31.69.9,1.25,1.63,1.87,2.44-.22.23-.48.52-.81.87-1.5-1.13-2.86-2.4-4.45-3.27-1.55-.85-3.3-1.35-5.01-1.88-1.06-.33-2.19-.43-3.29-.64-.59-.12-1.26-.13-1.75-.42-1.31-.8-2.96-.71-4.2-1.74-.47-.39-1.33-.46-2-.42-2.15.13-4.12-1.26-6.3-.68-.74-1.22-.73-1.2-2.14-1.02-.89.11-1.79.1-2.68.2-.51.06-1.01.25-1.49.37.16,1.17.84.79,1.68.47-.29.72-.45,1.11-.64,1.6-.41-.26-.72-.41-.97-.62-1.42-1.21-2.96-1.55-4.75-.88-.53.2-1.19.03-2.06.03-.52,1-1.09,2.06-1.62,3.14-.25.52-.47,1.01-1.24.73.29-.59.57-1.16.75-1.53-.95-.6-1.59-1.19-2.33-1.43-.77-.24-1.66-.14-2.84-.21.36.58.51.83.71,1.15-1.16.86-2.19-.65-3.36-.11-.21.28-.49.64-.95,1.23-.31-.94-.55-1.65-.82-2.44-1.36-.09-2.68-.17-4.39-.28,0,.01-.28-.34-.57-.71,1.01-.93,1.93-1.77,2.83-2.63.32-.42.64-.84,1.06-1.37q-1.06.36-1.03,1.39c-.7-.14-1.4-.28-2.05-.41-.37-1.52,2.01-1.33,1.47-3.13-.55.45-1,.82-1.52,1.24-.11-.24-.21-.45-.31-.67-.95-.34-1.63,1.79-2.77.32,1.87-1.09,3.59-2.25,5-3.99-1.54.04-2.56-.49-3.25-1.83.03.24.05.49.09.73.05.31.12.62.21,1.09-.92-.34-1.66-.61-2.58-.95.55-.2.99-.35,1.4-.5-.64-1.02-1.34-2.02-1.92-3.08-.37-.67.19-1.34,1.05-1.35.13,0,.28.14.38.11.38-.14.99-.25,1.07-.51.39-1.19,2.21-1.17,2.16-2.65-.02-.47-.24-.61-.62-.23v.04c.24-.29.42-.69.73-.86,1.67-.92,3.38-1.78,5.07-2.67.18-.09.52-.18.52-.26-.05-1.39,1.17-.71,1.91-1.12-.48-.67-.91-1.28-1.45-2.04,1.25-.49,2.81-.18,3.05-1.82.51.18.94.5,1.26.42,1.9-.5,3.77-1.06,5.64-1.66.57-.18,1.09-.5,1.6-.82.86-.54,1.72-.82,2.69-.3.16.09.54.11.59.02.91-1.44,1.68-.63,2.54.07.21.17.68.14.99.04.83-.27,1.64-.62,2.39-1.3-1.1.12-2.2.25-3.31.37.29-.68-.36-1.58.78-1.64.38-.02.63-.58,1.4-.6.95-.03,2.04-.95,2.72-1.78.4-.49.7-.77,1.27-1.02.97-.43,1.79-1.16,2.73-1.66,1.94-1.04,3.87-2.14,5.9-2.97,1.33-.54,2.46-1.04,2.65-2.77.43.17.71.28,1.09.43.97-1.08,2-2.22,3.03-3.38.08-.09.16-.26.14-.36-.35-1.72.73-3.01,1.2-4.15.93-.42,1.64-.75,2.28-1.04-.24.99-.53,2.23-.82,3.46.11.04.23.08.34.12.57-.72,1.15-1.44,1.71-2.18.52-.68.72-1.38.62-2.3-.15-1.35.39-2.72-.49-4.07-.25-.39.15-1.53.6-1.98.8-.8.53-1.59.43-2.46-.08-.67-.02-1.36-.02-2.36-.75-.34-1.65-.75-2.63-1.19.35-.41.74-.87,1.21-1.43-.21-.42-.43-.89-.65-1.33-.76.69-1.44,1.32-2.12,1.93-.1.09-.34.13-.34.21-.09,1.78-1.77,2-2.84,2.73-.65.45-1.12.67-1.14,1.58-.01.47-.66.94-1.06,1.37-.17.18-.64.33-.62.4.48,1.85-.85,1.57-1.92,1.77-.44.08-.86.58-1.16.98-.63.86-1.18,1.78-1.76,2.67-.12-.06-.24-.12-.36-.18.18-.54.35-1.08.52-1.61-.95-.96-1.8-.5-2.63.05-.63.42-1.21.93-1.88,1.27-.23.12-.67-.18-1.02-.28-.06-.04-.12-.08-.19-.1.13-.33.17-.81.41-.97.61-.41,1.28-.85,1.98-.95.99-.14.97-.88,1.22-1.5.45-.31.88-.67,1.37-.89.65-.29,1.48-.81,1.99-.61.69.28.91.08,1.39-.27.7-.52,1.54-.87,2.62-1.45.27-.7-.28-1.9.64-3.07.78-.99,1.7-1.56,2.8-2.11-.23-.29-.32-.53-.46-.57-1.48-.35-2.83-.21-3.99.95-.41.41-.76,1.29-1.66.72.04-.49.07-.96.12-1.61-.85.32-1.47.55-2.1.79-.12-.17-.22-.36-.36-.5-.13-.12-.32-.17-.74-.38-1.21,2.29-2.39,4.51-3.59,6.77,1.05.54,1.85-.04,2.11-.75.7-1.94,2.55-2.44,3.95-3.57.03.43-.2,1-.23.99-1.01-.35-1.4.65-1.47,1.06-.3,1.72-1.63,2.31-2.93,3.01.22.54.42,1.04.63,1.55-1.21.07-2.41.13-3.32.18-2.79,2.82-6.19,3.95-9.54,5.14.56-.44,1.11-.88,1.9-1.5-1.54-.35-2.37.45-3.28,1.03-.72.01-1.54-.23-2.01.48.07.16.14.32.21.48.59-.34,1.17-.68,1.76-1.02.49.16.99.32,1.48.48-1.07,1.45-2.82,1.37-4.3,1.89-.63.22-1.31.32-2.01.48.27.46.47.81.78,1.37-.82.17-1.5.2-2.09.46-1,.45-2.37.58-2.32,2.21,0,.24-.34.64-.59.7-1.28.33-2.58.57-3.88.84-1.13.23-2.26.45-3.85.76,1.13-.92,1.91-1.55,2.81-2.28-1.86-1.29-3.68.21-5.24-.4.07-.54.31-1.05.16-1.39-.42-.96-1.02-.07-1.67-.18.12.76.21,1.35.31,1.97.85.13,1.76.26,2.66.4,0,.18.02.36.03.54-.98.29-1.96.58-3.15.94.2-.45.32-.72.55-1.24-.55-.18-1.15-.61-1.6-.49-1.35.39-1.94-.12-2.18-1.37-.04-.19-.19-.36-.28-.53.67.18,1.33.35,2.2.58q-.84-1.21-2.18-.56c-1.42.14-2.72.05-3.97-.89-.56-.42-1.33-1.1-2.34-.69-.21.09-.74-.29-.96-.58-.5-.67-1.05-.91-1.91-.79-.46.06-.98-.36-1.47-.56v.02c.14-.54.29-1.09.46-1.72-.82-.38-1.65-.8-2.5-1.14-.74-.3-1.61-.38-1.68-1.47,0-.12-.41-.29-.64-.31-.6-.04-1.21-.02-1.85-.02-.3-.54-.63-1.26-1.08-1.88-.46-.63-1.05-1.17-1.55-1.71,1.61-.25.06-1.65.54-2.45-.66-.62-1.66-.26-2.41-1.15-.69-.82-.48-1.41-.45-2.16l-.06.06c.59-.45,1.13-1.01,1.96-.32.23.19.74.03,1.17.03.15.44.36,1.03.61,1.74.71-.21,1.26-.36,1.85-.53-.11-.3-.14-.52-.26-.65-.54-.61-1.1-1.19-1.74-1.87-.32.11-.87.3-1.4.48-.36-.49-.66-.91-.97-1.33l-.04.03c1.72.18,1.7.14,1.16-1.43-.26-.74-.9-1.52-.16-2.4.11-.13-.13-.6-.27-.88-.29-.55-.62-1.07-.93-1.61.14-.1.27-.2.4-.31.35.38.7.77,1.1,1.2.05-.14.2-.34.15-.44-.27-.53-.6-1.04-.94-1.61.59-.46,1.59.5,2.18-.52.33-.57,1.7.39,1.78-.94.82.06,1.64.12,2.53.18.09.43,1.03.69.81,1.63-.07.3.59.91,1.04,1.16,1.96,1.09,3.97,2.11,6.03,3.19.08.31.18.76.37,1.53.95-.45,1.9-.64,2.42-1.22.69-.78,1.26-1.01,2.28-.77.64.15,1.4-.17,2.08-.66-2.26-.26-4.52-.53-7.05-.82.61-.81,1.06-.97,1.83-.87.61.08,1.27-.4,1.92-.47.64-.07,1.3.07,2.09-.24-.5-.29-.99-.58-1.63-.96,1.51-.31,2.81-.58,4.22-.87-.55-.55-1.8-.54-.94-1.84.22.42.39,1,.54,1,.44-.02.85-.31,1.29-.43,1.11-.3,2.24-.56,3.36-.83-.12.52-.23,1.04-.35,1.56q1.85,2,3.23,1.24c.1-.73-1.14-1.56.19-2.48-1.04-.09-2.09-.18-3.13-.27.99-.69,1.91-1.4,3.18-1.66.74-.15,1.41-.96,1.97-1.6.8-.9,1.48-1.91,2.19-2.84-.27-.26-.7-.55-.66-.66.22-.55.56-1.05.85-1.57.1-.08.2-.17.29-.26.13-.03.3-.02.39-.09.62-.51,1.17-1.13,1.85-1.52.57-.33,1.3-.39,1.96-.57.05.33.09.66.2,1.39,1.4-1.73,3.16-2.62,3.62-4.6l-.05.08c.47.05.94.09,1.72.16.31-.77.68-1.67,1.16-2.83.52-.38,1.6,1.26,2.21-.31.28.44.47.75.86,1.37.42-.96.73-1.65,1.08-2.47-.67-.21-1.27-.4-2.1-.66,1.37-1.13,2.37-2.16,3.56-2.89,1.27-.79,2.7-1.77,4.08-1.8,1.49-.04,2.18-1.86,3.91-.93-1.18-1.78-2.69-2.14-4.26-1.16-2.5,1.56-4.96,3.18-7.43,4.77-.16.1-.37.14-.57.22.1-1.36,1.05-2.59,2.26-2.75,1.29-.17,2.27-.63,2.87-1.87.17-.36.7-.58,1.11-.76.6-.27.58-.69.44-1.19l-.06.05c1.41.58,2.59-.03,3.8-.67,1.02-.54,2.09-1.01,3.19-1.37,2.32-.77,4.66-1.47,7-2.15.43-.12.93.01,1.39-.03.36-.04.72-.17,1.06-.43-1.21-.38-2.39-.43-3.65-.3-1.59.18-3.18,1.17-5.09-.1,1.79-.53,3.39-1,5.13-1.51-.29-.35-.47-.57-.79-.97.83-.3,1.58-.57,2.34-.85.08.12.15.25.23.37-.3.4-.59.8-.95,1.28.27.1.56.28.86.3,2.18.1,4.42-.11,6.53.31,2.5.51,5.09.42,7.52,1.4,1.03.41,2.27.3,3.41.43q.42.82,1.64.68c-.75-.28-1.22-.45-1.69-.63.24-.94.98-1.05,1.71-.85.98.27,1.55-.06,1.74-1,1.16.42,2.18.74,3.15,1.18.32.15.46.65.73.95.25.28.54.58.87.72,1.3.55,2.31,1.41,3.08,2.58.15.23.33.47.55.61,2.11,1.25,3.26,3.15,3.68,5.59.72-.07,1.28-.13,1.93-.2-.36.67-.65,1.2-.95,1.74-.24.02-.49.03-1.11.07.6.53.93.83,1.26,1.13.09-.07.17-.14.26-.21-.16-.35-.32-.7-.47-1.04.55-.23,1.1-.46,1.53-.63.91.82,1.77,1.59,2.63,2.36.2.18.48.35.56.59.66,1.89,2.27,3.15,3.16,4.87.52,1.02.82,2.15,1.2,3.24.63,1.79,1.45,3.55,1.8,5.4.47,2.45.52,4.97.83,7.46.28,2.24.33,4.46-.08,6.67-.09.47-.25.93-.41,1.39-1.03,2.98-1.55,6.08-2.13,9.16-.23,1.2-.18,2.8-.93,3.47-1.22,1.09-.85,2.9-2.2,3.75-.29,1.88-2.02,2.98-2.42,4.93-.35,1.72-1.52,3.34-2.57,4.83-1.38,1.96-1.32,4.15-1.34,6.32-.02,1.59.14,3.19,1.26,4.54.35.42.31,1.15.54,1.71.23.56.57,1.08.87,1.62q-1.08.34-.82,1.41c.34-.59.58-1.01.81-1.43-.57,1.49-.2,2.58,1.15,3.54,1.16.82,2.18,1.87,3.15,2.92.48.51.55,1.52,1.09,1.84.85.5.61,1.32.97,1.93.44.75.81,1.56,1.39,2.19,1.03,1.15,1.1,1.13,1.28,2.91-1.13-.95-1.66-2.39-3.13-3.04-.66-.29-.91-1.5-1.42-2.43-.39.23-.89.53-1.53.92.69.56,1.23.99,1.76,1.42-.21.34-.38.61-.42.68.97.84,1.82,1.57,2.57,2.22-.45.54-1.05,1.03-.96,1.23.36.86.94,1.62,1.39,2.44.39.71,1.04.49,1.62.53,0,0-.06-.06-.06-.06-.19,1.14.24,2.11.79,3.06.72,1.24,1.48,2.46,2.17,3.71.29.53.47,1.13.71,1.7.12.3.24.87.37.87,1.28.05,1.47,1.15,1.82,1.96.57,1.32,2.03,2.01,2.34,3.51.04.2.92.23,1.44.35.11.96.23,2.01.35,3.07.11.02.22.04.33.06.14-.24.29-.48.68-1.14.21,1.28.27,2.24.53,3.14.26.91.71,1.76,1.11,2.74h1.1c-.1.43-.18.81-.28,1.24.17-.05.32-.05.35-.11.49-.93.97-1.87,1.73-2.74.1,1.27.26,2.54.27,3.81.03,2.04.58,2.59,2.78,2.56-.17-1.22-2.07-1.76-1.36-3.73.21.63.3.9.38,1.18.11-.05.29-.07.32-.15.79-1.94-.09-3.5-1.16-5.04q1.12-1.49-.1-2.94c-.22-.26-.54-.52-.59-.81-.09-.52.1-1.1-.05-1.58-.12-.37-.6-.62-1.13-1.11.88.05,1.45.08,1.95.11.46-.83-1.2-1.02-.36-1.73.47-.4,1.14-.54,2.04-.94-.93-.78-1.67-1.4-2.66-2.23,1.71.3,3.26,0,4.47,1.52.32-1.85-1.15-2.28-1.99-3.17.09-.8-.23-1.77.84-2.24-.36-.74-.72-1.49-1.02-2.12.43-.36,1.2-.73,1.48-1.33.55-1.17,1.2-2.19,2.22-2.98.75-.58,1.69-1.03,1.6-2.24,0-.1.54-.23.92-.39-.46-.5-.82-.89-1.19-1.28.05-.1.1-.2.15-.3.37.1.78.33,1.11.25.41-.1.75-.46,1.49-.97-.7,1.59-1.21,2.76-1.84,4.21.17.18.44.46.69.72.32-.29.5-.39.49-.45-.4-1.87,1.04-2.97,1.89-4.24,1.55-2.32,3.55-4.28,5.54-6.25.64-.63,1.1-1.69,2.26-2.66-.86.09-1.2.13-1.78.19.67-.79.97-1.5,2.1-1.74.78-.17,1.36-1.24,2.14-2.02-.41-.29-.71-.5-1.03-.73-.24.41-.45.79-.79,1.37-.43-.62-.75-1.08-1.17-1.69.51-.2.9-.51,1.22-.46,1.43.22,2.7-.08,3.84-.96.41-.31.84-.6,1.26-.91,1.23-.93,2.38-2.01,3.71-2.75.77-.43,1.06-1.44,2.11-1.54.27-.03.45-.91.72-1.5.52.04,1.12.09,1.79.15.43-.59.86-1.18,1.28-1.76.96.35,1.83.66,2.71.96-.17.45-.35.91-.62,1.61,1.06-.45,1.93-.95,2.86-1.18.83-.21.97-.79,1.17-1.41.21-.2.49-.36.61-.61.06-.12-.17-.39-.26-.59-.12.02-.24.04-.36.07.02.39.05.79.07,1.18-1.14.47-2.54.03-3.53,1.01.1-.85.49-1.3,1.41-1.47.71-.13,1.44-.51,1.04-1.6-.23-.63.3-.93.77-.58.98.73,1.96.9,3.09.53.15-.05.37.1.55.17,1.41.54,1.81.24,1.8-1.55,1.41-.34,2.85-.8,4.33-1.02,1.42-.21,2.84-.59,4.33.03.49.21,1.34-.43,2.11-.72-.3-.58-.6-1.17-.94-1.81,1.46-.67,1.18,1,2.21,1.41.34-.2.9-.55,1.48-.87.22-.12.48-.3.71-.28.68.05,1.37.78,2-.11.18.2.36.41.53.61-1.11-.15-.9.55-.92,1.32.78-.31,1.52-.43.88-1.36,1.1-.14,2.2-.27,3.29-.41.74-.1.85-.01,1.3.96.12.26.39.55.66.64.88.3,1.74.23,2.68-.52-.71-.24-1.23-.43-1.95-.67.38-.26.58-.4.83-.57-.26-.27-.51-.54-.77-.82.16-.08.29-.21.37-.18.85.26,1.71.51,2.54.84.48.19.92.49,1.36.77.16.1.32.42.39.39,1.67-.61,2.77.95,4.23,1.1,1.49.16,3,.32,4.46.67,1.08.26,2.06.45,3.22.33.95-.09,1.99.68,2.79.99.52.73.95,1.34,1.39,1.94-.18.23-.37.49-.74.98.41.41.82.82,1.3,1.3.56-.41.91-.67,1.41-1.04-.47-.5-.85-.9-1.29-1.37.24-.08.5-.23.56-.17.56.51,1.36.7,1.27,1.87-.05.68.93,1.44,1.56,2.33.37-1.04-1.13-2.1.71-2.49-.74-.88-1.33-1.58-2.06-2.45.59-.28.98-.46,1.3-.61,1.09,1.06,2.13,1.99,3.07,3.01,1.24,1.34,2.65,2.62,3.56,4.17,1.01,1.71,2.34,3.1,3.53,4.63.31.4.32,1.04.49,1.55.24.71.46,1.47,1.58,1.44-.08-.75-.37-1.65.83-1.86.4.86.67,1.7-.39,2.57.5.47.98.93,1.57,1.49.17-.36.28-.59.43-.91.39.17.81.34,1.34.57-.27.31-.48.56-.74.86.66,1.21,1.35,2.44,2.08,3.77-.1.36-.35.89-.39,1.45-.04.55,0,.94-.55,1.38-.93.73-.72,1.27.79,2.08-.08-.51-.14-.85-.2-1.24.46-.14.93-.29,1.53-.48.07,1.59.85,2.84,2.26,4.07.09-.2.27-.63.58-1.34.35.92.4,1.62.76,1.86.84.55.17,1.47.58,1.93.78.88-.14,1.28-.24,1.9-.18,1.1.11,2.28.29,3.42.06.37.36.71.55,1.06l-.07-.07c.06.24.11.68.2.69.94.09,1.19,1.04,1.11,1.48-.2,1.1.65,2.1.07,3.21-.2.39.02,1.02.12,1.53.12.61.22,1.18-.75,1.61,0-1.69.05-3.25-.01-4.8-.05-1.21-.26-1.39-1.7-1.85.54.87,1.27,1.62.42,2.5-.07.07.11.47.25.67.74,1.09.69,1.42-.45,2.39.15.67.31,1.38.49,2.16h2.12c.22,1.74.6,3.44.61,5.14.02,3.01.23,6.03-.29,9.03-.16.9-.45,1.89.49,2.86.64.66-.16,1.28-.85,1.29.05,1.08.2,2.16.11,3.22-.12,1.52-.79,2.99-.48,4.58.05.23-.48.58-.82.94.6.63.37,1.69-.3,2.15-1.2.8-1.31,1.94-1.57,3.11-.1.46-.32.89-.47,1.3.35.53.69,1.04,1.02,1.55-.37.11-.74.22-1.1.33l.06.07c-.15-.21-.26-.57-.44-.61-.4-.08-.83,0-1.39.01-.55,1.23-1.19,2.64-1.89,4.19,1.57.45.79,1.84.97,3,.49-.7.75-1.45,1.12-2.14.16-.3.53-.48.81-.72l-.05-.04c-.29,1.67-.79,3.32-.29,5.17.32-.47.54-.78.77-1.1.16.14.25.2.24.22-.39.99.26,2.12-.46,3.09-1.05,1.44-2.03,2.93-3.01,4.41-.33.5-.57,1.07-.9,1.69-.52.02-1.02-.06-1.48.74-1.67,2.88-3.3,5.81-6.16,7.8-.57.4-.73,1.39-1.13,2.21-.6-.26-1.08-.47-1.67-.73-.09.75-.17,1.4-.27,2.13-1.43.16-2.42,1.42-3.97,1.57-.62.06-.59,1.34-1.54,1.63-.43.13-3.2,3.49-3.45,3.79-.79.95-1.66.76-2.58.3h0c1.29-1.19,2.59-2.36,3.84-3.59.22-.21.16-.7.24-1.05,1.18-.42,2.6-.53,2.84-2.34-.36-.05-.9-.27-1.05-.12-.71.72-1.66,1.31-1.74,2.47-.65.31-1.42.49-1.94.96-1.52,1.36-2.93,2.83-4.41,4.23-.13.12-.46.02-.73.02-.14.55-.29,1.13-.45,1.78-2.71,1-5.46,1.52-8.37.91-1.36,1.6-2.51,3.43-4.68,4.29-.89.35-1.52,1.31-2.32,1.91-.32.24-.79.29-1.2.38-1.01.21-1.24.63-.88,2.13-1.16.27-2.32.73-3.49.78-1.5.07-2.82.27-4.1,1.21-1.1.8-2.48,1.22-3.76,1.77-.87.38-2,.49-2.58,1.12-.56.61-1.14,1.16-1.77,1.67-.2.17-.5.22-.75.31.02-.34.04-.66.06-1.02-.85-.08-1.61-.26-2.08.59.67.58,1.62-1.17,2.02.41-.91.24-1.82.48-2.86.75-.15-.6-.25-1.01-.35-1.42-.72.23-1.43.44-2.13.67-.19.06-.53.13-.55.23-.36,2.03-1.88,1.3-3.08,1.32-.4,0-.8,0-1.23,0q.49-1.18-.65-2.45c-.13.5-.22.88-.34,1.35-.21.03-.47.06-.73.1-.19.03-.39.08-.92.19.75.18,1.18.28,1.9.45-2.29,1.03-4.42.88-6.61.75-.34-.75-.7-1.54-.94-2.05h-3.89c-.57,1.1-1.57,1.67-3.24,1.48-3.93-.44-7.89-.66-11.7-.96-.73-.67-.62-2.09-1.94-1.64-.19.06-.23.59-.37.99-.88-.23-1.67-.34-2.5-1.06-.85-.73-2.26-1.08-3.43-1.08-.82,0-1.42-.23-1.77-.7-1.13-1.57-2.93-2.19-4.35-3.32-.16-.13-.37-.21-.5-.37-1.08-1.26-2.59-1.67-4.1-2.02v-1.7c-2.53-.34-3.71-2.08-4.61-4.3-2.87.03-3.5-2.62-4.77-4.44-.29-.41.49-1.56.93-2.83.57,1.01,1,1.65,1.29,2.34.31.74.73,1.55.68,2.3-.05.93,1.85.68.89,1.95.73.17,1.42.29,2.09.49.65.19,1.27.46,2.04.75.53-.58.41-1.14-.3-1.75-.98-.85-1.79-1.98-2.89-2.6-.9-.51-.55-1.24-.88-1.89.34-.2.69-.4,1.03-.61l-.04.04c1.88,1.54,3.76,3.07,5.59,4.57.3,2.81.62,3.24,2.96,4.02-.02-.32-.04-.62-.08-1.13.62.24,1.14.44,1.89.73-.38-.83-.69-1.52-1.15-2.51.79.2,1.33.26,1.79.48.95.45,1.78,1.18,2.98.95.2-.04.79.63.73.75-.5,1.1.59,1.66.99,1.74,1.63.32,2.35,1.78,3.59,2.52-.62-.08-1.23-.15-2.04-.25-.14.2-.4.57-.67.95-.95-1.06-2.23-.46-3.31-.85-.06.14-.11.28-.17.42,1.1.58,2.2,1.16,3.53,1.86-.04-.7-.06-1.09-.08-1.47,1.01.2,2.03.47,2.7-.68.38-.07.78-.09,1.14-.21,2.02-.68,3.16-.5,4.95.93.14-1.57,1.55-1.2,2.08-.95,2.42,1.13,5.14.38,7.53,1.4.06-.07.11-.12.14-.14,1.47.32,2.95.64,4.42.95,1.12-1.32,2.8-.7,4.17-1.19.35-.13.78-.02,1.07-.02-.05.37-.1.69-.14,1,.44-.09,1.26-.23,1.25-.27-.17-1.33,1.08-1.16,1.62-1.26,1.07-.2.94-1.01,1.24-1.8,1.79.87,3.49.09,5.22-.2-.25.21-.53.4-.73.65-.08.1,0,.34.03.71.6-.33,1.06-.58,1.91-1.05-.71-.16-.98-.22-1.25-.28.5-1.04,1.56-1.17,2.45-1.21,2.04-.1,3.4-1.4,4.79-2.55.54-.44.92-.78,1.61-.86.21-.03.36-.59.59-1.01,1.51.8,2.36-.87,3.7-1.42-.2-.06-.41-.13-.61-.18-.19-.04-.38-.06-.56-.09-.02-.1-.05-.17-.04-.22.01-.06.06-.15.1-.16,1.09-.14,1.53-1.57,2.86-1.33,1.67.3,1.68.23,2.34-1.15.91.5,1.4.1,1.67-.78-.22-.15-.43-.29-.7-.47.78-.48,1.51-.94,2.29-1.42.3.21.61.43,1.05.75.19-1.39.72-2.5,1.85-3.27.21-.14.16-.64.36-.85.35-.35.8-.6,1.2-.89-.13.6-.27,1.2-.4,1.8.88-.49,1.42-1.03.35-1.76.52-.92,1.58-1.64.93-2.95,1.17.13,1.85-1.4,3.41-.28-.84.08-1.27.12-1.73.17v1.24c.19.1.36.27.53.26.46-.02,1.12.05,1.34-.22,1.02-1.2,1.92-2.51,2.87-3.77h0c.32-.57.64-1.13.99-1.76-.73-1.46-.68-2.29.49-3.47.8-.81,1.84-1.39,2.6-2.23.67-.74,1.09-1.7,1.65-2.54.72-1.05.14-1.78-.54-2.52-.11-.12-.05-.39-.08-.66.3.07.54.12.77.18,1.61.99,1.45-.88,2.11-1.37.62-.46.9-1.24.09-1.91-.09-.07-.24-.07-.31-.08-.86-.1-.27,1.54-1.39,1.05.26-1.34,1.26-2.03,2.33-2.67.73-.44,1.46-.89,2.48-1.51-.78-.37-1.24-.56-1.68-.8-1.04-.57-1.16-1.57-.37-2.48,1.29-1.48,2.57-2.97,3.84-4.47.07-.08.02-.26.04-.66-.39.26-.65.45-1.03.7-.77-2.28,1.51-4.07.68-6.43.65.13,1.04.2,1.55.3-.1-.31-.12-.63-.22-.65-.86-.21-1.01-.75-.92-1.55.17-1.51.04-2.99.97-4.43.53-.82.22-2.16.35-3.26.05-.44.24-.86.36-1.28.89.01.25,2.09,1.79,1.05-.07,1.23-.13,2.44-.19,3.65,1.56-1.9,1.13-4.33,1.95-6.55.75.47.74,1.25.51,1.65-.4.71-.31,1.1.41,1.53.31-.39.57-.88.96-1.18.42-.32.97-.47,1.52-.73-.56-1.5-.33-3.04-.16-4.59.06-.5-.09-1.02-.16-1.53,0,0-.16-.02-.17,0-.04.1-.06.21-.08.31h0ZM187.18,246.43c-.06-.23-.08-.65-.19-.67-1.12-.24-2.28-.66-3.31.27-.03-.19-.03-.53-.1-.55-1.13-.26-2.12-.72-2.87-1.66-.09-.11-.49.03-.74.02-.3-.02-.64,0-.88-.14-.45-.25-.8-.78-1.26-.85-.31-.05-.69.5-1.08.72-.18.1-.44.05-.74.08.24-.49.41-.82.57-1.15-.08-.08-.15-.16-.23-.24-.68.39-1.37.79-1.94,1.12-.33-.32-.63-.62-.94-.92.02-1.5-1.37-.8-2.24-1.23.14.74.29,1.48.45,2.35.42-.28.59-.39.76-.49-.06.66-.13,1.24.9,1.05.47-.09,1.01.16,1.52.27.45.09.88.23,1.33.29.86.12,1.82,0,2.57.34,1.59.74,3.25.89,4.96.94,1.15.14,2.31.27,3.47.38.41.24.83.48,1.59.92-.33-.93-.51-1.45-.76-2.16-.36.57-.6.95-.85,1.33ZM8.01,167.45c-.29-.55-.58-1.09-.92-1.73-.64,1.37-.35,1.81.93,1.72q-.52,2.23.59,3.04c-.22-1.14-.41-2.09-.6-3.03ZM42.09,238.37c-.35-.04-.7-.08-1.05-.12-.05.14-.1.27-.14.41.6.3,1.2.6,2.03,1.02-.2-.58-.29-.82-.37-1.07.68.27,1.36.43,1.93-.22,0,.7,0,1.4-.97,1.66.49.16.98.33,1.4.47.38-.6.68-1.08,1.03-1.63-.61-.19-1.05-.33-1.51-.45-.97-.13-1.51-1.42-2.68-1.02-.03-.48-.05-.96-.08-1.54-1.43-.34-1.93-1.48-2.13-2.84,1.91,1.66,4.23,2.66,6.39,3.92.84.49,1.51,1.28,2.41,2.06,1.26-.22,1.26-.21,3.58.41.65.17,1.06-.05.98-.75-1.23-.65-2.39-1.28-3.76-2.01.79-.1,1.29-.16,1.81-.23-.42-1.65-1.72-.71-2.52-1.08-.88,1.39-1.68.35-2.52-.08-.49-.24-1.01-.63-1.5-.61-1.78.05-2.65-1.35-3.78-2.28-1.08-.89-2-1.97-3.03-2.93-1.79-1.67-3.6-3.31-5.43-4.94-.08-.07-.35.07-.71.15,1.05,1.25,1.94,2.46,2.99,3.52,1.66,1.69,3.43,3.28,5.16,4.92-.33.53-.75.55-1.2.17-1.14-.96-2.28-1.93-3.39-2.91-.59-.52-.94-1.4-1.95-1.28-.07-.86-.23-1.46-1.35-1.66-1.04-.18-1.88-1-2.32-2.07-.14-.34-.29-.7-.53-.96-1.12-1.22-2.28-2.41-3.42-3.61-.72-.4-1.43-.79-2.26-1.26-.06.36-.11.67-.16.98.47.25.86.59,1.3.64.35.05.75-.24,1.12-.38-.2.72-.59,1.53.2,2.05,2.11,1.39,3.42,3.49,5.04,5.32.57.65,1.04,1.95,2.41,1.27-.22,1.05.17,1.84.99,2.48.32.25.65.51.9.83,1.78,2.28,3.97,3.94,6.82,4.64.1.33.19.66.29.99ZM87.33,62.8c.63.12,1.26.25,2.05.4-.45-.68-.83-1.25-1.33-2-.28.67-.49,1.15-.69,1.64q-1.2.23-1.09,1.68c.77-.37,1.7-.52,1.06-1.72ZM88.31,228.29q.63-.39.1-1.65c-.36.31-.7.59-1.11.94.44.31.77.54,1.09.76-1.27-.12-2.6-.54-3.61.68-.37-.02-.89-.72-1.06.22-.39-.22-.79-.44-1.33-.74-.19.64-.32,1.11-.47,1.6.91.11,1.68.2,2.58.32.08-.56.15-1,.23-1.44,1.11.11,2.31-.5,3.26.67.14-.6.24-.98.32-1.37ZM91.01,147.14c-.8-1-1.79-.56-2.72-.31-.12.03-.11.54-.2,1.06,1.14-.31,2.05-.56,2.96-.81.54.49,1.07.55,1.52-.32-.52.13-1.04.25-1.56.38ZM95.23,239.55c-.46.05-.92.1-1.77.19.96.73,1.39,1.61,2.58,1.05.47-.22,1.05-.19,1.58-.27,2.18-.45,4.44-.62,6.74-1.8-.64-.4-.95-.59-1.27-.79.39-.26.76-.5,1.15-.76-.53-.31-.98-.58-1.49-.87-.35.43-.63.79-.91,1.14-.76-.81-1.19-.25-1.6.38-1.18.09-2.06.71-2.69,1.65-.16.24.04.71.06,1.06-.81-.3-1.62-.61-2.42-.92.05-.48.1-.96.15-1.51-.69.22-1.2.37-1.85.58.71.36,1.22.62,1.74.89ZM62.5,86.03c.59-.14,1.18-.27,2.18-.5-1.33-.64-2.26-1.09-3.19-1.54-.07.11-.15.23-.22.34.43.58.85,1.15,1.28,1.73-.34.1-.69.2-1.03.3,0,.14,0,.27,0,.41,1.35.22,2.54,1.42,4.57.29-1.03-.22-1.67-.55-2.23-.44-.71.15-.99-.23-1.36-.6ZM203.01,142.47c.68-.88,1.36-1.77,2.28-2.97-.89.1-1.7-.05-1.96.26-.53.65-.77,1.54-1.13,2.34.29.1.58.2.88.3-.1.8.38,1.25,1.04,1.09.69-.16,1.68-.37,1.35-1.48-.84.16-1.65.31-2.46.46ZM20.14,219.93c.47-.15,1.06-.32.68-.95-.56-.91-1.24-1.75-1.9-2.59-.05-.07-.44.13-.6.18.37,1.03.7,1.96,1.14,3.19.01,0,.4.08.79.16-.35,1.02-.69,2.03-1.13,3.32.95.2,1.72.36,2.48.52-.73-.97-2.04-1.53-.75-2.91.04-.05-.46-.6-.71-.92ZM279.26,186.32c.16-.82.33-1.64.49-2.47-.15-.01-.29-.02-.44-.04,0,.84-.02,1.67-.03,2.51-.62-.16-1.24-.28-1.31.64-.07,1-.08,2-.13,2.98-.37-.29-.74-.57-1.11-.86-.12.1-.24.21-.36.31.17.41.34.82.66,1.58.4-.54.6-.81.79-1.08.28.33.56.65.91,1.05.67-1.1.94-2.02.27-3.09-.3-.48-.49-1.15.26-1.54ZM248.38,110.83c.49,1.06,1.49.87,2.37.96,1.63.16,3.27.3,4.9.42.28.02.57-.07.86-.1-2.65-1.23-5.44-1.1-8.19-1.22-.26-.73-.81-.83-1.39-.5-.13.07.01.62.03,1.01.59-.24,1-.41,1.42-.57ZM264.87,177.25c.2.06.39.13.71.23.19-.61.37-1.22.66-2.17-.82.08-1.39.14-2.14.22.37.79.61,1.28.84,1.77-.73-.05-.9.31-.91,1,0,.92-.01,1.88-.3,2.73-.51,1.5-.53,2.99-.52,4.63.47-.51,1-.83,1.11-1.25.29-1.18.24-2.46.63-3.6.43-1.26.36-2.39-.07-3.57ZM92.79,58.29c-.04.36-.07.71-.13,1.26,2.08-1.65,3.94-3.13,6.02-4.77-.98-.26-1.59-.42-2.3-.61-.19.31-.31.78-.61.96-1.45.89-2.97,1.69-4.44,2.57-1.15.68-2.02,1.59-2.31,3.2,1.42-.96,2.61-1.76,3.8-2.57l-.04-.04ZM253.34,135.29c.04-1.41,1.73-.86,2.14-1.83-1.73-2.45-9.05-6.15-11.7-5.91.02.13,0,.35.06.38,1.9.9,3.74,1.95,5.72,2.6,1.79.58,2.93,1.74,3.9,2.97-.44.35-1,.57-1.09.91-.18.73.41.87,1.01.85-.25.7-.14,1.23.95,1.57-.43-.67-.71-1.1-1-1.54ZM273.66,213.24c.01-.19-.05-.44.04-.58,1.05-1.43,2.12-2.84,3.19-4.26.13.25.25.5.38.75-.13.41-.27.82-.4,1.24.22.06.3.12.34.09.6-.31,1.19-.62,1.45-.76.27-.79.32-1.38.62-1.77.92-1.19,1.22-2.84.48-4.66-.51,1.47-.91,2.63-1.37,3.96-.14-.02-.5-.06-.86-.1.07-.8.13-1.5.2-2.36-.59.71-1.03,1.21-1.45,1.74-.63.8-1.45,1.53-1.82,2.44-.55,1.36-1.35,2.46-2.32,3.52-.51.56-.69,1.42-1.02,2.14-1.52.12-2.12.71-2.38,2.41,1.06-.59,1.93-1.3,2.33-2.47.88-.47,1.76-.94,2.63-1.4-.12.48-.51,1.17-.33,1.39.51.62.93-.04,1.33-.38.23-.2.47-.38,1.02-.83-.96-.06-1.51-.1-2.06-.13ZM28.51,192.17c.72-1.18-.73-1.25-.92-1.21-1.23.22-1.78-.64-2.33-1.36-1.9-2.53-3.7-5.12-5.57-7.67-.49-.68-1.08-1.29-1.74-2.08-.42,2.17,2,2.86,1.97,4.71-.52-.1-.8-.16-1.42-.28.92,1.28,2.49.79,3.08,2.12.47,1.08,1.62,1.84,2.16,2.9.5.98.61,2.17.91,3.38,1.19.45,2.77.58,3.48,2.18.08.18.58.18,1.03.31-.3-.66-.52-1.14-.73-1.61,1.49.86,2.22,2.7,4.05,3.15.1.02.1.38.18.57q.79,1.99,3.23,1.74c-1-1.01-1.84-2.01-2.85-2.78-.46-.35-.84-.61-.96-1.18-.03-.13-.03-.32-.11-.38-1.15-.85-2.31-1.68-3.46-2.51ZM162.8,165.34c-.53-.09-1.04-.03-1.18-.23-.38-.53-.64-1.15-.86-1.76-.47-1.3-1.69-1.22-2.68-1.67-.94-.42-.86.59-1.42.53.68,1.39.7,1.37,1.92,2,1.3.67,2.34,1.57,2.38,2.92.51.16.92.29,1.33.42-.12-.11-.25-.22-.37-.33.94-.64,1.88-1.28,2.79-1.91-.67-1.13-.98-2.38-2.58-2.02.22.67.41,1.24.67,2.04ZM109.94,151.6c.04-.13.08-.26.12-.39-.21-.15-.4-.41-.62-.43-.97-.09-1.88-.28-2.59-1.02-.13-.13-.46-.26-.55-.19-.89.61-1.56-.19-2.33-.3-1.29-.18-2.45-1.12-3.85-.64-.23.08-.57,0-.79-.11-2-1.05-4.1-.62-6.19-.53,5.59,1.31,11.19,2.5,16.81,3.61ZM94.3,117.55c2.64-1.81,5.07-3.48,7.55-5.18q.69.38,1.43-.18c-.82-.34-1.59-.65-2.14-.87-2.31,2.57-5.53,3.49-8.33,5.52.82.39,1.27.62,1.49.72ZM135.82,107.25c-.59.53-.94.72-1.1,1.01-1.27,2.22-2.98,4.14-5.07,5.45-1.18.73-1.52,1.34-1.42,2.51,2.38-.61,4.96-3.59,7.6-8.97ZM263.43,152.88c-1.98-4.34-2.46-8.9-4.4-13.25-.74,1.3-.04,2.05.2,2.86,1.08,3.52,2.88,6.87,2.53,10.97.6-.21,1.13-.39,1.66-.58ZM132.87,122.16c-.27.33-.56.67-.92,1.1.5.41.9.77,1.33,1.1.88.66,1.98,1.15,2.6,2,.75,1.04,1.42.92,2.23.6-.42-1.31-1.25-2.06-2.49-2.61-1-.44-1.78-1.39-2.75-2.19ZM229.13,126.66c-.04.21-.08.41-.13.62,1.56.4,3.18.41,4.85.3-.16.46-.27.81-.43,1.27.91-.06,1.66-.11,2.69-.17-.61-.42-.92-.64-1.34-.92h1.65c-.42-1.15-1.38-1.4-2.23-1.41-1.69-.02-3.37.2-5.06.33ZM93.07,227.18q-.71-.56-1.84-.13c1,1.13,2.08,2.13,3.76,1.95.31-1.02,1.85-1.22,1.87-2.88-1.36.38-2.53.7-3.79,1.06ZM51.6,242.63q1.46,1.49,3.23.37c-2.49-1.06-4.79-2.05-7.33-3.13.15,1.28,1.23,1.06,1.62,1.57.47.6.82,1.29,1.28,2.04.33-.23.7-.5,1.19-.85ZM44.41,205.43c-.09.13-.18.26-.28.39.84,2.03,4.73,3.8,6.77,2.93-2.24-1.15-4.36-2.24-6.49-3.32ZM73.49,82.44c1.12-.16,1.55-1.66,2.81-1.01.06.03.28-.21.41-.34.59-.63,1.16-1.27,1.75-1.91-.09-.12-.18-.24-.27-.37-1.78.69-3.55,1.38-5.38,2.09.26.59.47,1.05.69,1.54ZM102.16,210.01c-2.33.51-4.54,1.23-6.39,2.65.69.45,1.17.75,1.75,1.13.13-.51.24-.99.36-1.44,1.75-.25,3.29-.76,4.29-2.34ZM78.86,62.49c-.22-.07-.44-.14-.65-.21-.78,1.31-1.57,2.63-2.38,3.99.72.13,1.27.23,2.09.38-.26-.65-.42-1.06-.57-1.43.56-.08,1.11-.02,1.47-.26.21-.13,1.17-.59.15-1.17-.21-.12-.08-.85-.1-1.29ZM192.64,150.27c-.81.65-1.75,1.04-1.8,1.52-.14,1.26.1,2.55.22,4.27,1.14-1.96,1.98-3.52,1.58-5.79ZM71.63,72.12c2.45-1.16,2.72-1.64,2.13-3.39h-1.62c-.09,1.16.24,2.32-.51,3.39ZM31.9,224.1c.12-.15.24-.3.37-.44-.78-.57-.76-1.77-1.96-2.04-.62-.14-1.22,0-1.32.57-.07.39.26,1.11.61,1.28.69.36,1.53.44,2.3.63ZM42.27,80.56c-.08.22-.16.44-.24.66.8.53,1.56,1.17,2.43,1.56.8.36,1.49,1.5,2.65.7-.12-.2-.15-.36-.25-.43-1-.72-2.28-1.02-2.97-2.24-.16-.29-1.05-.17-1.61-.24ZM145.8,85.73c.1.78.17,1.35.23,1.8h2.22c.1-.97,1.22-1.9.22-3.12-.54,1.57-.98,1.81-2.67,1.32ZM246.17,110.15c-1.2-.69-2.37-1.38-3.6-2.09-.25.43-.4.7-.51.91,1.67.41,2.26,2.46,4.12,2.39v-1.2ZM165.94,167.1c-.15-.02-.3-.05-.45-.07-.13.58-.5,1.24-.35,1.73.29.93,1.33,1.32,2.5,1.12-.58-.95-1.14-1.87-1.7-2.78ZM115.41,40.37c-.03.15-.05.3-.08.45,1.71.34,3.41.73,5.13,1,.39.06.84-.32,1.27-.49-.04-.16-.08-.31-.13-.47-2.06-.16-4.13-.33-6.19-.49ZM153.5,191.53c.17.03.35.06.52.09.09-.45.18-.89.25-1.29.53.06.99.12,1.46.18.26-.96-1.39-1.27-.48-2.23.01-.01-.28-.46-.47-.5-.19-.04-.59.15-.62.3-.26,1.14-.45,2.3-.66,3.45ZM109.42,148.7c1.91.65,3.77,1.28,5.71,1.93-.04-.4-.07-.79-.12-1.28-1.87-.35-3.68-.93-5.59-.65ZM256.77,138.52c-.49-3.49-.63-3.7-2.55-3.69.83,1.21,1.58,2.3,2.55,3.69ZM258.24,142.67c-.19.06-.38.12-.57.18.59,1.72,1.18,3.43,1.78,5.14.16-.05.32-.11.48-.17-.17-1.84-.91-3.51-1.69-5.16ZM155.61,186.46c.48-1.52.54-2.87-.52-4.11,0,.88.18,1.65-.51,2.46-.53.61-.17,1.42,1.03,1.65ZM116.08,95.08c1.37-.7.49-2.31,1.6-2.85-.37-.52-.75-1.03-1.12-1.55-.5,1.35-.47,2.77-.47,4.4ZM153.01,149.01q-.16,2.09,1.72,2.18c.03-1.46-.07-1.6-1.72-2.18ZM109.74,81.84c.18-1.43.28-2.26.43-3.45-.7.4-1.2.53-1.43.85-.29.41-.59,1.04-.47,1.45.11.39.77.63,1.47,1.15ZM205.39,139.43c.72.16,1.25.43,1.7.34,1.19-.23.21-1.82,1.36-2.19-1.38-.07-2.12.75-3.07,1.85ZM168.68,199.05c-.64-.66-1.24-1.29-2.14-2.23,0,1.5,1.25,2.21.65,3.31-.04.07.34.52.49.51.28-.03.62-.23.77-.46.16-.25.14-.62.24-1.13ZM165.27,237.81c.15-.09.31-.18.46-.26-.07-.37-.01-.9-.24-1.09-.7-.58-1.5-1.02-2.26-1.52-.12.16-.25.32-.37.48.8.8,1.61,1.6,2.41,2.4ZM264.29,151.77c-.1,2.12.12,2.37,1.71,2.02-.3-.85-.24-1.93-1.71-2.02ZM117.82,87.68c1.27-.53,1.31-1.35,1-2.21-.72-.04-1.3-.08-1.9-.12.02.32,0,.47.05.59.26.55.54,1.1.86,1.74ZM79.75,65.04c1.63,1.07,2.11.65,2.43-1.96-.42,1.11-1.25,1.71-2.43,1.96ZM258.33,197.47c-1.94.31-2,1.75-2.86,3.04,1.55-.68,2.35-1.51,2.86-3.04ZM26.88,220.33c.15-.05.3-.09.45-.14-.11-.42-.09-1.06-.35-1.21-.8-.46-1.24-1.59-2.62-1.47.94,1.05,1.73,1.94,2.52,2.82ZM70.57,242.18c-1.06-.45-2.11-1.15-3.48-.32.46.13.89.14,1.11.36.27.26.37.7.49.94.69-.36,1.29-.67,1.89-.98ZM108.56,237.52c-.01-.09-.03-.18-.04-.27-1.14-.14-2.27-.27-3.39-.41.15.37.34.84.57,1.4.96-.24,1.9-.48,2.85-.72ZM115.51,154.31c-.66-1.29-1.85-1.31-3.23-1.51.83,1.38,1.95,1.62,3.23,1.51ZM132.81,43.31c-1.12-.79-2.01-2.03-3.65-1.74,1.57-.14,1.92,2.21,3.65,1.74ZM286.68,167.16c.1-1,.03-1.87-.91-2.49q-.3,2.04.91,2.49ZM240.6,128.68c-1.12-.31-1.6-1.94-3.11-1.51q.56,1.31,3.11,1.51ZM98.43,48.79c-1.21.73-2.32,1.4-3.42,2.07,3.07-.67,3.32-.83,3.42-2.07ZM78.28,98.38c1.55.41,2.47-.72,3.63-1.04-1.24.03-2.54-.18-3.63,1.04ZM131.81,189.34c.1.02.27.07.28.05.38-.91.74-1.83,1.11-2.76-1.41.53-1.77,1.47-1.39,2.71ZM102.57,147.28c.04-.2.09-.4.13-.6-1.31-.23-2.62-.46-3.93-.69,1.03,1.56,2.63.41,3.8,1.29ZM260.14,183.75c.76-1.29,1.99-2.5,1.02-4.51-.39,1.74-.71,3.12-1.02,4.51ZM28.57,229.8c.18-.06.36-.13.54-.19-.13-.58.7-1.29-.3-1.7-.24-.1-.67.3-1.01.47.26.47.52.94.78,1.41ZM256.9,191.81q1.99-1.61,2.01-2.18c-.47.03-.96.07-1.52.11-.12.53-.28,1.23-.48,2.07ZM266.07,117.28q.92,1.67,2.15,1.2c-.57-.72-.83-1.79-2.15-1.2ZM140.85,132.73c-1.53,1.22-1.53,1.25,0,2.27v-2.27ZM101.16,142.04c-1.87-1.05-2.28-1.04-3.81,0h3.81ZM107.32,43.1c-1.14-.34-2.27-.67-3.56.15,1.39.96,2.45-.04,3.56-.15ZM13.03,198.97c-.25.02-.5.05-.74.07.46.69-.37,1.45.46,2.04.22.16.77-.12,1.32-.23-.42-.77-.73-1.33-1.04-1.89ZM107.91,148.61c-2.38-1.35-2.54-1.36-2.88-.33.96.11,1.92.22,2.88.33ZM166.69,238.07c-.12.17-.23.33-.35.49.98.52,1.96,1.05,2.94,1.57.08-.15.17-.3.25-.45-.95-.54-1.9-1.08-2.84-1.62ZM79.88,122.81h-1.79c.23.69.4,1.18.62,1.86.49-.78.81-1.29,1.16-1.86ZM130.28,170.95c.19.12.39.24.58.36-.5-1.3.09-1.59.93-1.85-.42-.21-.85-.42-1.51-.76v2.25ZM99.82,51.33c.05.16.1.33.15.49.55-.17,1.12-.31,1.66-.51.54-.2,1.07-.46,1.6-.69-.05-.12-.1-.24-.14-.36-1.09.36-2.18.71-3.26,1.07ZM245.15,126.12q.89,1.45,2.4.59c-.91-.22-1.65-.4-2.4-.59ZM223.92,241.64c1.22-.3,2.11-.5,2.74-1.6-1.28-.04-2.06.35-2.74,1.6ZM257.46,196.81c.27-.14.76-.25.77-.41.08-.66-.23-1.16-.93-1.3-.11-.02-.24.08-.34.11.14.44.28.9.5,1.6ZM229.88,234.4c1.11-.09,1.39-.85,1.49-1.82-.51.62-2.33.04-1.49,1.82ZM133.17,105.87c-.54.75-.92,1.29-1.31,1.83.65-.39,2.47.04,1.31-1.83ZM225.82,133.77c-1.03-.89-1.57-.11-2.49.1,1.02,1.31,1.62.37,2.49-.1ZM262.29,188.52q1.63-1.35.9-1.97c-.31.69-.61,1.33-.9,1.97ZM5.72,176.67q-.15,1.74,1.05,2.33c-.35-.78-.7-1.55-1.05-2.33ZM144.45,134.51c-.08-1.85-.26-1.97-1.79-1.07.64.38,1.18.7,1.79,1.07ZM155.98,169.11c.28-.86-.16-1.3-.9-1.89-.13.73-.22,1.23-.33,1.83.47.02.8.04,1.22.06ZM245.5,123.54c-.44,1.93.77,1.41,1.39,1.65.09-.11.17-.22.26-.33-.48-.38-.95-.76-1.66-1.32ZM149,92.46c.17-.86.27-1.39.42-2.19-1.18.55-1.61,1-.42,2.19ZM266.9,171.14q-1.27,1.19-.32,2.12c.12-.79.22-1.45.32-2.12ZM52.96,232.78c-.51-.89-1.25-.91-2.09-.67.55.51.93,1.51,2.09.67ZM263.69,114.77c.73.76,1.04,1.65,2.32,2.09-.67-1.05-.71-2.13-2.32-2.09ZM134.99,45.02q.25.86,1.62.73c-.56-.25-1.12-.51-1.62-.73ZM105.17,77.46c-.12-.08-.23-.17-.35-.25q-1.08,1.05-.98,2.14c.52-.74.92-1.31,1.33-1.89ZM172.7,181.11c.07-1.06.11-1.69.16-2.48q-1.35,1.14-.16,2.48ZM17.68,210.43c.55.7.6,1.58,1.71,1.44-.07-.96-.5-1.37-1.71-1.44ZM279.7,200.18q-.68,1.13-.49,2.3c.44-.72.8-1.3,1.13-1.85-.19-.16-.24-.21-.29-.25-.11-.07-.23-.13-.35-.2ZM76.5,100.23q-1.17-.26-1.31.9c.51-.35.91-.62,1.31-.9ZM79.65,66.33c-.43.71-.86,1.42-1.4,2.31q1.44-.93,1.4-2.31ZM263.71,156.1c.16,0,.33.02.49.03.05-.46.67-.92-.28-1.58-.08.63-.15,1.09-.21,1.55ZM140.17,53.66c-.13.12-.26.23-.39.35.47.5.94,1,1.41,1.49.11-.1.22-.2.33-.3-.45-.51-.9-1.03-1.35-1.54ZM129.56,160.97c-.32-.56-.19-1.55-1.4-1.48.19.85.44,1.46,1.4,1.48ZM281.75,177.16c.21.04.41.08.62.12.04-.81.79-1.56-.09-2.85-.23,1.17-.38,1.95-.53,2.73ZM235.14,110.15c.6.36,1.1,1.06,2.05.59-.56-.89-1.15-1.22-2.05-.59ZM151.43,152.06c.71-.82.77-1.59-.13-2.65.05,1.11.09,1.88.13,2.65ZM138.26,90.36q-1.08.5-.78,1.83c.29-.68.5-1.18.78-1.83ZM9.42,173.37c-.14.07-.28.13-.42.2.21.43.41.86.62,1.3.09-.04.19-.08.28-.11-.16-.46-.31-.92-.47-1.39ZM15.29,183.11c-.02-.22-.03-.44-.05-.66-.39-.03-.78-.06-1.18-.1.03.3.07.59.1.89.37-.04.75-.09,1.12-.13ZM17.02,181.77c.04-.94-.22-1.58-1.14-1.74.38.58.76,1.16,1.14,1.74ZM73.48,95.59c.95.45,1.68.23,2.68-.63-1.19.28-1.94.46-2.68.63ZM88.47,64.33c-.14-.11-.28-.21-.42-.31-.47.55-.95,1.1-1.42,1.65.11.1.22.2.33.3.5-.55,1.01-1.09,1.51-1.64ZM101.62,243.88c-.87-.29-1.33-.07-1.43.68-.02.17.25.38.5.75.37-.57.63-.96.93-1.43ZM195.22,153.61c-1.07.23-1.63.79-1.07,1.98.4-.74.74-1.36,1.07-1.98ZM111.03,235.58c-.39-.57-.72-1.15-1.44-.65-.2.14-.15.66-.23,1.11.65-.18,1.11-.3,1.67-.46ZM133.83,117.93c-.72.1-1.24.17-2.14.29,1.02.96,1.55,1.11,2.14-.29ZM197.5,153.82c-.63-.89-.98-.73-1.23.13.49-.05.86-.09,1.23-.13ZM4.81,125.93q-.67,2.04.13,2.63c-.04-.8-.07-1.49-.13-2.63ZM212.83,248.6h-2.21c.78.92,1.34.98,2.21,0ZM150,88.7q-1.08.06-.91.99c.36-.39.63-.69.91-.99ZM219.01,132.6c-.57-.21-1.13-.43-1.7-.64.75.9.97.98,1.7.64ZM117.82,123.43q1.04-.26,1.03-1.28c-.38.47-.65.81-1.03,1.28ZM224.21,127.67c-.06-.12-.12-.24-.17-.37-.5.33-1.35-.09-1.64,1.19.74-.34,1.28-.58,1.82-.83ZM237.95,125.31c0,.12,0,.25,0,.37.46.02.93.05,1.39.02.06,0,.1-.34.17-.63-.59.09-1.07.16-1.56.24ZM157.33,181.95c.22-.73.35-1.18.54-1.83-.64.47-1.35.65-.54,1.83ZM257.44,140.08q-.84,1.58.44,1.96c-.13-.57-.23-1.04-.44-1.96ZM51.4,209.11q.7,1.07,1.84.37c-.65-.13-1.2-.24-1.84-.37ZM171.6,236.61c-.13.02-.25.04-.38.06v1.19c.23-.05.46-.11.7-.16-.1-.36-.21-.73-.31-1.09ZM3.26,165.98c.21.85.34,1.36.56,2.24.31-.98.58-1.57-.56-2.24ZM254.84,203.61c.14.07.28.14.42.21.2-.46.4-.92.59-1.38-.14-.05-.28-.11-.42-.16-.2.44-.4.89-.59,1.33ZM7.8,184.4c-.12.11-.24.21-.36.32.32.37.64.75.96,1.12.09-.08.19-.15.28-.23-.29-.4-.58-.8-.87-1.21ZM47.04,233.5c-.13.06-.25.11-.38.17.14.25.27.51.43.74.02.03.23-.09.36-.13-.14-.26-.27-.52-.41-.77ZM10.15,186.76c.18,0,.36-.02.54-.03-.04-.39-.08-.78-.11-1.17-.18.05-.51.1-.51.15-.01.35.05.69.09,1.04ZM245.66,219.3c-.2.34-.34.55-.43.77-.01.03.28.25.34.22.18-.1.37-.26.46-.44.04-.08-.18-.27-.37-.55ZM258.73,135.22c-.26-.2-.44-.4-.66-.47-.1-.03-.28.18-.43.29.19.21.36.44.58.62.02.02.27-.23.51-.44ZM60.78,74.96c.02.18.04.36.06.55.55.26,1.04.29,1.42-.71-.59.06-1.03.11-1.48.16ZM128.81,192.73c.14.06.28.12.41.18.17-.42.34-.84.51-1.26-.13-.05-.25-.11-.38-.16-.18.42-.37.83-.55,1.25ZM175.49,144.1c1.2-.29,1.7-.65,1.31-1.69-.42.54-.76.97-1.31,1.69ZM59.59,242.85c.03-.49.05-.75.06-1-.32.05-.64.11-1.12.19.4.31.61.47,1.05.81ZM58.62,79.53c-.55.28-1.11.56-1.66.84.74.1,1.42.08,1.66-.84ZM82.42,73.18c-.09-.15-.17-.3-.26-.45-.67-.04-1.21.06-.9,1.27.46-.32.81-.57,1.15-.81ZM114.72,124.26c.07.15.14.3.21.45.38-.25.76-.49,1.13-.74-.08-.12-.15-.24-.23-.36-.37.22-.75.43-1.12.65ZM118.56,88.44h-.42c-.08.57-.16,1.14-.24,1.72.14.02.28.03.42.05.08-.59.16-1.18.23-1.77ZM137.08,46.85q.53,1.26,1.36.79c-.5-.29-.93-.54-1.36-.79ZM74.63,123.63c.18.64.29,1.03.45,1.6.41-.36.66-.58,1.03-.89-.53-.25-.87-.42-1.48-.71ZM162.15,169.07c-.14.07-.28.14-.42.21.2.33.39.67.59,1,.1-.05.2-.1.3-.16-.16-.35-.32-.7-.48-1.05ZM281.34,181.68c-.15,0-.3.01-.45.02.06.39.12.78.18,1.17.12-.02.23-.03.35-.05-.03-.38-.05-.76-.08-1.14ZM281.68,147.97c.46.42.77.7,1.28,1.18v-1.57c-.47.14-.77.23-1.28.39ZM9.54,192.75c-.51.63-.64,1.15.46,1.59-.21-.71-.33-1.15-.46-1.59ZM11.48,187.4c-.15,0-.3,0-.45.01,0,.29,0,.58.02.86,0,.02.25.02.38.03.02-.3.04-.61.05-.91ZM27.18,229.99c-.5-.43-.69-.59-.87-.75-.11.14-.33.35-.29.42.1.21.29.43.5.53.12.06.34-.1.67-.21ZM152.75,146.41c-.1.08-.2.16-.3.24.21.45.41.89.62,1.34.11-.05.21-.1.32-.15-.21-.47-.43-.95-.64-1.42ZM171.73,160.6c-.13.1-.26.2-.39.3.29.35.59.7.88,1.05.11-.08.22-.16.32-.25-.27-.37-.54-.74-.81-1.11ZM169.5,172.47c.04.11.08.22.12.33.33-.08.66-.17.98-.25-.05-.17-.11-.34-.16-.5-.31.14-.63.28-.94.43ZM153.79,160.49c.26.18.44.37.65.43.09.03.38-.27.36-.3-.12-.21-.28-.42-.48-.57-.03-.03-.28.22-.54.43ZM226.22,235.77c.09.08.18.17.26.25.25-.26.5-.51.75-.77-.09-.09-.18-.18-.27-.27-.25.26-.49.52-.74.79ZM104.54,80.83c.04.09.09.19.13.28.27-.09.54-.17.81-.26-.08-.16-.16-.32-.24-.48-.23.15-.47.31-.7.46ZM122.72,119.69c-.12-.14-.23-.27-.35-.41-.26.31-.53.62-.79.94.08.08.16.15.24.23.3-.25.6-.51.9-.76ZM72.18,242.83c.11-.11.21-.21.32-.31-.28-.22-.56-.44-.85-.64-.01,0-.23.25-.23.26.24.24.5.47.76.7ZM254.53,193.88c.01.12.02.24.03.37h.97c0-.19,0-.38-.01-.56-.33.07-.66.13-.99.2ZM234.03,125.06c-.02-.19-.03-.38-.05-.56-.55.05-1.09.11-1.64.16.01.13.02.27.04.4h1.65ZM71.02,83.9c-.02-.15-.04-.3-.06-.45-.49.06-.98.12-1.47.18.01.12.03.25.04.37.5-.04.99-.07,1.49-.1ZM276.96,203.27c-.21.3-.4.48-.48.7-.03.09.19.26.3.4.17-.17.38-.31.48-.51.05-.09-.14-.3-.3-.59ZM276.93,137.75c.15-.03.3-.06.45-.09-.08-.37-.16-.75-.24-1.12-.13.02-.27.04-.4.06.06.38.12.76.18,1.14ZM65.14,130.4c.22,1.03.81.63,1.27.56.05,0,.08-.2.17-.48-.5-.03-.94-.05-1.44-.08ZM206.18,132.36c-.33.72-.46.99-.56,1.26,0,.03.24.2.26.18.22-.2.45-.4.59-.65.06-.1-.11-.33-.29-.79ZM59.51,82.93c-.04.12-.07.24-.11.37.27.06.55.11.82.16,0,0,.07-.22.05-.23-.25-.11-.51-.2-.77-.3ZM50.49,246.91c-.09.08-.17.17-.26.25.19.27.38.54.57.81.13-.15.26-.3.39-.44-.23-.2-.47-.41-.7-.61ZM241.35,110.61c.2-.19.41-.39.61-.58-.31-.25-.61-.49-.91-.74-.13.12-.26.24-.39.35.23.32.46.65.69.97ZM150.53,158.68c.04.11.07.23.1.34.35-.1.7-.2,1.05-.3-.04-.13-.08-.26-.12-.39-.34.11-.69.23-1.03.34ZM129.16,212.7c.11.11.23.23.34.34.35-.33.7-.66,1.06-.98-.12-.12-.24-.24-.36-.37-.35.34-.69.67-1.04,1.01ZM131.89,101.64c0,.11,0,.21,0,.32h.98c0-.12-.02-.35-.03-.35-.32,0-.64.01-.96.03ZM138.43,85.24c.45.54.72.86,1.17,1.4.08-.99-.06-1.42-1.17-1.4ZM207.76,139.81c-.15.59-.25,1-.42,1.67.96-.51,1.17-.9.42-1.67ZM56.66,233.99c-.09.12-.17.24-.26.36.47.18.94.36,1.4.54.04-.09.07-.17.11-.26-.42-.22-.84-.43-1.25-.65ZM242.78,127.07c.05-.09.09-.19.14-.28-.18-.15-.35-.37-.56-.44-.18-.06-.41.07-1.08.21.8.27,1.15.39,1.5.5ZM31.12,231.29c.1-.03.21-.06.31-.1-.09-.32-.18-.64-.27-.96-.12.04-.24.08-.37.11.11.31.22.63.32.94ZM177.23,210.92c-.15.01-.31.02-.46.03.12.37.24.75.46,1.47v-1.5ZM189.86,246.48c.02.16.04.32.06.48.49-.24,1.11.52,1.66-.63-.7.06-1.21.11-1.72.15ZM130.45,229.09c-.15.08-.31.15-.46.23.18.35.36.7.53,1.05.12-.06.24-.12.36-.18-.14-.36-.29-.73-.43-1.1ZM276.33,196.53c-.32.62-.52,1.01-.72,1.4.14.12.28.23.42.35.19-.32.4-.62.54-.96.05-.13-.09-.33-.24-.79Z"/>
      <path class="cls-1" d="M182.59,93.45c-.6-.27-1.21-.54-1.81-.8l-.06.05c1.26-.06.37-1.78,1.7-1.69-.49-.78-.81-1.29-1.11-1.78.25-.31.46-.57.72-.89-.37-.42-.71-.82-1.12-1.29.24-.1.42-.27.55-.23.75.24,1.48.52,2.31.82-.24.45-.44.82-.63,1.19,1.31-.76,2.52-.58,3.78-.06.32.13.78-.1,1.18-.17.83.81,1.57,1.84,2.98,1.14.09.24.11.63.27.69,2.38.95,4.77,1.87,7.22,2.81.39-1.15.26-1.73-.75-1.95-.7-.16-1.45-.32-2.04-.69-.88-.56-1.72-1.05-2.82-.88-.63.1-1.27.05-1.91.07-.02-1.22-1.32-.95-1.74-1.62-.49.18-.87.33-1.25.47-.19-.36-.3-.94-.58-1.05-2.05-.79-3.86-2.1-6.08-2.57-1.07-.22-1.98-1.14-3.02-1.77.25-.38.42-.63.66-.98-.23-.22-.44-.48-.71-.66-1.47-.99-3-1.89-4.41-2.96-.79-.6-1.37-.07-2.04.07,0-.49,0-.98,0-1.66-1.04.78-.42,1.18.05,1.61.18,1.21-.63.67-.95.44-.53-.37-.92-.93-1.5-1.55.07-.22.2-.62.35-1.1-1.1-.18-1.34.67-2,1.26-1.22-1.43-2.42-2.88-3.69-4.26-.39-.42-.98-.66-1.48-.98-.61-1.79-1.34-3.48-3.55-4.29.53.87.91,1.5,1.3,2.13-.29-.06-.81-.2-.82-.17-.35,1.05-.7.83-1.22.09-1.38-1.98-3.14-3.72-3.79-6.15.11-.13.23-.26.35-.38.68.73,1.36,1.46,2.12,2.28.33-.07.78-.15,1.19-.23-.35-.74-.66-1.41-.97-2.08-.08-.18-.12-.47-.26-.52-1.37-.53-1.84-1.97-2.89-2.84-.99-.83-1.55-2.18-2.44-3.52,4.15,1.35,3.9,1.02,4.51,3.38.06.01.17.06.18.04.19-.25.37-.51.6-.82,1.99,1.48,3.41,3.66,5.71,4.68.18-.19.35-.37.53-.56-1.64-1.4-3.29-2.8-4.93-4.2.08-.12.15-.25.23-.37.35.17.75.28,1.03.53,1.58,1.41,3.13,2.85,4.68,4.29,1.19,1.11,2.53,1.57,4.2,1.62,1.77.06,3.66-.07,5.22,1.13.21.16.63.25.67.43.45,2.23,2.53,2.46,4.07,3.23,1.71.86,3.56,1.44,5.36,2.11.29.11.64.06,1.16.11-.24-.49-.4-.8-.68-1.36.8.08,1.43.14,2.11.21.12.64.22,1.15.27,1.45.41,0,.85-.14,1.05.02,1.03.81,2.05.84,3.38.71,1.58-.15,3.33-.49,5.22.31-.51.33-.79.51-1.14.74.84,1.24,2.34-.17,2.96.78.37-.5.67-.91.91-1.23-.53-.13-1.51-.38-2.68-.68,1.27-.82,2.55-1.1,3.87-1.3,1-.16,2.33-.17,2.89-.8,1.58-1.77,4.11-1.09,5.71-2.58,2.57.1,3.84-1.98,5.58-3.29,2.45-1.82,4.31-4.18,6.15-6.56.1-.23.21-.46.31-.69.74-.59,1.82-.91,1.8-2.18-.49.08-.87.15-1.26.22,1.11-1.47.62-2.88-.19-4.26-.04-.07-.25-.04-.39-.06l.03.05c.31-.26.61-.52.99-.85.37.42.69.79,1.1,1.25.39-.35.84-.56.96-.89.91-2.38,2.49-4.33,3.93-6.38.31-.44.03-1.28.32-1.74.28-.43,1.08-.48,1.47-.87.95-.97,1.79-2.04,2.74-3.15.66.21,1.39.43,1.95-.33.04-.05.51.24.96.46.65-.7,1.45-1.56,2.31-2.5.11.21.29.59.54,1.08.94-.09,1.98-.19,3.04-.29.03.17.06.37.13.83-.67-.37-1.06-.07-1.6.24-1.07.61-2.36.88-3.59,1.15-.89.2-1.67.24-2.13,1.28-.27.61-1.16.93-1.7,1.45-.34.34-.55.81-.68,1.34.91-.69,2.27-.42,2.88-1.79.25-.56,1.58-.97,2.37-.9,1.82.16,3.48-.47,5.19-.64,2.02-.2,4.14.44,6.19.82.79.14,1.53.56,2.4.9-.92,1.7,1.14,1.52,1.76,2.5-.36.54-.73,1.08-1.25,1.87.6,0,1.07.05,1.53-.01.85-.11,1.6-.2,1.93.89.13.42.51.83.88,1.1.84.61,1.65,1.55,2.85.6.18-.14.5-.09.77-.13-.06,1.99.56,3.54,2.28,4.53.19.11.28.38.42.57l.05-.04c-.14.24-.44.51-.4.71.18.93.45,1.85.65,2.6.63.05,1.45-.08,1.62.19.25.41.66.96.14,1.71-.54.79-.35,1.81.16,2.73.52.95.9,1.99,1.31,2.93-.65.8-1.21,1.5-1.77,2.2.9-1.78-.67-3.25-.23-5.31-1.3,1.41-2.21,2.39-2.22,3.98,0,1.48-.74,2.74-1.56,3.94-.29.43-.57.87-.66,1.49.63-.39,1.26-.77,2.03-1.24.15.61.26,1.05.36,1.49-1.01.08-1.87.35-1.73,1.76.56-.6,1.12-1.21,1.68-1.81.16-.11.32-.22.51-.35-.57,2.44-.6,2.39-2.46,3.26-.62.29-1.09.9-1.62,1.37-.18.17-.34.55-.5.54-1.02-.06-.96.38-.64,1.1.33.75.21,1.46-.54,2.06-.33-.2-.67-.4-1.02-.61.22-.36.44-.72.86-1.43-.65.24-.96.26-1.11.43-.64.71-1.2,1.36-2.29,1.55-.91.15-1.33,1.04-1.18,2.26,1.18-.85,2.2-1.6,3.23-2.34-.07,1.01-1.61,1.68-.66,2.91-.58.64-1.02,1.62-1.89.94-.94,1.03-1.77,1.95-2.59,2.86-.11-.07-.22-.14-.33-.21.02-.15.02-.3.06-.45.03-.13.1-.25.15-.38-.12-.03-.27-.13-.34-.08-.58.35-1.43.59-1.65,1.1-.83,1.89-2.92,1.32-4.17,2.33-.1.08-.46-.16-.81-.29.28-.68.52-1.27.94-2.28-1.04.55-1.72.9-2.38,1.27-.95.54-1.91,1.06-2.83,1.65-.65.41-1.61.68-1.12,1.98,1.36-.62,2.7-1.24,3.95-1.81.73.36,1.32.66,1.59.8-.96.37-2.18.92-3.45,1.31-1.46.44-2.79,1.49-4.54.85-.56-.21-1.37.26-2.38.48.43-.53.65-.8,1-1.24-.72.15-1.24.26-1.77.38.17.34.32.62.55,1.06-1.07.39-2,.83-2.98,1.05-1.4.31-2.86.35-4.25.71-1.3.33-2.5,1.01-3.8,1.37-1.97.54-3.98.97-5.98,1.37-.65.13-1.34.02-2.08.02.04-.46.07-.76.1-1.11h-1.2c-.26-.56-.5-1.11-.77-1.7-.56.1-1.02.18-1.5.27v2.56c-.57-.11-1.56.58-1.99-.85-.17-.58-.85-.55-.99.07-.12.51-.29.86-.73.69-.64-.26-1.1.88-1.86.04-.34-.38-1.31-.39-1.93-.27-2.01.39-4.02.93-5.89-.32-.59-.39-.58,1.12-1.21.22-.48-.68-.88-.25-1.22.27-.07.11-.39.11-.59.09-2.08-.18-4.15-.38-6.7-.61.79-.57,1.14-.83,1.72-1.26-1.49-.25-2.69-.61-3.48-1.74-.08-.12-.52,0-.79.02.85-1.53.7-2.12-.73-2.96-.64.91-1.15,1.85-.31,2.91ZM180.98,75.39c.71,1.88,2.32,2.63,4.93,2.11-.52-.19-.82-.35-1.13-.4-1.15-.16-2.12-.57-2.82-1.57-.13-.18-.68-.07-1.03-.1.25-1.54-.99-.7-1.54-.97-.13-.22-.2-.55-.39-.63-1.11-.51-2.25-.92-3.36-1.43-1.22-.56-2.42-1.18-3.63-1.77-.57-.73-1.26-1.19-2.27-1.12.65,1.59.7,1.61,2.32,1.06-.31.87,0,1.38.84,1.76,1.14.52,2.44.65,3.43,1.54-.19.15-.39.3-.75.59.6.26,1.07.46,1.55.66.1-.14.19-.28.29-.42-.39-.3-.77-.59-1.16-.89,1.05.2,2.1.41,3.16.61.51.32,1.03.64,1.54.96ZM219.65,71.07c.84-1.44,1.99-2.33,3.36-2.97.43-.2.91-.36,1.26-.67,1.25-1.12,2.46-2.28,3.65-3.46.29-.29.46-.71.85-1.32-.59,0-.92-.11-1.06.02-3.13,2.62-6.23,5.27-9.42,7.98.47.15.86.27,1.37.42ZM220.03,66.87c-.06-.11-.12-.22-.18-.33-.37,0-.85-.15-1.1.02-1.48,1.02-2.91,2.12-4.35,3.2.04.14.07.27.11.41.4,0,.92.16,1.19-.03,1.48-1.04,2.89-2.17,4.33-3.27ZM212.25,74.89c2.06.36,3.16-.41,3.1-2.22-1.25.47-2.59.75-3.1,2.22ZM250.96,53.6c-1.08-.73-2.13-1.29-3.63-1.33.15.53.2,1.34.42,1.39,1,.22,2.02,1.51,3.21-.06ZM223.5,63.44c-1.77.63-1.93.78-2.55,2.61,1.07-.86,1.94-1.45,2.55-2.61ZM203.15,73.58c-.82-.17-1.18-.28-1.53-.3-.29-.02-.82.04-.83.12-.05.38.04.79.1,1.43.82-.45,1.35-.74,2.27-1.25ZM226.77,69.88c.09.14.18.27.27.4q1.21-.13,1.96-2.04c-.96.7-1.6,1.17-2.23,1.63ZM213.37,68.46c-.13-.13-.25-.26-.38-.38-.81.27-1.82.34-1.48,2.05.73-.66,1.3-1.16,1.86-1.67ZM251.89,44.65h-2.43q1.41,1.17,2.43,0ZM190.57,95.71c.41,1.15,1.13.88,2.07.73-.62-.89-1.22-1.04-2.07-.73ZM226.81,53.55q1.65-.58,1.53-1.75c-.49.56-.88,1.01-1.53,1.75ZM206.06,72.15c1.82.47,1.97.41,2.08-.67-.58.19-1.14.36-2.08.67ZM257.15,55.1c-.68.86-.41,1.31.33,1.62.07.03.2-.08.36-.14-.21-.45-.41-.89-.68-1.48ZM189.41,95.19c-.27.38-.49.69-.81,1.12,1.16.15,1.56-.03.81-1.12ZM233.87,90.67c.05.11.09.23.14.34.56-.19,1.13-.38,1.69-.56-.05-.14-.11-.28-.16-.42-.55.22-1.11.43-1.67.65ZM246.16,84.09c-.95-.26-1.17.18-1.14.89,0,.07.18.13.39.27.24-.37.47-.73.75-1.17ZM258.17,73.06c-.1-.12-.2-.24-.29-.36-.47.16-.98.29-.77,1.26.45-.38.76-.64,1.07-.91ZM209.6,70.65c-.08-.11-.16-.23-.24-.34-.36.19-.72.38-1.09.58.04.09.09.18.13.27.4-.17.8-.34,1.19-.51ZM262.1,60.96c-.15-.06-.3-.12-.45-.18-.17.47-.34.94-.51,1.41.11.05.22.09.33.14.21-.45.42-.91.63-1.36ZM234.05,82.4c-.05-.06-.1-.12-.15-.18-.19.12-.43.21-.57.38-.12.14-.13.37-.18.56.1.05.2.09.3.14.2-.3.41-.6.61-.89ZM185.41,92.53c-.29.99-.28,1.48.79,1.29-.25-.4-.43-.7-.79-1.29ZM255.05,56.12q.11-.91-.69-1.25c.26.47.43.78.69,1.25ZM204.04,73.08c-.18-.1-.37-.2-.55-.3-.18.46-.36.91-.54,1.37.14.06.28.12.41.18.23-.42.45-.84.67-1.26ZM192.76,80.72c0,.1,0,.2,0,.29h1.71c0-.1,0-.2,0-.29h-1.71Z"/>
      <path class="cls-1" d="M186.05,50.33c-.45-.27-.91-.54-1.45-.86-.79.71-1.54,1.37-2.4,2.13-.3-.85-.56-1.58-.82-2.31-1.48.2-.87,1.67-1.75,2.14.52.68.96,1.24,1.43,1.86-1,.7-1.66-.15-2.5-.1.82-.99.22-2.05-.25-2.39-1.01-.73-.01-.98.1-1.42l-.04.03c.43.61.85.3,1.11-.11.14-.22.16-.72,0-.9-.55-.67-1.17-1.28-1.81-1.87-.39-.37-1.32-.2-1.11-1.17.02-.08-.25-.28-.41-.33-.77-.25-1.55-.47-2.32-.7l.03.04c.26-.06.53-.13.78-.19q-.13-1.73-2.13-4.74c.59-.3,1.17-.6,1.75-.9q-.32-2.24-1.86-2.12c.72-.67.57-1.61,1.68-1.93.57-.16,1.12-1.06,1.31-1.72.36-1.28,1.16-2.26,2.17-2.86,1.65-.97,2.02-2.25,1.48-4.09,1.8-.18,1.94-1.63,2.03-2.85.15-2,.66-3.8,1.79-5.47.27-.39.14-1.09.11-1.64-.07-1.54.81-3.01.32-4.57-.36-1.17-.67-2.36-1.1-3.51-.38-1.01-.9-1.96-1.44-3.1-1.08-.11-2.08-.69-2.52-2.04.69.14,1.33.26,1.97.39.52.23,1.04.47,1.93.87-.38-.68-.53-.96-.69-1.24,2.84.33,4.63,2.27,6.32,4.26.48.57.53,1.51.78,2.29.61.05,1.24.11,2.09.18-.27-.57-.51-1.07-.77-1.63.56-.36,1.11-.71,1.64-1.05,1.39.27,2.04,1.42,2.83,2.4.7.88,1.01,2.26,2.62,1.99.1-.02.29.38.39.6.32.67.62,1.35.98,2.13.22-.29.35-.47.59-.78.26.43.71.81.7,1.18-.05,1.4,1.03,2.39,1.22,3.73.19,1.4.83,2.73,1.16,4.12.17.72,0,1.51.12,2.25.12.75-.46,1.99,1.13,1.88.46.93,1.26,1.84,1.3,2.78.09,2.13.31,4.31-.45,6.41-.22.6-.2,1.29-.33,2.17.56-.14.84-.21,1.2-.3,1.4,1.14-.61,2.43.03,3.7-.99.28-1.84.6-2.02,1.8-.06.4-.64.72-1.16,1.26.06.32.17.9.28,1.49-.27.71-1.99-.95-1.61.99-.16-.2-.32-.41-.51-.64-.02.01-.13.03-.16.09-.51,1.13-1.05,2.24-1.51,3.4-.21.53-.66.27-.87.4-1.18.74-2.26,1.63-3.49,2.57.44.41.7.66,1.11,1.05-.67.13-1.22.23-1.75.33-.24-.85-.45-1.64-.76-2.74-.45.53-.74.85-.99,1.18-.71.94-1.02.9-1.84.08-.8-.8-1.7-1.53-2.63-2.19-.22-.15-.74.13-1.12.21l.05.06ZM184.12,22.31c.49.89.06,1.94,1.59,2.21-.09-.8-.14-1.51-.3-2.2-.02-.08-.66,0-1.29,0ZM186.71,9.24c-.61-.7.18-2.35-1.58-2.37-.1,1.29.52,1.98,1.58,2.37ZM189.27,50.68c.12.16.24.31.36.47.39.05.82.24,1.16.13.27-.09.43-.52.64-.81-.32-.15-.66-.45-.95-.4-.43.08-.81.4-1.21.61ZM182.86,22.28c-.24.49-.48.98-.87,1.8q1.16-.88.87-1.8Z"/>
      <path class="cls-1" d="M290.83,203.25c-.8,1.77-1.6,3.55-2.4,5.32-.77,1.71-1.55,3.41-2.66,5.02.03-.61.07-1.21.11-2.02-2.29,3.41-4.49,6.68-6.69,9.95-.13-.05-.26-.11-.39-.16-.03-.32-.06-.65-.12-1.37-1.32,1.69-2.44,3.12-3.66,4.67-1.32-.75-1.86.44-2.78,1.29.04-.31-.01-.7.15-.91,1.31-1.67,2.64-3.32,4.04-4.91.26-.3.85-.3,1.37-.47-.14-.23-.3-.5-.5-.83.97-.12,1.65-1.32,2.8-.64.22-.4.7-1.08.62-1.16-.85-.79.03-1.36.32-2.06-1.23-.17-1.18,1.03-1.9,1.49.83-4.33,4.45-6.95,5.93-10.73-.21-.34-.68-.81-.58-1.01.41-.85.1-2.15,1.45-2.47.19-.05.49-.51.43-.65-.62-1.49.72-2.04,1.07-2.96.29-1.99.42-4.02.91-5.95.88-3.44,2.03-6.82,2.96-10.25.27-1,.48-1.86,1.84-1.89-.35-1.33-.66-2.48-1.02-3.85-.53.46-.86.75-1.44,1.25.21-1.12.38-1.98.54-2.83.1-.02.2-.03.3-.05.12.33.24.65.39,1.03.33-.11.69-.23,1.07-.37.36-4.61.71-9.23,1.07-13.85.11.14.27.32.56.67.14-.57.24-.98.33-1.36,1.16-.2.98.65.99,1.18.03,2.37-.02,4.73,0,7.1,0,.5.17,1,.21,1.51.03.39.08.83-.06,1.17-.75,1.77-1.36,3.54-.85,5.51.07.28-.05.71-.24.93-.48.52-.53,1.21-.8,1.77-.97,2-.73,4.28-1.64,6.25-.35.76-.2,1.83-1.3,2.17-.09.03-.08.44-.09.67-.02.61.09,1.24-.06,1.82-.51,1.97-1.12,3.91-1.67,5.87-.2.7-.18,1.42-.63,2.1-.26.39.23,1.33-.05,1.64-.97,1.07.84.66.49,1.46-.25.12-.65.31-1.06.5-.71-1.2-1.2-.32-1.92.11.93.99,1.41.1,1.97-.18,0,.37,0,.74,0,1.11-.09.42-.18.83-.3,1.33h1.35c-.41-.53-.73-.94-1.05-1.34.87-.21,1.75-.42,2.62-.63h0ZM287.1,204.31c-1.64,2.44-1.69,2.6-1.13,3.8-.56-1.49,1.58-1.95,1.13-3.8ZM293.76,172.77c-.52,1.25-.27,2.17.36,3.12,1.14-1.17.39-2.02-.36-3.12Z"/>
      <path class="cls-1" d="M14.83,233.66c-.54-.36-1.1-.69-1.61-1.09-.73-.58-1.42-1.21-2.12-1.82l.08.07c-.37-.62-.58-1.46-1.12-1.84-1.67-1.16-2.23-2.96-3.09-4.57.99.45,1.96.89,2.94,1.34-.06.36-.13.73-.19,1.09.86.1.8,1.84,2.21,1.09-.68-.76-.64-2.09-2.07-2.15.08-.6.16-1.19.25-1.78.12-.1.25-.21.37-.31.27-.02.55-.05.82-.08v1.91c1.03.65,3.23.63,2.74,2.98.73.35,1.44.68,2.22,1.05-.29.51-.47.82-.72,1.26,2.36.6,3.85,2.24,5.44,3.81,1.79,1.77,3.85,3.26,5.72,4.95,1.39,1.26,3.03,1.99,5.06,2.53-1,.95-1.87,1.7-2.39,2.73-.08.17-2.18.03-2.44-.1-3.31-1.62-5.77-4.26-8.29-6.84-1.18-1.21-2.42-2.37-3.61-3.58-.17-.17-.18-.49-.26-.74.26.06.51.11.78.17.03-1.92-.08-2.03-1.72-1.9.33.58.67,1.19,1.02,1.81ZM23.53,238.72q.65,1.33,1.97,1.11c-.7-.39-1.23-.69-1.97-1.11ZM29.31,242.96c-.45-1.29-.54-1.31-1.69-.43.6.15,1.1.28,1.69.43ZM27.76,241.54c-.6-.78-1-1.15-1.46-.38-.09.15-.06.36-.12.73.54-.12.95-.21,1.58-.35ZM13.63,229.68c-.21-.06-.41-.13-.62-.2-.09.42-.17.85-.26,1.27.14.04.28.08.42.13.15-.4.31-.8.46-1.2Z"/>
      <path class="cls-1" d="M166.58,60.55c2.72-.62,5.12.56,7.77,0-.09.65-.17,1.22-.26,1.86.66.14,1.24.26,1.99.41-.6,1.68,1.1,2.55,1.3,4.29-1.77-1.6-4.31-1.44-5.62-3.23-.87-1.19-2.24-1.27-3.21-2.13-.57-.5-1.31-.8-1.98-1.19Z"/>
      <path class="cls-1" d="M153.17,142.5s.06.06.06.06c-.23-.9-1.45-1.36-1.3-2.77,1.24,1.18,1.68,2.83,3.57,3.21-.08-.8-.15-1.4-.23-2.16,1.26.11,1.42,1.05,1.88,1.88-.41.28-.78.52-1.26.85,1.84,3.86,5.53,6.74,6.07,11.37-.92-1.07-1.89-2.11-2.73-3.24-.26-.35-.08-1.01-.28-1.45-.24-.54-.69-.99-1.02-1.5-1.4-2.23-2.81-4.44-4.77-6.24Z"/>
      <path class="cls-1" d="M239.44,94.15c-.35-1-.06-1.89.89-2.21,2.46-.82,4.38-2.48,6.46-3.9.2-.13.45-.18.85-.03-.71.49-1.41.97-2.12,1.46.85,1.36,2.72.48,2.61,2.25-.13.09-.43.42-.56.36-2.22-.96-4.09.31-6.04.94-.75.24-1.42.73-2.12,1.1l.03.02Z"/>
      <path class="cls-1" d="M3.83,201.42c-.21,1.66.75,2.82,1.68,3.99.16.2.35.52.55.54.56.05,1.19,0,1.17.73,0,.29-.5.56-.76.84l.06-.05c-.79-.21-1.19-1.73-2.37-.73-.09.07-.55-.1-.55-.16-.04-1.04-1.21-.81-1.55-1.4-.4-.7-.61-1.52-.86-2.3-.08-.24-.09-.72.03-.78,1-.5.57-1.34.59-2.09,0-.11.31-.2.57-.35.5.62.97,1.21,1.45,1.8l-.02-.04ZM2.73,205.19q.42-1.46-.93-2.92c.33,1.04.57,1.77.93,2.92Z"/>
      <path class="cls-1" d="M295.8,181.4c.24,1.35.48,2.63-.01,4.07-.53,1.54-.73,3.2-1.02,4.81-.2,1.11-.2,2.26-.47,3.36-.39,1.6-.89,3.17-1.42,4.72-.13.37-.54.64-1.04.79.78-2.93,1.71-5.82,2.3-8.79.58-2.93.83-5.93,1.22-8.9.14-.02.29-.03.44-.05Z"/>
      <path class="cls-1" d="M38.43,246.18c-.05-.16-.1-.31-.15-.47-.52-.99.09-1.27.9-1.48.25,1.4.58,2.68,1.56,3.34.75-.91,1.33-1.6,1.91-2.29l-.08-.05q.6,1.39,2.55,1.3l-.07-.08c.15.58.3,1.17.49,1.94-.7.09-1.33.17-2.29.29.78.3,1.27.48,1.77.67-.02.12-.04.24-.07.36-.29,0-.63.09-.88-.02-1.46-.65-2.89-1.35-4.34-2.02-.52-.24-.7-.58-.56-1.15.01-.05-.49-.23-.75-.34Z"/>
      <path class="cls-1" d="M38.34,84.09c-2.77-.78-3.34-3.34-4.42-5.55.12-.1.3-.35.41-.32.94.26,2.28.28,2.72.91.97,1.43,2.47,2.95,1.24,5.02,0,0,.05-.05.05-.05Z"/>
      <path class="cls-1" d="M95.12,94.98c.07.02.13.05.19.1-.03.33.04.89-.12.97-1.31.65-2.5,1.59-4.05,1.73-.49.04-.97.45-1.41.75-1.3.88-2.74,1.01-4.82.21.91-.24,1.52-.36,2.09-.56,1.21-.42,2.41-.89,3.61-1.34.49-.18.97-.5,1.47-.54.61-.05.9-.09,1.11-.82.27-.92,1.18-.7,1.93-.5Z"/>
      <path class="cls-1" d="M6.47,207.53c.71.3,1.15.95,1.97,1.26.73.27.99,1.81,1.4,2.67-.58.78-1.02,1.37-1.53,2.07-1.53-1.56-2.52-3.38-3.26-5.89.69.74,1.06,1.14,1.43,1.53.1-.05.19-.1.29-.15-.08-.52-.16-1.03-.24-1.55,0,0-.06.05-.06.05Z"/>
      <path class="cls-1" d="M110.2,155.34c1.12-.55,2.01.31,2.89.65,1.52.57,2.92,1.49,4.33,2.31,1.91,1.11,2.66,2.01,3.71,4.34-.43.03-.82.06-1.2.09-.98-1.55-1.88-3.13-3.57-4.04-1.87-1-3.73-2.02-5.67-2.88-.19-.09-.3-.36-.45-.54l-.05.06Z"/>
      <path class="cls-1" d="M109.98,36.32c3.63,0,7.28-.27,10.86.85-1.14.39-2.4.51-3.42.09-1.87-.78-3.77-.23-5.63-.49-.6-.08-1.21-.01-1.82-.01,0-.15,0-.29,0-.44Z"/>
      <path class="cls-1" d="M112.59,197.77c.97-2.25,2.87-3.34,4.27-5.32.21.67.6,1.33.45,1.49-1.12,1.23-2.33,2.38-3.55,3.51-.19.18-.57.16-1.16.31Z"/>
      <path class="cls-1" d="M164.62,79.36c-1.44-.11-2.85-.06-4.56-.55,1.03-.76,1.69-1.25,2.62-1.94,1.15.01,1.42,1.33,1.93,2.48Z"/>
      <path class="cls-1" d="M15.2,221.55c.12,1.6,1.38,2.43,2.36,3.43.94.98,1.97,1.86,2.92,2.83.26.27.37.69.32,1.26-1.52-1.5-3.04-2.99-4.54-4.51-.57-.58-1.11-1.21-1.6-1.86-.54-.74.03-.94.62-1.08,0,0-.07-.07-.07-.07Z"/>
      <path class="cls-1" d="M9.02,222.88c-.28.28-.71-.91-.98.14-.15.6-2.44.57-3.2.03-.64-.46-.61-1.18.18-2.23.25.31.47.61.71.89.22.26.44.52.69.83.64-.24,1.25-.54,1.9-.7.33-.08.71.11,1.08.17-.12.29-.25.58-.37.87Z"/>
      <path class="cls-1" d="M150.17,213.97c.7-1.36,1.18-2.29,1.66-3.22.35.13.66.25.95.36,1.09-.82.47-1.71-.21-2.73.83.08,1.27.12,1.79.17-.18,1.16-.36,2.26-.56,3.52-2.21-1.43-2.1,1.1-3.62,1.9Z"/>
      <path class="cls-1" d="M173.86,44.34c.04,1.07.53,1.75,1.65,2.03-.67.27-1.34.55-2.03.83-1.14-.8-2.25-1.59-3.59-2.52,1.67-.81,1.94.78,2.79,1.14.9-.03.95-.81,1.21-1.42,0-.01-.04-.05-.04-.05Z"/>
      <path class="cls-1" d="M182.7,0c.87.56,1.74,1.12,2.6,1.69.17.11.48.27.46.37-.22,1.48,1.19,1.81,2.08,2.69-1.78-.19-3.69-1.9-5.15-4.75Z"/>
      <path class="cls-1" d="M289.34,186.83c-.94,1.95-.77,4.08-2.48,5.47.33-1.33.66-2.66,1.02-4.11-.22-.1-.55-.25-1.16-.52.91-.29,1.59-.5,2.62-.83Z"/>
      <path class="cls-1" d="M49.5,98.07c-2.65-.13-4.57-1.51-6.45-3.73,1.71.2,2.33,1.28,3.23,2.03.92.76,2.13,1.16,3.21,1.72,0,0,0-.01,0-.01Z"/>
      <path class="cls-1" d="M175.3,86.03c-.51-.02-1.1.18-1.14-.72-.02-.49-.34-.98-.54-1.52.44-.22.91-.45,1.39-.69-.19.22-.38.44-.57.66.79.39,1.58.78,2.46,1.22q-1.17.2-1.64,1.11l.05-.05Z"/>
      <path class="cls-1" d="M119.67,189.66c.45-.09.69-.13,1.12-.21.04-1.2.62-2.22,2.01-2.61-.14,2.62-1.03,3.5-3.13,2.82Z"/>
      <path class="cls-1" d="M239.41,94.13c-1.39.54-2.85.69-4.48.91.76-1.16,1.45-1.58,3.34-2.16-.13.42-.23.75-.37,1.17.52.03,1.02.05,1.53.08.01,0-.02-.01-.02-.01Z"/>
      <path class="cls-1" d="M289.18,186.22c-.29-.63-.43-.93-.57-1.23.24-.08.86.31.56-.47-.11-.28-.18-.73-.04-.9.18-.22.6-.23.87-.56-.31-.03-.62-.07-1.16-.13.34-.68.65-1.29.99-1.96,1.44,1.85.34,3.29-.65,5.25Z"/>
      <path class="cls-1" d="M283.88,192.98c.09.74.18,1.47.26,2.21.09.82.02,1.54-1.06,1.55l.05.04c-.07-.81-.14-1.62-.21-2.57-.28.49-.52.91-.75,1.32-.09-.03-.17-.06-.26-.09.16-.61.32-1.21.38-1.44.74-.43,1.2-.69,1.66-.95l-.06-.07Z"/>
      <path class="cls-1" d="M168.35,232.47c-.38.33-.69.76-.84.71-1.41-.48-2.44-1.43-2.98-2.99,1.18.7,2.35,1.4,3.82,2.28Z"/>
      <path class="cls-1" d="M227.58,40.32c-.89.19-1.78.38-2.92.63,1.13-1.71,2.67-1.8,4.15-2.07.41,1.39-1.11.8-1.29,1.51l.06-.06Z"/>
      <path class="cls-1" d="M104.91,203.96c.53-1.31,1.43-2.27,2.84-2.95-.38,1.13-.73,2.16-1.11,3.28-.59-.11-1.17-.22-1.76-.32h.02Z"/>
      <path class="cls-1" d="M181.47,132.5c-.44.6-.83,1.24-1.35,1.77-.19.2-.66.14-1.26.24.25-.46.34-.71.5-.89.18-.2.42-.33.71-.54-.22-.61-.44-1.22-.65-1.82h1.28l-.04-.05c-.08.69-.19,1.39.88,1.3l-.07-.02Z"/>
      <path class="cls-1" d="M142.79,221.03c0,.2.1.47,0,.59-1.02,1.33-2.32,2.32-3.71,3.19-.1-.11-.19-.22-.29-.34,1.35-1.13,2.7-2.25,4.05-3.38,0,0-.05-.06-.05-.06Z"/>
      <path class="cls-1" d="M206.79,67.25c.57-.47.99-.87,1.45-1.19.38-.26.81-.47,1.24-.64.11-.04.39.16.46.31.07.15.05.48-.05.55-.91.61-1.85,1.18-3.1.98Z"/>
      <path class="cls-1" d="M291.62,174.12c-.09-1.2-.24-1.99-.19-2.77.05-.81.27-1.6.72-2.43.09.33.26.66.26.99,0,1.02-.04,2.04-.14,3.05-.04.34-.35.64-.65,1.17Z"/>
      <path class="cls-1" d="M110.25,155.28c-2.46-.22-3.01-.4-4.63-1.64,1.74.46,3.49.13,4.58,1.7l.05-.06Z"/>
      <path class="cls-1" d="M124.55,168.81c-.63-1.1-1.13-1.97-1.86-3.26.74.29,1.21.34,1.45.6.69.74.77,1.48.4,2.65Z"/>
      <path class="cls-1" d="M159.14,227.43c-.77-.37-1.6-.65-2.31-1.12-.96-.63-.65-1.16.54-1.64.57.92,1.15,1.86,1.73,2.79l.04-.04Z"/>
      <path class="cls-1" d="M18.43,171.25c.2.92.39,1.8.58,2.7-1.03.2-1.38-.59-1.59-1.44-.16-.67,0-1.23,1.01-1.25Z"/>
      <path class="cls-1" d="M257.19,229.65c.08.4.17.8.25,1.2-.13-.12-.26-.24-.39-.36-.84,1.14-1.68,2.27-2.52,3.41-.13-.11-.26-.21-.4-.32.16-.32.27-.67.49-.94.84-1.01,1.71-1.99,2.56-2.98,0,0,0-.01,0-.01Z"/>
      <path class="cls-1" d="M148.13,53.19c.88.21,1.75.41,2.67.63.12.54.25,1.09.41,1.75-.24-.02-.47.03-.57-.06-.84-.77-1.66-1.57-2.49-2.36v.03Z"/>
      <path class="cls-1" d="M251.23,136.18c-1.24-.35-2.48-.69-3.71-1.08-.07-.02-.04-.37-.05-.56l-.06.05c.57-.14,1.13-.28,1.7-.42l-.05-.05c.7.7,1.39,1.41,2.09,2.11l.08-.06Z"/>
      <path class="cls-1" d="M67.74,69.29c.97-1,1.34-2.67,3.12-2.75-.34.39-.68.78-1.07,1.21h1.03c-.49.94-1.22.87-2.17.39v1.47c-.39-.16-.64-.27-.89-.37l-.03.05Z"/>
      <path class="cls-1" d="M165.23,206.75c-1.02-.41-1.94-.77-3.03-1.2.77-.51,1.27-.84,1.68-1.12.38.64.83,1.43,1.35,2.31Z"/>
      <path class="cls-1" d="M110.53,200.71c-.91,1.27-1.66,2.33-2.58,3.61-.45-1.29.4-1.79.8-2.34.35-.48.33-1.58,1.77-1.27Z"/>
      <path class="cls-1" d="M11.1,230.76c.47.78.94,1.55,1.54,2.55-1.89-.71-2.14-2.67-3.46-3.59.66.37,1.33.74,2,1.11,0,0-.08-.07-.08-.07Z"/>
      <path class="cls-1" d="M213.98,107.72c.42,1.44-.4,1.62-1.5,1.81,0-.68-.1-1.28.06-1.79.04-.14.88-.02,1.44-.02Z"/>
      <path class="cls-1" d="M203.26,46.71c-.82.79-1.65,1.57-2.48,2.36.23-1.35.83-2.35,2.12-2.71.12.12.23.23.35.35Z"/>
      <path class="cls-1" d="M160.35,73.76c.51-.02,1.01-.05,1.62-.07.15.64.27,1.21.52,2.31-1.08-.74-1.75-1.21-2.42-1.68.09-.19.19-.38.28-.57Z"/>
      <path class="cls-1" d="M9.02,222.88c.12-.29.25-.58.37-.87,1.27-.01,1.25.79,1.07,1.7-.13.11-.25.21-.37.31-.82.06-1-.49-1.07-1.14Z"/>
      <path class="cls-1" d="M290.84,203.25c-.28-1.59.09-2.6,1.19-3.07.3,1.33-.89,2.05-1.2,3.07,0,0,.01,0,.01,0Z"/>
      <path class="cls-1" d="M154.9,63.69c-.12.13-.23.26-.35.38-.57-.69-1.14-1.38-1.77-2.14,1.26-.35,1.38-.23,2.12,1.76Z"/>
      <path class="cls-1" d="M103.48,38.01c-1.74.44-3.05.76-4.49,1.13,1.48-1.05,2.91-1.48,4.49-1.13Z"/>
      <path class="cls-1" d="M225.88,38.6c.07-.85.17-1.58,1.08-1.41.23.04,1.46.05.66,1.32-.4.02-1.02.05-1.74.09Z"/>
      <path class="cls-1" d="M167.6,79.12c-.95-.75-1.89-1.49-2.84-2.24.08-.1.16-.2.23-.3.97.74,1.95,1.48,2.92,2.22-.11.11-.21.21-.32.32Z"/>
      <path class="cls-1" d="M245.24,215.22c-.36.11-.72.22-1.19.37-.36-.28-.82-.64-1.4-1.08.42-.27.7-.45.93-.6.59.46,1.12.88,1.66,1.31,0,0,0,.01,0,.01Z"/>
      <path class="cls-1" d="M195.76,67.94h3.13c-.6-.15-1.74.99-3.13,0Z"/>
      <path class="cls-1" d="M261.75,54.29c1.52.07,1.8,1.28,2.4,2.58-.89-.13-1.16-.61-1.44-1.11-.28-.52-.6-1.01-.9-1.51,0,0-.06.05-.06.05Z"/>
      <path class="cls-1" d="M176.15,91.82c.45.09.89.21,1.34.25.48.04.98,0,1.49,0q-1.02.71-2.83.2c0-.15,0-.31,0-.46Z"/>
      <path class="cls-1" d="M282.29,208.96c-.5.76-1,1.52-1.66,2.52-.11-.68.45-1.71,1.25-2.81.14.1.27.2.41.3Z"/>
      <path class="cls-1" d="M154.7,203.02c.46,1.21-.35,1.53-.69,2.24-.83-1.26-.07-1.6.69-2.24Z"/>
      <path class="cls-1" d="M202.1,67.71c.84-.19,1.68-.39,2.52-.58.05.1.1.19.14.29-.37.35-.75.69-1.11,1.03-.58-.28-1.09-.54-1.61-.79l.06.05Z"/>
      <path class="cls-1" d="M30.1,191.06c-.49-.63-.98-1.25-1.53-1.95.83-.53,1.31-.6,1.41.36.05.54.06,1.09.08,1.64,0,0,.04-.05.04-.05Z"/>
      <path class="cls-1" d="M3.85,201.46c.2-.16.4-.31.76-.6.38.91.73,1.74,1.15,2.74-1.57-.13-.97-1.8-1.92-2.18,0,0,.01.04.01.04Z"/>
      <path class="cls-1" d="M2.02,136.08c-.3.32-.6.64-1,1.07v-2.7c.11-.02.23-.03.34-.05.21.58.41,1.16.62,1.74,0,0,.04-.06.04-.06Z"/>
      <path class="cls-1" d="M220.91,56.79c-.04.44-.08.88-.11,1.32-.1.23-.21.46-.31.69-.32.05-.63.1-1.11.18.18-1.06.74-1.69,1.53-2.18Z"/>
      <path class="cls-1" d="M220.75,51.83c.15,1.39-1.08,1.93-1.73,2.82-.01-1.31,1.14-1.86,1.77-2.76,0,0-.04-.06-.04-.06Z"/>
      <path class="cls-1" d="M155.96,196.04c.28.45.57.92.9,1.47-.76.56-1.07-.11-1.48-.72.21-.27.43-.56.57-.75Z"/>
      <path class="cls-1" d="M110.23,199.13c.51-.36.88-.62,1.59-1.12-.12.92-.2,1.46-.32,2.34-.53-.5-.83-.79-1.28-1.22Z"/>
      <path class="cls-1" d="M175.29,81.39c.57.45,1.14.9,1.71,1.35-.1.14-.2.28-.29.42-.59-.42-1.18-.83-1.78-1.25.12-.17.24-.35.36-.52Z"/>
      <path class="cls-1" d="M216.55,61.49c-.34.5-.7,1.03-1.11,1.62q-.39-1.84,1.11-1.62Z"/>
      <path class="cls-1" d="M293.61,159.17c-.06-.91-.09-1.41-.13-2,.96.48,1.08,1,.13,2Z"/>
      <path class="cls-1" d="M115.15,200.09c-.57.73-.98,1.25-1.39,1.77-.14-1.02.24-1.57,1.39-1.77Z"/>
      <path class="cls-1" d="M22.09,242.51c-1.17.19-1.5-.58-2.05-1.1.09-.11.19-.22.28-.33.59.47,1.18.95,1.77,1.42Z"/>
      <path class="cls-1" d="M.96,138.89v1.56c-.13.01-.27.02-.4.03-.05-.54-.11-1.07-.16-1.61.19,0,.37.01.56.02Z"/>
      <path class="cls-1" d="M22.64,229.8c.43.48.86.96,1.29,1.44-.13.12-.26.24-.38.37-.47-.45-.93-.91-1.4-1.36.16-.15.33-.3.49-.45Z"/>
      <path class="cls-1" d="M0,198.8c.47-.57.88-1.07,1.3-1.59.27.88-.02,1.25-1.3,1.59Z"/>
      <path class="cls-1" d="M178.42,49.39c-.49,0-1.19.39-1.28-.4-.04-.34.5-.74.88-1.25.16.75.25,1.22.36,1.69,0,0,.05-.03.05-.03Z"/>
      <path class="cls-1" d="M294.27,160.23c.33-.41.66-.82,1.1-1.36.65,1.29.07,1.57-.71,1.72-.13-.12-.26-.24-.39-.36Z"/>
      <path class="cls-1" d="M81.55,99.51c.75-.18,1.5-.35,2.25-.52.03.16.07.32.1.49-.76.14-1.51.28-2.27.43-.03-.13-.05-.26-.08-.39Z"/>
      <path class="cls-1" d="M104.89,203.96c.28.37.57.75.86,1.13-.04.09-.05.22-.13.3-.26.27-.7.78-.8.73-.81-.47-.04-1.03,0-1.56.01-.2.07-.39.11-.59,0,0-.03,0-.03,0Z"/>
      <path class="cls-1" d="M157.48,55.23c.98-.27,1.44-.02,1.55,1-.91.19-1.28-.21-1.55-1Z"/>
      <path class="cls-1" d="M74.9,62.94c-.09.1-.18.18-.29.26-.3.14-.6.28-.9.42-.08-.08-.16-.17-.24-.26.47-.49.95-.97,1.73-1.77-.16.73-.23,1.03-.3,1.34Z"/>
      <path class="cls-1" d="M273.25,228.07c.34-.47.68-.95,1.14-1.6q-.02,1.08-1.14,1.6Z"/>
      <path class="cls-1" d="M5.88,211.37c.37.57.73,1.15,1.1,1.72-.14.09-.27.17-.41.26-.37-.57-.73-1.14-1.1-1.72.14-.09.27-.18.41-.26Z"/>
      <path class="cls-1" d="M266.41,164.36c-1.29.3-.62,1.4-1.01,2.56-.07-1.26-.11-2.1-.16-3.07.55.24.86.38,1.17.51,0,0,0,0,0,0Z"/>
      <path class="cls-1" d="M113.9,89.22c-.44-.76-1.12-1.55,0-2.39v2.39Z"/>
      <path class="cls-1" d="M63.94,130.72c-.68.08-1.37.15-2.05.23q1.09-.95,2.06-.19s0-.04,0-.04Z"/>
      <path class="cls-1" d="M27.87,188.48c-.42-.65-.72-1.12-1.1-1.7q1.39.18,1.1,1.7Z"/>
      <path class="cls-1" d="M93.48,43.18c.78-.28,1.19-.43,1.69-.61q-.48.99-1.69.61Z"/>
      <path class="cls-1" d="M263.09,69.07c-.13.3-.25.59-.41.95-.33-.2-.64-.4-1.2-.74.56-.23.96-.39,1.36-.56.08.12.16.24.24.36Z"/>
      <path class="cls-1" d="M194.2,240.58s-.09.06-.14.14c0-.22-.04-.63-.03-.63.51-.06,1.03-.08,1.58.11-.47.13-.94.26-1.41.38Z"/>
      <path class="cls-1" d="M164.32,60.23c-.34-.65-.68-1.31-1.13-2.16,1.72.29,1.13,1.36,1.12,2.17h0Z"/>
      <path class="cls-1" d="M69.13,245.55c-.58.2-.96.32-1.4.47q.14-.94,1.4-.47Z"/>
      <path class="cls-1" d="M227.52,40.39c.18.08.36.16.73.33-.56.54-1.06,1.03-1.56,1.52-.06-.06-.12-.12-.18-.18.35-.57.71-1.15,1.06-1.72,0,0-.06.06-.06.06Z"/>
      <path class="cls-1" d="M202.04,67.66c.14.23.28.46.46.77-.64.18-1.21.41-1.57-.55.44-.06.81-.11,1.17-.16,0,0-.07-.06-.07-.06Z"/>
      <path class="cls-1" d="M156.16,56.37c.54.48,1.07.96,1.61,1.44-.12.12-.24.24-.37.36-.76-.27-1.19-.86-1.24-1.8Z"/>
      <path class="cls-1" d="M67.77,69.24c-.51-.07-1.03-.14-1.54-.2q1.02-.81,1.52.25s.02-.04.02-.04Z"/>
      <path class="cls-1" d="M82.91,57.55c-.58.24-1.16.48-1.74.72.57-.93,1.12-1.14,1.69-.64l.05-.08Z"/>
      <path class="cls-1" d="M192.24,119.52c.55-.28,1.09-.56,1.64-.83.06.13.13.26.19.38-.55.26-1.11.53-1.66.79-.06-.11-.11-.23-.17-.34Z"/>
      <path class="cls-1" d="M180.69,131.27c.15-.28.31-.57.56-1.03.39.49.69.87,1.02,1.29-.29.35-.55.66-.81.97l.07.02c.16-.74.06-1.31-.88-1.3l.04.05Z"/>
      <path class="cls-1" d="M178.27,87.7h2.01c-.83,1.29-1.42.31-2.01,0Z"/>
      <path class="cls-1" d="M186,50.27v1.1c-.37-.11-.71-.22-1.45-.44.74-.29,1.12-.44,1.5-.6,0,0-.05-.06-.05-.06Z"/>
      <path class="cls-1" d="M3.38,173.82c-.15.2-.3.4-.66.88-.21-.68-.35-1.15-.5-1.61.11-.06.22-.12.33-.18.28.32.56.64.84.96,0,0-.01-.05-.01-.05Z"/>
      <path class="cls-1" d="M158.08,230.9c.35-.02.7-.04,1.1-.06-.3,1.35-.72.5-1.06.58-.01-.17-.02-.34-.03-.51Z"/>
      <path class="cls-1" d="M6.59,132.07c.16-.63.32-1.27.48-1.9.1.02.2.04.3.05-.12.66-.23,1.32-.35,1.98-.14-.05-.29-.09-.43-.14Z"/>
      <path class="cls-1" d="M211.69,65.5c-.35.13-.7.26-1.05.4-.06-.14-.13-.28-.19-.42.36-.17.71-.34,1.07-.51.06.18.12.36.17.54Z"/>
      <path class="cls-1" d="M144.47,222.41c-.7.52-1.07.8-1.63,1.21.05-1.1.52-1.24,1.63-1.21Z"/>
      <path class="cls-1" d="M72.27,66.17c-.5.14-1,.29-1.5.43.38-.57.76-1.13,1.36-2.02.08.85.11,1.22.15,1.59Z"/>
      <path class="cls-1" d="M37.81,71.16c.45-.81.66-1.19.96-1.73.71,1,.1,1.26-.96,1.73Z"/>
      <path class="cls-1" d="M178.27,129.92c-.39.31-.78.62-1.3,1.03-.15-1.05.78-.86,1.3-1.03Z"/>
      <path class="cls-1" d="M164.31,60.23c.29-.43.58-.85.94-1.38.24.26.46.5.89.97-.71.16-1.26.28-1.82.41h0Z"/>
      <path class="cls-1" d="M7.8,220.24c-.45-.06-.81-.12-1.51-.22.59-.34.94-.54,1.37-.79.05.39.09.65.13,1.01Z"/>
      <path class="cls-1" d="M39.9,92.03c.32.36.64.71,1.07,1.18-.52-.34-.91-.6-1.3-.85.08-.11.15-.22.23-.33Z"/>
      <path class="cls-1" d="M25.83,236.33c-.67.62-1.23.82-1.56-.69.65.31,1.08.52,1.52.73l.04-.04Z"/>
      <path class="cls-1" d="M230.96,34.34c.35.02.69.03,1.04.05,0,.1,0,.2,0,.3h-1.04c0-.12,0-.23,0-.35Z"/>
      <path class="cls-1" d="M147.51,217.3c.21-.2.41-.41.62-.61.15.15.29.29.44.44-.23.18-.46.36-.69.54-.12-.12-.25-.25-.37-.37Z"/>
      <path class="cls-1" d="M180.77,92.65c-.23-.11-.58-.16-.67-.34-.12-.24-.03-.58.35-.94.09.45.17.89.26,1.34,0,0,.06-.05.06-.05Z"/>
      <path class="cls-1" d="M176.01,131.36c-.33.03-.65.07-.97.1-.02-.11-.04-.23-.06-.34.32-.07.64-.15.96-.22.02.15.05.31.07.47Z"/>
      <path class="cls-1" d="M285.74,147.96c0-.24-.02-.48-.03-.71.36.11.72.21,1.07.32-.03.14-.06.28-.1.42-.34-.03-.68-.06-1.02-.09,0,0,.07.07.07.07Z"/>
      <path class="cls-1" d="M128.41,235.67c-.07-.25-.14-.5-.2-.75.5.15,1,.29,1.51.44l-.03-.06c-.34.42-.67.87-1.28.37Z"/>
      <path class="cls-1" d="M93.75,44.53h-1.45c.55-.83,1-.84,1.39.05,0,0,.06-.05.06-.05Z"/>
      <path class="cls-1" d="M277.7,222.84c.17-.22.35-.44.52-.66.14.11.41.28.39.32-.12.28-.3.54-.46.81-.15-.16-.3-.31-.44-.46Z"/>
      <path class="cls-1" d="M136.63,227.63c-.37.32-.73.64-1.1.96-.07-.07-.14-.15-.21-.22.33-.35.67-.7,1-1.05.1.1.21.21.31.31Z"/>
      <path class="cls-1" d="M265.19,60.28c-.06.43-.12.86-.18,1.29-.14-.03-.28-.07-.42-.1.15-.41.29-.82.44-1.23.05.01.11.02.16.03Z"/>
      <path class="cls-1" d="M282.93,206.37c.47-.16.85-.29,1.58-.53-.53.84-.69,1.61-1.58.53Z"/>
      <path class="cls-1" d="M284.9,197.05c-.02.38-.04.76-.07,1.15-.11,0-.21.01-.32.02-.04-.38-.08-.76-.12-1.13.17-.01.34-.02.51-.03Z"/>
      <path class="cls-1" d="M5.94,147.85c.07.31.14.61.23,1.02q-.71-.51-.23-1.02Z"/>
      <path class="cls-1" d="M25.79,236.36c.2.43.41.86.67,1.4-.96-.26-.91-.8-.64-1.43,0,0-.03.03-.03.03Z"/>
      <path class="cls-1" d="M27.07,234.81c-.25-.17-.51-.34-.76-.5.03-.06.06-.13.09-.19.28.09.56.18.84.27-.05.14-.11.28-.17.42Z"/>
      <path class="cls-1" d="M171.66,84.94c.27.25.54.5.81.75-.06.07-.12.13-.18.2-.27-.25-.55-.49-.82-.74.07-.07.13-.13.2-.2Z"/>
      <path class="cls-1" d="M184.88,126.96c.31-.28.62-.56.93-.84.09.1.17.19.26.29-.32.26-.64.53-.97.79-.07-.08-.15-.17-.22-.25Z"/>
      <path class="cls-1" d="M100.33,41.14c-.4-.08-.8-.16-1.2-.24.03-.14.05-.27.08-.41.4.07.81.14,1.21.2-.03.15-.05.3-.08.45Z"/>
      <path class="cls-1" d="M175.24,86.08c.4.21.79.43,1.19.64-.89.39-1.12-.03-1.14-.69l-.05.05Z"/>
      <path class="cls-1" d="M233.14,132.72c-.24.13-.49.26-.73.39-.06-.11-.12-.23-.18-.34.26-.12.53-.24.79-.35.04.1.08.2.12.3Z"/>
      <path class="cls-1" d="M249.14,37.94c-.3-.05-.59-.1-1.29-.22.71-.07,1.02-.1,1.33-.13-.02.11-.03.23-.05.34Z"/>
      <path class="cls-1" d="M123.99,182.01v-1.27c.08,0,.16,0,.24,0v1.2c-.08.02-.16.05-.24.07Z"/>
      <path class="cls-1" d="M148.14,53.16c-.2-.52-.4-1.04-.63-1.65.97.36.74,1.03.63,1.67,0,.01,0-.02,0-.02Z"/>
      <path class="cls-1" d="M256.35,80.83c.16-.3.32-.61.48-.91.1.05.2.1.3.15-.14.31-.29.62-.43.94-.12-.06-.23-.12-.35-.17Z"/>
      <path class="cls-1" d="M127.3,180.76v-.96h.2v.99c-.07,0-.13-.02-.2-.03Z"/>
      <path class="cls-1" d="M126.64,183.59c.08-.34.17-.67.25-1.01.06,0,.12.01.19.02-.03.35-.07.71-.1,1.06-.11-.02-.23-.04-.34-.06Z"/>
      <path class="cls-1" d="M266.05,158.99c-.15.34-.29.68-.44,1.02-.4-.75-.19-1.06.49-.97,0,0-.05-.05-.05-.05Z"/>
      <path class="cls-1" d="M159.91,71.23c.18.3.37.59.55.89-.08.06-.15.12-.23.18-.23-.25-.46-.49-.69-.74.12-.11.24-.22.36-.33Z"/>
      <path class="cls-1" d="M1.07,166.03v1.21c-.11,0-.21,0-.32,0v-1.21c.11,0,.21,0,.32,0Z"/>
      <path class="cls-1" d="M39.51,81.69c-.3-.44-.6-.88-1-1.46q1.06.49.97,1.49s.03-.02.03-.02Z"/>
      <path class="cls-1" d="M37.9,76.86c-.06-.27-.12-.53-.18-.8.06-.02.12-.04.19-.06.11.25.21.5.32.75-.11.04-.22.07-.32.11Z"/>
      <path class="cls-1" d="M290.95,180.58c.17-.41.33-.83.5-1.24.1.04.19.08.28.11-.17.41-.34.83-.51,1.24-.09-.04-.18-.07-.28-.11Z"/>
      <path class="cls-1" d="M35.58,70.93c-.04.39-.09.78-.15,1.3-1.01-.62-.05-.92.15-1.3Z"/>
      <path class="cls-1" d="M151.9,133.04c.14.27.29.55.43.82-.11.05-.32.14-.33.13-.14-.27-.26-.55-.39-.83.1-.04.19-.08.29-.11Z"/>
      <path class="cls-1" d="M276.89,208.41c.31-.08.62-.15.93-.23-.18.33-.36.65-.55.98-.13-.25-.25-.5-.38-.75Z"/>
      <path class="cls-1" d="M92.83,58.33c.09-1.32,1.1-1.67,2.32-1.8-.79.59-1.57,1.17-2.36,1.76,0,0,.04.04.04.04Z"/>
    </g>
  </g>
</svg>