<svg width="792" height="832" viewBox="0 0 792 832" fill="none" xmlns="http://www.w3.org/2000/svg">
<g clip-path="url(#clip0_6_161)">
<mask id="mask0_6_161" style="mask-type:luminance" maskUnits="userSpaceOnUse" x="0" y="0" width="842" height="842">
<path d="M842 0H0V842H842V0Z" fill="white"/>
</mask>
<g mask="url(#mask0_6_161)">
<g opacity="0.3">
<path d="M733.557 396.065C733.557 396.065 713.211 383.138 686.756 359.013C680.187 352.936 673.264 346.128 666.469 338.432C659.689 330.744 652.847 322.277 647.25 312.465C641.713 302.61 637.625 291.671 635.481 280.005C634.477 274.17 633.965 268.157 634.473 262.076C635.136 256.079 636.108 249.668 640.979 244.318C642.241 243.044 643.979 241.905 646.075 241.519C648.147 241.071 650.433 241.754 651.743 242.325C655.411 243.742 657.713 247.037 658.749 250.133C660.722 256.424 660.372 262.346 660.515 268.137C660.475 279.692 660.864 290.92 663.214 301.502C665.425 312.049 670.78 321.166 676.281 329.577C681.87 337.924 687.899 345.362 693.626 352.09C705.113 365.534 715.64 375.973 723.086 383.169C730.56 390.35 735.021 394.235 735.021 394.235C735.506 394.66 735.549 395.391 735.109 395.871C734.708 396.307 734.041 396.371 733.557 396.065ZM733.446 395.978C733.446 395.978 728.865 392.128 721.22 385.051C713.592 377.95 702.815 367.665 690.951 354.301C685.065 347.585 678.952 340.06 673.165 331.573C667.537 323.131 661.789 313.446 659.356 302.336C656.784 291.397 656.264 279.735 656.169 268.197C656.014 262.497 656.109 256.523 654.45 251.601C653.609 249.212 652.077 247.33 650.048 246.552C647.492 245.457 646.194 245.886 644.348 247.557C640.963 251.054 639.554 256.988 639.014 262.433C638.482 268.03 638.891 273.726 639.784 279.283C641.693 290.377 645.543 301.141 650.779 310.58C656.078 320.043 662.726 328.414 669.343 336.023C675.971 343.644 682.775 350.427 689.232 356.488C715.052 380.927 734.902 394.148 734.902 394.148L733.442 395.978H733.446Z" fill="#E3BE72"/>
<path d="M740.634 406.961C740.634 406.961 735.95 404.857 727.678 401.682C719.402 398.403 707.253 394.521 692.928 388.813C678.694 383.05 662.4 374.449 648.202 361.394C641.145 354.928 634.076 347.859 628.372 339.42C625.514 335.233 622.962 330.736 621.116 325.834C619.457 320.944 617.735 315.565 619.981 309.544C621.005 306.456 625.153 304.047 628.213 304.444C632.044 304.527 634.711 306.96 636.338 309.119C639.645 313.616 641.395 318.28 643.503 322.746C647.496 331.712 651.938 340.194 657.82 347.319C663.794 354.42 670.954 359.866 677.944 365.054C684.938 370.154 691.769 374.731 698.167 378.827C723.733 395.283 741.69 404.893 741.69 404.893C742.265 405.19 742.483 405.889 742.174 406.457C741.876 406.996 741.194 407.211 740.63 406.965L740.634 406.961ZM740.547 406.921C740.547 406.921 722.336 397.685 696.258 381.685C689.74 377.68 682.85 373.067 675.705 367.963C668.684 362.847 661.051 357.099 654.756 349.744C648.46 342.338 643.693 333.478 639.554 324.496C637.426 320.074 635.473 315.383 632.738 311.826C631.405 310.052 629.694 308.964 628.257 308.972C626.13 308.941 625.133 309.671 624.335 311.37C622.835 314.895 623.851 319.991 625.399 324.329C627.015 328.799 629.345 333.07 632.008 337.086C637.311 345.164 644.063 352.162 650.933 358.524C664.651 371.345 680.349 379.799 694.353 385.61C708.352 391.528 720.458 395.748 728.714 399.233C737.038 402.658 741.614 404.849 741.614 404.849L740.55 406.921H740.547Z" fill="#E3BE72"/>
<path d="M745.091 412.923C745.091 412.923 744.048 413.034 741.968 413.026C739.808 412.974 736.796 412.756 733.037 412.295C725.491 411.382 714.822 409.636 702.136 406.981C689.494 404.166 674.788 400.646 659.396 395.394C651.699 392.715 643.836 389.445 636.585 384.578C632.973 382.165 629.571 379.307 626.634 375.894C623.895 372.436 620.878 368.467 621.454 362.728C621.676 361.307 622.442 359.814 623.617 358.699C624.32 358.223 624.776 357.719 625.745 357.381C626.332 357.203 626.562 356.988 627.451 356.837C630.988 356.151 633.441 357.643 635.406 358.929C639.192 361.716 641.963 364.835 644.976 367.721C650.854 373.516 657.066 378.871 663.667 382.943C670.45 386.968 677.543 389.683 684.434 392.295C691.304 394.855 697.953 396.923 704.054 398.915C728.591 406.611 745.318 410.64 745.318 410.64C745.957 410.791 746.338 411.418 746.179 412.041C746.056 412.526 745.631 412.863 745.155 412.915H745.091V412.923ZM744.746 412.887C744.746 412.887 727.881 409.271 703.006 402.134C696.802 400.3 690.118 398.189 683.12 395.684C676.217 393.14 668.672 390.31 661.623 386.198C654.514 381.943 648.056 376.541 641.931 370.714C638.875 367.852 635.898 364.736 632.782 362.541C631.306 361.466 629.535 360.985 628.741 361.164C628.555 361.088 627.825 361.481 627.396 361.616C627.32 361.596 627.031 361.93 626.816 362.013C626.487 362.398 626.205 362.835 626.118 363.506C625.665 366.3 627.702 370.182 630.162 373.095C632.679 376.128 635.751 378.819 639.085 381.129C645.738 385.761 653.295 389.095 660.769 391.739C675.816 397.034 690.427 400.681 702.946 403.591C715.465 406.552 726.007 408.584 733.41 409.68C737.121 410.235 740.023 410.513 741.9 410.624C743.857 410.696 744.968 410.608 744.968 410.608L744.742 412.887H744.746Z" fill="#E3BE72"/>
<path d="M643.924 965.677C643.229 965.74 642.65 965.637 642.205 965.498C640.078 964.832 639.018 962.764 638.236 961.255L637.938 960.684V960.676C630.166 946.275 626.638 934.84 626.13 922.444C623.943 886.197 655.994 850.264 696.568 804.765C706.209 793.952 716.18 782.767 726.313 770.887C768.284 721.407 791.766 685.819 803.697 628.626C809.568 600.29 810.179 570.779 805.467 543.276C795.258 483.519 763.044 441.422 717.089 427.771C684.636 418.138 650.556 425.31 630.282 446.03C611.086 465.626 606.899 493.883 618.489 525.593C626.618 545.995 641.8 559.772 659.086 562.392C669.299 563.936 678.321 561.066 683.814 554.517C691.757 545.606 698.675 541.466 703.946 542.426C706.566 542.915 708.523 544.665 709.464 547.34C711.432 552.965 708.694 561.276 702.652 568.02C695.182 576.344 681.032 585.278 663.377 585.33C651.406 585.374 633.334 581.19 615.151 561.018C600.413 544.852 592.598 523.747 591.915 498.293C591.054 439 633.929 408.671 676.936 404.829C677.063 404.817 677.198 404.805 677.325 404.794C735.891 399.78 806.102 440.155 821.876 540.628C826.496 570.116 825.421 601.572 818.748 631.603C805.36 691.761 780.469 728.46 736.28 779.068C725.777 791.031 715.604 802.157 705.764 812.909C666.334 856.015 635.187 890.059 636.593 922.008C636.954 937.257 642.082 946.982 645.48 953.416C647.611 957.461 649.02 960.132 648.23 962.51C647.857 963.621 647.059 964.494 645.845 965.097C645.138 965.459 644.495 965.621 643.92 965.673L643.924 965.677ZM641.717 958.727L642.058 959.374C642.344 959.93 643.106 961.41 643.531 961.537L644.182 961.224C644.412 960.517 642.9 957.647 641.677 955.341C638.323 948.982 632.711 938.341 632.318 922.174C630.841 888.571 662.5 853.963 702.585 810.151C712.409 799.41 722.574 788.304 733.037 776.377C776.762 726.305 801.375 690.03 814.577 630.746C821.126 601.207 822.19 570.271 817.645 541.279C802.292 443.45 734.335 404.103 677.686 408.949C677.559 408.961 677.432 408.973 677.305 408.981C636.271 412.645 595.372 441.604 596.186 498.201C596.841 522.62 604.295 542.831 618.354 558.256C631.917 573.311 647.484 581.23 663.377 581.17C679.615 581.099 692.598 572.926 699.433 565.293C704.998 559.085 706.649 552.25 705.411 548.71C704.752 546.828 703.53 546.598 703.121 546.523C701.819 546.281 696.758 546.324 687.073 557.2C680.715 564.765 669.95 568.274 658.407 566.516C639.597 563.666 623.189 548.92 614.484 527.07C602.298 493.744 606.819 463.967 627.189 443.168C648.596 421.313 684.378 413.7 718.347 423.798C765.91 437.921 799.204 481.217 809.675 542.585C814.477 570.58 813.854 600.615 807.881 629.448C794.615 693.074 765.835 730.818 729.6 773.547C719.43 785.466 709.44 796.667 699.783 807.499C659.852 852.276 628.313 887.642 630.397 922.222C630.877 934.003 634.263 944.91 641.717 958.735V958.727Z" fill="#E3BE72"/>
<path d="M648.373 538.461C648.703 542.133 645.912 545.38 642.145 545.717C638.379 546.054 635.056 543.355 634.727 539.684C634.398 536.008 637.188 532.757 640.955 532.42C644.722 532.083 648.044 534.79 648.373 538.465V538.461Z" fill="#E3BE72"/>
<path d="M636.029 515.948C636.358 519.619 633.572 522.87 629.805 523.208C626.038 523.545 622.72 520.838 622.395 517.166C622.065 513.491 624.852 510.248 628.618 509.911C632.385 509.573 635.699 512.268 636.029 515.948Z" fill="#E3BE72"/>
<path d="M630.508 492.438C630.837 496.11 628.047 499.361 624.28 499.698C620.513 500.035 617.195 497.328 616.865 493.657C616.536 489.985 619.322 486.738 623.089 486.405C626.856 486.068 630.178 488.767 630.508 492.438Z" fill="#E3BE72"/>
<path d="M634.862 464.193C635.191 467.861 632.405 471.111 628.634 471.449C624.868 471.786 621.545 469.079 621.22 465.412C620.89 461.736 623.681 458.485 627.448 458.148C631.218 457.811 634.537 460.518 634.866 464.193H634.862Z" fill="#E3BE72"/>
<path d="M656.72 442.878C657.05 446.55 654.26 449.801 650.493 450.138C646.726 450.475 643.404 447.768 643.074 444.101C642.745 440.429 645.535 437.183 649.302 436.845C653.069 436.508 656.391 439.207 656.72 442.878Z" fill="#E3BE72"/>
<path d="M687.653 433.416C687.982 437.087 685.196 440.334 681.425 440.671C677.658 441.009 674.336 438.31 674.007 434.638C673.677 430.967 676.467 427.716 680.234 427.379C684.005 427.041 687.323 429.748 687.653 433.416Z" fill="#E3BE72"/>
<path d="M721.482 438.643C721.812 442.315 719.029 445.565 715.259 445.903C711.492 446.24 708.17 443.533 707.844 439.866C707.515 436.194 710.305 432.943 714.072 432.606C717.843 432.269 721.157 434.972 721.482 438.647V438.643Z" fill="#E3BE72"/>
<path d="M748.287 454.06C748.612 457.727 745.826 460.978 742.051 461.315C738.288 461.653 734.966 458.946 734.64 455.278C734.311 451.603 737.101 448.352 740.864 448.014C744.639 447.677 747.957 450.384 748.287 454.06Z" fill="#E3BE72"/>
<path d="M810.099 587.255C809.905 587.271 809.699 587.263 809.496 587.223C781.243 581.746 765.839 560.431 762.413 522.064C760.409 499.607 745.262 483.503 745.111 483.345C744.448 482.646 744.353 481.594 744.885 480.792C745.433 479.991 746.473 479.637 747.37 479.947C778.961 490.382 795.469 511.07 799.347 545.042C802.84 575.649 811.278 583.556 811.362 583.627C812.056 584.258 812.259 585.278 811.818 586.112C811.473 586.767 810.822 587.188 810.099 587.251V587.255ZM753.085 486.52C758.067 493.49 765.267 506.033 766.664 521.683C769.673 555.35 782.188 575.081 804.868 581.805C801.732 576.312 797.366 565.468 795.092 545.515C791.678 515.551 778.612 497.078 753.085 486.52Z" fill="#E3BE72"/>
<path d="M790.595 683.596L786.359 683.104C795.802 608.502 750.493 593.201 748.56 592.586C747.699 592.308 747.108 591.526 747.096 590.637C747.084 589.748 747.651 588.942 748.521 588.644C749.037 588.458 761.786 584.167 775.619 591.847C789.749 599.691 799.501 616.79 804.61 642.677L800.41 643.483C795.556 618.894 786.53 602.751 773.575 595.511C766.99 591.836 760.611 591.276 756.138 591.538C769.363 598.948 798.335 622.454 790.591 683.6L790.595 683.596Z" fill="#E3BE72"/>
<path d="M735.526 765.501C735.01 765.549 734.474 765.41 734.033 765.08C733.275 764.517 715.83 750.724 735.291 708.912C747.791 682.072 745.381 660.154 745.349 659.936C745.238 659.011 745.77 658.13 746.651 657.768C747.525 657.415 748.541 657.657 749.136 658.376C749.545 658.872 789.396 708.582 736.923 764.826C736.546 765.227 736.046 765.457 735.526 765.501ZM749.839 666.902C749.644 675.856 747.858 691.975 739.181 710.615C724.594 741.944 731.969 756.086 735.319 760.337C773.499 718.009 758.214 680.925 749.839 666.902Z" fill="#E3BE72"/>
<path d="M734.581 763.1C734.581 763.1 736.01 759.77 737.55 754.709C738.352 752.188 739.578 749.354 740.364 746.131C741.146 742.912 741.983 739.475 742.817 736.041C743.869 732.66 744.762 729.238 745.123 725.94C745.643 722.669 746.127 719.613 746.54 716.997C747.449 711.766 748.195 708.273 748.195 708.273L748.219 708.166C748.314 707.729 748.751 707.451 749.196 707.538C749.608 707.622 749.878 707.979 749.854 708.376C749.854 708.376 749.632 711.932 749.076 717.287C748.759 719.962 748.394 723.078 747.993 726.42C747.755 729.794 746.989 733.303 746.044 736.78C745.06 740.241 744.071 743.702 743.146 746.949C742.222 750.192 740.836 753.089 739.916 755.634C737.963 760.71 736.093 763.77 736.093 763.763L736.053 763.826C735.823 764.211 735.311 764.334 734.918 764.112C734.561 763.898 734.422 763.469 734.577 763.108L734.581 763.1Z" fill="#E3BE72"/>
<path d="M708.59 320.463C708.444 320.475 708.297 320.475 708.138 320.455C707.443 320.372 706.836 319.963 706.507 319.356C705.975 318.36 693.634 294.532 707.523 263.882C719.76 236.86 716.842 215.009 716.815 214.791C716.684 213.866 717.204 212.973 718.073 212.592C718.954 212.211 719.978 212.445 720.585 213.163C720.994 213.648 761.619 262.779 710.007 319.761C709.642 320.166 709.13 320.416 708.594 320.463H708.59ZM721.435 221.729C721.411 230.707 719.891 246.842 711.428 265.545C701.116 288.313 706.352 307.409 709.043 314.49C745.627 272.023 729.984 235.585 721.439 221.733L721.435 221.729Z" fill="#E3BE72"/>
<path d="M707.642 318.07C707.642 318.07 709.015 314.72 710.476 309.639C711.238 307.107 712.425 304.253 713.159 301.026C713.893 297.791 714.675 294.346 715.457 290.901C716.453 287.499 717.299 284.074 717.608 280.771C718.077 277.493 718.513 274.436 718.89 271.809C719.716 266.573 720.411 263.064 720.411 263.064L720.431 262.961C720.518 262.521 720.95 262.235 721.403 262.318C721.812 262.39 722.09 262.751 722.074 263.148C722.074 263.148 721.903 266.704 721.435 272.063C721.157 274.738 720.835 277.858 720.49 281.208C720.299 284.582 719.589 288.102 718.704 291.591C717.771 295.072 716.842 298.541 715.965 301.8C715.088 305.055 713.75 307.972 712.869 310.529C711 315.633 709.174 318.717 709.174 318.717L709.142 318.777C708.912 319.162 708.404 319.3 708.007 319.074C707.642 318.872 707.503 318.443 707.65 318.074L707.642 318.07Z" fill="#E3BE72"/>
<path d="M735.577 87.6642C735.43 87.6761 735.283 87.6761 735.125 87.6563C734.43 87.5729 733.823 87.1641 733.493 86.5568C732.961 85.5605 720.629 61.7372 734.517 31.0789C746.719 4.13583 743.837 -17.7942 743.809 -18.0125C743.686 -18.9373 744.198 -19.8304 745.068 -20.2114C745.949 -20.5845 746.965 -20.3503 747.58 -19.6398C747.989 -19.1556 788.622 29.9795 736.994 86.9657C736.625 87.3665 736.117 87.6126 735.581 87.6603L735.577 87.6642ZM748.434 -11.0703C748.41 -2.09586 746.889 14.051 738.427 32.742C728.115 55.5095 733.343 74.6055 736.03 81.6866C772.622 39.2159 756.983 2.78232 748.434 -11.0703Z" fill="#E3BE72"/>
<path d="M734.636 85.2747C734.636 85.2747 736.014 81.9247 737.47 76.8441C738.233 74.3117 739.419 71.4579 740.154 68.2229C740.888 64.992 741.674 61.5467 742.452 58.1014C743.448 54.6998 744.294 51.2743 744.603 47.972C745.072 44.6934 745.508 41.6371 745.877 39.0134C746.707 33.774 747.402 30.2613 747.402 30.2613L747.421 30.1581C747.509 29.7175 747.941 29.4317 748.39 29.5151C748.799 29.5865 749.077 29.9477 749.061 30.3407C749.061 30.3407 748.89 33.901 748.422 39.2595C748.144 41.9348 747.822 45.0546 747.477 48.4046C747.286 51.7784 746.576 55.2991 745.691 58.7881C744.758 62.2651 743.825 65.7382 742.952 68.993C742.079 72.2477 740.737 75.1651 739.856 77.7213C737.986 82.8257 736.161 85.9098 736.161 85.9098L736.125 85.9694C735.895 86.3544 735.391 86.4893 734.99 86.267C734.629 86.0646 734.486 85.6359 734.636 85.2708V85.2747Z" fill="#E3BE72"/>
<path d="M852.153 97.7541C851.872 97.7779 851.582 97.7541 851.3 97.6628C851.086 97.5953 829.533 90.9866 800.141 97.9962C766.783 105.97 744.889 89.9625 743.98 89.2838C743.42 88.863 743.115 88.2041 743.154 87.5214C743.19 86.8387 743.579 86.2116 744.186 85.8504C810.727 46.2256 853.185 93.8444 853.602 94.3326C854.217 95.0392 854.277 96.0672 853.737 96.8372C853.372 97.3731 852.78 97.6985 852.157 97.7541H852.153ZM816.911 91.0382C829.053 89.9546 838.853 90.935 845.096 92.0027C832.593 81.3652 798.561 59.975 749.335 87.7001C756.003 91.5145 774.368 99.8737 799.144 93.9556C805.463 92.4433 811.421 91.5304 816.907 91.0421L816.911 91.0382Z" fill="#E3BE72"/>
<path d="M745.103 86.8387C745.103 86.8387 748.525 85.6202 754.01 84.7192C756.745 84.3183 759.92 83.5443 763.354 83.2704C766.799 82.9965 770.467 82.7068 774.134 82.417C777.814 82.1749 781.485 82.1034 784.927 82.5123C788.364 82.7663 791.571 83.0005 794.322 83.2029C799.811 83.6872 803.431 84.1436 803.431 84.1436C803.884 84.2032 804.201 84.608 804.142 85.0486C804.082 85.4495 803.737 85.7472 803.328 85.7472H803.221C803.221 85.7472 799.561 85.8067 794.127 85.6877C791.412 85.5884 788.249 85.4733 784.863 85.3503C781.473 85.0724 777.869 85.2868 774.265 85.6519C770.649 85.8028 767.037 85.9536 763.647 86.0925C760.254 86.2314 757.174 86.8784 754.483 87.1642C749.1 87.6802 745.484 88.4145 745.484 88.4145C745.036 88.5058 744.599 88.224 744.504 87.7874C744.421 87.3865 744.655 86.9975 745.036 86.8625L745.103 86.8387Z" fill="#E3BE72"/>
<path d="M736.371 382.101C736.224 382.113 736.077 382.113 735.919 382.094C735.224 382.01 734.617 381.601 734.287 380.994C733.755 379.998 721.415 356.171 735.303 325.52C747.505 298.573 744.611 276.647 744.583 276.429C744.452 275.504 744.972 274.611 745.842 274.23C746.715 273.853 747.739 274.091 748.342 274.797C748.759 275.286 789.404 324.413 737.784 381.399C737.419 381.804 736.907 382.05 736.371 382.101ZM749.215 283.367C749.184 292.349 747.671 308.48 739.209 327.183C728.897 349.951 734.132 369.047 736.824 376.128C773.408 333.661 757.765 297.228 749.219 283.371L749.215 283.367Z" fill="#E3BE72"/>
<path d="M735.422 379.708C735.422 379.708 736.796 376.358 738.256 371.277C739.018 368.745 740.205 365.891 740.94 362.656C741.674 359.425 742.46 355.98 743.238 352.539C744.234 349.141 745.075 345.712 745.389 342.409C745.857 339.131 746.294 336.074 746.667 333.451C747.493 328.207 748.187 324.703 748.187 324.703L748.207 324.599C748.295 324.159 748.727 323.873 749.176 323.956C749.584 324.028 749.862 324.389 749.846 324.782C749.846 324.782 749.676 328.342 749.207 333.701C748.93 336.376 748.608 339.5 748.263 342.846C748.072 346.22 747.362 349.74 746.477 353.229C745.544 356.706 744.615 360.18 743.738 363.438C742.865 366.693 741.523 369.61 740.642 372.167C738.772 377.275 736.946 380.355 736.946 380.355L736.915 380.415C736.684 380.8 736.172 380.935 735.78 380.712C735.418 380.51 735.275 380.081 735.426 379.712L735.422 379.708Z" fill="#E3BE72"/>
<path d="M761.83 431.304C761.607 431.324 761.377 431.312 761.155 431.26C760.472 431.11 759.909 430.637 759.655 429.998C759.234 428.946 749.549 403.972 766.676 374.913C781.739 349.359 781.271 327.247 781.259 327.029C781.235 326.1 781.839 325.258 782.748 324.976C783.649 324.691 784.641 325.016 785.181 325.798C785.534 326.326 820.578 379.402 763.072 430.76C762.727 431.074 762.282 431.26 761.822 431.304H761.83ZM785.109 334.411C784.105 343.342 780.834 359.243 770.387 376.977C757.666 398.554 760.798 418.095 762.703 425.418C803.689 386.944 792.099 349.074 785.113 334.411H785.109Z" fill="#E3BE72"/>
<path d="M760.925 428.831C760.925 428.831 762.655 425.648 764.66 420.742C765.692 418.297 767.18 415.586 768.264 412.442C769.347 409.307 770.494 405.957 771.646 402.611C773.007 399.336 774.218 396.01 774.88 392.759C775.706 389.544 776.472 386.547 777.127 383.979C778.52 378.851 779.592 375.437 779.592 375.437L779.628 375.334C779.763 374.909 780.223 374.667 780.664 374.798C781.061 374.917 781.299 375.298 781.239 375.687C781.239 375.687 780.68 379.212 779.632 384.495C779.064 387.131 778.405 390.203 777.699 393.493C777.139 396.831 776.055 400.261 774.793 403.643C773.491 407.004 772.185 410.362 770.963 413.514C769.74 416.658 768.093 419.424 766.938 421.873C764.525 426.755 762.377 429.637 762.377 429.637L762.334 429.689C762.064 430.05 761.548 430.133 761.175 429.867C760.837 429.629 760.738 429.188 760.929 428.835L760.925 428.831Z" fill="#E3BE72"/>
<path d="M838.944 752.791C820.566 754.435 797.64 750.049 772.733 730.465C772.237 730.08 771.947 729.496 771.943 728.877C771.927 728.258 772.209 727.67 772.685 727.261C773.499 726.579 793.115 710.686 829.945 725.36C857.798 736.462 880.319 732.052 880.541 732.024C881.446 731.822 882.442 732.278 882.871 733.116C883.308 733.95 883.113 734.97 882.403 735.605C882.109 735.855 865.152 750.454 838.948 752.795L838.944 752.791ZM777.643 728.928C821.888 762.218 858.921 745.905 873.218 737.006C863.878 737.498 847.406 736.827 828.318 729.214C800.418 718.112 783.414 725.471 777.643 728.928Z" fill="#E3BE72"/>
<path d="M774.376 728.087C774.376 728.087 777.861 729.266 783.128 730.441C785.756 731.06 788.725 732.08 792.067 732.64C795.409 733.199 798.974 733.791 802.534 734.39C806.055 735.192 809.603 735.855 813.001 735.99C816.379 736.287 819.53 736.561 822.233 736.799C827.639 737.351 831.259 737.859 831.259 737.859L831.366 737.875C831.823 737.943 832.132 738.347 832.065 738.792C832.002 739.197 831.648 739.483 831.247 739.483C831.247 739.483 827.588 739.491 822.078 739.292C819.32 739.153 816.109 738.994 812.667 738.82C809.202 738.8 805.566 738.28 801.951 737.581C798.354 736.843 794.754 736.101 791.38 735.406C788.011 734.708 784.966 733.549 782.315 732.81C777.004 731.239 773.773 729.607 773.773 729.603L773.717 729.575C773.309 729.369 773.154 728.885 773.364 728.484C773.559 728.123 773.991 727.964 774.376 728.091V728.087Z" fill="#E3BE72"/>
<path d="M647.131 962.613C646.917 962.633 646.678 962.613 646.416 962.561C645.305 962.335 644.583 961.188 644.757 960.092C647.591 942.898 658.078 898.192 694.154 854.428C709.964 835.375 735.653 811.028 768.2 803.205C783.99 799.12 801.188 798.914 817.943 802.621C840.313 807.353 857.508 820.396 866.331 839.337C875.143 858.254 874.266 880.474 863.986 898.78C859.822 906.258 854.174 912.315 847.652 916.3C835.542 923.897 819.76 924.258 806.495 917.26C793.27 910.279 785.335 897.383 785.3 882.756C785.137 871.356 790.17 860.739 798.43 855.071C806.408 849.458 822.241 848.033 828.652 852.391C831.533 854.344 832.593 857.285 831.613 860.663C829.656 867.502 824.389 866.601 820.153 865.871C816.355 865.212 812.028 864.458 807.551 867.518C804.118 869.725 800.684 875.25 800.621 882.693C800.541 891.945 805.432 900.189 813.715 904.734C822.106 909.354 832.264 909.278 840.154 904.563C853.638 896.66 861.231 876.846 858.218 857.44C854.793 835.411 839.003 819.566 814.882 813.977C800.228 810.528 784.601 810.492 770.903 813.87C741.106 820.507 716.874 842.877 701.779 860.477C668.295 899.851 653.835 943.311 649.175 960.168C648.961 960.954 648.536 962.486 647.123 962.613H647.131ZM814.688 854.066C809.643 854.519 804.308 856.059 800.903 858.456C793.877 863.279 789.444 872.789 789.571 882.7C789.61 895.803 796.699 907.341 808.543 913.589C820.459 919.872 834.558 919.563 845.374 912.783C851.3 909.167 856.424 903.646 860.239 896.795C869.88 879.628 870.698 858.798 862.442 841.071C854.19 823.353 838.043 811.139 817.006 806.69C800.887 803.129 784.383 803.316 769.248 807.241C737.82 814.791 712.869 838.483 697.477 857.027C684.926 872.261 675.523 887.598 668.497 901.812C676.229 887.606 686.081 872.44 698.513 857.821C714.036 839.722 739.015 816.704 769.931 809.821C784.276 806.301 800.613 806.333 815.906 809.929C841.798 815.934 858.758 833.014 862.45 856.801C865.704 877.81 857.262 899.395 842.369 908.119C833.129 913.625 821.372 913.72 811.604 908.365C801.962 903.067 796.251 893.461 796.35 882.677C796.414 874.782 799.871 867.478 805.158 864.081C811.008 860.068 816.752 861.044 820.92 861.767C825.746 862.596 826.651 862.493 827.501 859.56C827.981 857.897 827.572 856.746 826.203 855.813C823.785 854.174 819.36 853.654 814.684 854.07L814.688 854.066Z" fill="#E3BE72"/>
<path d="M641.558 966.761C641.352 966.78 641.145 966.773 640.935 966.741C640.506 966.665 597.789 958.556 598.853 891.711C599.06 878.255 599.897 864.418 600.711 851.026C603.394 806.817 605.934 764.997 584.338 752.974C580.337 756.757 572.799 761.055 566.087 756.273C562.578 753.772 560.951 749.997 561.61 745.909C562.535 740.197 567.548 735.065 574.363 732.838C584.564 729.512 596.361 733.243 606.732 743.091C628.654 763.921 620.747 818.812 614.98 858.885C613.516 869.05 612.253 877.826 611.67 884.717C606.351 948.411 641.824 962.22 642.177 962.351C643.305 962.764 643.924 963.95 643.602 965.086C643.332 966.022 642.503 966.669 641.558 966.753V966.761ZM583.667 747.886C584.076 747.85 584.504 747.917 584.897 748.1C610.9 760.321 608.225 804.503 605.379 851.272C604.573 864.609 603.739 878.398 603.525 891.758C603.084 919.876 610.392 936.888 618.731 947.125C610.848 934.741 604.442 915.054 607.014 884.364C607.597 877.342 608.875 868.502 610.352 858.27C615.663 821.36 623.697 765.584 603.465 746.361C594.38 737.74 584.282 734.37 575.844 737.157C570.739 738.824 566.877 742.618 566.23 746.604C565.956 748.283 566.202 750.68 568.87 752.581C574.8 756.82 581.813 749.001 582.107 748.671C582.508 748.211 583.083 747.937 583.671 747.886H583.667Z" fill="#E3BE72"/>
<path d="M640.292 967.32C634.298 967.856 603.521 968.15 586.179 921.075C582.321 910.608 578.844 899.669 575.482 889.087C564.337 854.066 553.81 820.939 533.428 817.776C531.452 821.848 526.891 827.298 520.227 825.512C516.758 824.575 514.356 822.114 513.654 818.764C512.665 814.076 515.027 808.678 519.655 805.015C526.593 799.537 536.886 799.089 547.868 803.76C571.136 813.656 581.412 858.413 588.906 891.087C590.808 899.363 592.451 906.52 594.062 912.017C609.03 963.049 640.657 963.45 640.975 963.45C641.979 963.442 642.812 964.189 642.908 965.157C642.995 966.133 642.308 967.019 641.328 967.197C641.288 967.197 640.931 967.261 640.296 967.316L640.292 967.32ZM532.051 813.842C532.17 813.83 532.285 813.834 532.396 813.842C556.263 815.914 567.397 850.903 579.178 887.948C582.532 898.49 586.001 909.389 589.823 919.777C597.901 941.683 608.661 952.785 618.207 958.334C608.379 950.987 597.52 937.563 590.335 913.065C588.692 907.46 587.037 900.264 585.12 891.925C578.221 861.83 567.774 816.355 546.305 807.221C536.659 803.121 527.828 803.383 522.084 807.936C518.619 810.675 516.758 814.715 517.444 817.982C517.734 819.359 518.631 821.15 521.275 821.864C527.082 823.428 530.261 815.41 530.4 815.073C530.662 814.378 531.317 813.902 532.051 813.838V813.842Z" fill="#E3BE72"/>
<path d="M642.888 965.768C642.419 965.808 641.939 965.701 641.518 965.431C639.565 964.169 594.161 933.34 631.75 833.613L633.127 829.965C651.481 781.318 674.245 720.97 653.871 700.156C649.334 702.458 641.554 704.343 636.942 698.437C634.521 695.333 634.096 691.582 635.775 688.149C638.133 683.354 643.765 680.139 650.493 679.877C660.34 679.54 669.708 685.839 676.19 697.175C688.264 718.239 679.544 759.404 649.54 823.011C603.854 919.964 643.817 961.827 644.229 962.24C644.987 963.002 645.035 964.201 644.329 965.022C643.955 965.463 643.428 965.721 642.88 965.768H642.888ZM654.025 695.488C654.601 695.436 655.196 695.619 655.657 696.02C680.044 717.664 657.252 778.08 637.132 831.386L635.755 835.038C617.294 884.026 619.584 915.931 626.372 935.503C620.489 912.481 620.215 875.298 645.674 821.285C674.649 759.837 683.664 718.771 672.462 699.215C666.782 689.292 658.824 683.759 650.624 684.041C645.805 684.279 641.276 686.573 639.637 689.927C638.938 691.348 638.502 693.531 640.347 695.905C644.46 701.172 652.978 695.869 653.053 695.813C653.363 695.623 653.684 695.516 654.029 695.488H654.025Z" fill="#E3BE72"/>
<path d="M777.968 450.059C777.881 450.067 777.782 450.067 777.683 450.067C777.357 450.051 776.774 449.693 775.94 448.971C774.841 448.018 773.313 446.435 771.419 444.172C730.707 401.197 702.768 357.834 686.085 311.755C673.518 277.044 661.035 226.373 672.927 182.1C681.552 145.734 701.843 119.557 730.024 108.451C753.669 99.1274 780.533 101.703 801.879 115.322C821.539 127.908 832.057 152.128 827.469 174.229C823.777 191.952 810.873 204.121 792.063 207.622C784.994 208.436 780.87 203.8 780.219 198.723C779.628 194.079 782.029 189.007 787.689 187.53C788.205 187.336 788.808 187.272 789.372 187.212C789.42 187.209 789.531 187.205 789.618 187.201C792.035 186.617 797.076 184.664 800.641 179.854C805.598 173.146 806.384 163.215 802.951 150.33C798.636 138.605 786.022 129.337 770.078 126.313C749.799 122.459 729.397 129.19 715.417 144.281C680.361 181.159 684.461 250.502 704.073 302.876C737.161 391.191 765.545 430.312 775.329 442.152C776.405 443.287 777.5 444.422 778.596 445.562C778.615 445.577 778.627 445.597 778.651 445.621C779.461 446.522 780.39 447.546 779.719 448.88C779.393 449.547 778.719 449.995 777.965 450.063L777.968 450.059ZM752.462 107.383C745.385 108.014 738.36 109.65 731.612 112.309C704.764 122.891 685.402 148.02 677.071 183.081C665.445 226.393 677.746 276.191 690.114 310.35C703.303 346.775 723.626 381.51 751.867 415.725C737.848 392.386 719.494 356.19 700.053 304.317C680.008 250.752 676.007 179.627 712.278 141.471C727.266 125.3 749.204 118.116 770.919 122.216C788.324 125.523 802.161 135.815 807.035 149.088C813.148 172.01 805.749 182.719 798.47 187.693C795.699 189.59 791.436 191.138 789.098 191.479C785.411 192.289 784.093 195.357 784.454 198.195C784.843 201.232 787.292 204.082 791.412 203.514C808.301 200.37 819.963 189.396 823.285 173.423C827.465 153.272 817.474 130.302 799.525 118.811C785.443 109.828 768.819 105.931 752.458 107.391L752.462 107.383Z" fill="#E3BE72"/>
<path d="M682.957 161.309C682.616 161.341 682.259 161.289 681.921 161.147C680.889 160.718 680.385 159.583 680.762 158.547C680.865 158.249 691.709 128.238 699.441 89.4226C707.197 50.556 701.454 -1.59172 670.545 -24.2401C658.499 -33.3257 642.888 -35.5008 628.845 -30.1225C617.778 -25.8874 609.919 -17.6195 608.32 -8.53786C607.55 0.881107 609.34 7.8471 613.646 11.991C616.961 15.1664 620.866 15.7379 622.462 15.8332H622.47C622.47 15.8332 622.49 15.8332 622.498 15.8332C622.907 15.8014 623.399 15.7657 623.887 15.8491C626.415 16.0594 628.559 17.278 629.912 19.2983C631.595 21.8227 631.766 25.1966 630.357 27.8996C629.079 30.3328 626.677 31.8609 623.748 32.1229C623.621 32.1348 623.506 32.1467 623.387 32.1507C608.84 32.0713 597.639 24.756 592.534 12.1021C586.199 -3.61603 590.744 -22.9223 603.592 -34.834C617.524 -47.7022 636.962 -53.1599 655.613 -49.4328C677.821 -44.9912 696.202 -28.4475 707.364 -2.83805C721.224 26.5342 723.935 61.8365 714.774 93.9753C707.8 118.458 697.072 137.764 689.24 151.855C687.561 154.875 686.021 157.654 684.672 160.186C684.326 160.845 683.664 161.25 682.961 161.313L682.957 161.309ZM640.26 -37.0052C651.874 -38.0411 663.54 -34.7943 673.137 -27.5584C705.49 -3.85418 711.627 50.1035 703.641 90.1966C699.834 109.281 695.282 126.261 691.61 138.685C698.195 126.289 705.498 110.991 710.658 92.8679C719.549 61.6698 716.922 27.4035 703.458 -1.14716C692.821 -25.5222 675.531 -41.2046 654.732 -45.3604C637.462 -48.8136 619.426 -43.7608 606.522 -31.8293C595.102 -21.2315 590.879 -3.39772 596.503 10.5581C599.119 17.02 606.061 27.8838 623.296 27.983C625.078 27.8004 626.106 26.8557 626.542 26.0143C627.249 24.6607 627.154 22.8349 626.312 21.5727C625.665 20.5923 624.641 20.0485 623.335 19.981C623.323 19.981 623.308 19.981 623.288 19.985C621.061 20.1835 617.636 19.2507 615.746 18.4013C609.618 15.6546 602.616 8.66476 604.077 -9.03799C605.942 -19.743 614.837 -29.2374 627.289 -33.9965C631.532 -35.6199 635.89 -36.6162 640.252 -37.0052H640.26Z" fill="#E3BE72"/>
<path d="M782.045 64.2022C777.234 64.6309 772.193 64.488 766.89 63.6306C765.783 63.452 765.005 62.4597 765.124 61.3682C765.176 60.8561 771.646 9.68487 845.763 8.53777C846.497 8.52586 847.18 8.87912 847.577 9.47847C847.974 10.0699 848.041 10.828 847.736 11.479C847.478 12.0227 824.353 60.4275 782.041 64.2062L782.045 64.2022ZM769.701 59.8241C810.556 64.9365 835.927 24.3869 842.27 12.7928C782.612 15.0473 771.495 50.8497 769.701 59.8241Z" fill="#E3BE72"/>
<path d="M766.807 60.8998C766.807 60.8998 769.403 58.9549 773.4 56.2082C777.484 53.5766 782.843 49.9527 788.011 46.1105C793.397 42.566 798.779 39.0175 802.82 36.3581C806.908 33.7582 809.722 32.1269 809.722 32.1269L809.778 32.0991C810.175 31.8729 810.683 31.9999 810.913 32.3809C811.119 32.7263 811.036 33.1668 810.731 33.4129C810.731 33.4129 808.222 35.4571 804.324 38.3626C800.379 41.2085 795.12 44.9991 789.852 48.7937C779.171 56.1963 767.696 62.2613 767.696 62.2613C767.287 62.4756 766.783 62.3287 766.565 61.9358C766.37 61.5786 766.482 61.1419 766.799 60.9038L766.807 60.8998Z" fill="#E3BE72"/>
</g>
<path d="M733.727 192.754C733.727 192.754 730.389 191.551 724.551 189.439C718.755 187.359 710.309 184.72 699.85 183.581C689.419 182.35 676.948 183.279 664.329 186.931C658.058 188.792 651.755 191.392 646.035 195.02C643.189 196.842 640.49 198.926 638.176 201.315C635.949 203.681 633.862 206.555 633.576 209.269C633.413 210.607 633.822 211.599 634.735 212.227C636.069 213.159 637.053 213.37 638.565 213.243C641.443 212.917 644.471 211.016 647.27 209.162C652.91 205.3 658.32 200.954 663.988 197.326C669.648 193.69 675.411 190.507 681.429 188.562C687.43 186.613 693.487 186.061 698.866 185.95C709.749 185.78 718.609 187.53 724.737 188.737C730.873 190.019 734.307 191.086 734.307 191.086L733.731 192.75L733.727 192.754ZM733.787 192.773C733.787 192.773 730.401 191.829 724.312 190.749C718.239 189.685 709.428 188.407 698.905 188.653C693.634 188.824 688.014 189.396 682.381 191.277C676.757 193.15 671.176 196.29 665.727 199.878C660.229 203.478 654.994 207.781 649.179 211.861C646.222 213.798 643.181 216.009 638.93 216.624C636.91 216.99 634.235 216.239 632.722 215.092C630.595 213.786 629.658 211.044 629.98 208.944C630.599 204.657 633.151 201.684 635.64 198.993C638.236 196.362 641.161 194.171 644.205 192.261C650.322 188.475 656.911 185.847 663.436 183.982C676.519 180.342 689.403 179.52 700.172 180.901C710.98 182.156 719.506 185.307 725.297 187.526C731.064 189.804 734.358 191.11 734.358 191.11C734.823 191.285 735.053 191.789 734.874 192.241C734.708 192.662 734.22 192.885 733.783 192.769L733.787 192.773Z" fill="#E3BE72"/>
<path d="M721.399 179.846C721.399 179.846 718.898 178.448 714.524 176.003C710.194 173.562 703.831 170.387 695.714 167.966C687.609 165.548 677.63 164.449 667.029 165.441C661.769 165.953 656.343 166.962 651.227 168.883C646.325 170.74 640.836 173.816 639.268 178.04C638.962 179.036 639.026 179.885 639.53 180.592C640.189 181.485 640.915 181.937 641.987 182.259C644.122 182.795 646.893 182.207 649.477 181.449C654.732 179.854 659.892 177.603 664.984 175.737C670.105 173.864 675.031 172.106 680.048 171.01C684.993 169.93 690.022 169.855 694.373 170.212C703.212 170.99 710.174 173.392 714.925 175.142C719.676 176.936 722.264 178.31 722.264 178.31L721.399 179.85V179.846ZM721.447 179.869C721.447 179.869 718.91 178.639 714.195 177.055C709.503 175.464 702.577 173.554 694.146 172.892C689.883 172.622 685.43 172.721 680.699 173.804C676.035 174.88 671.109 176.686 666.124 178.591C661.103 180.501 656.05 182.795 650.465 184.581C647.667 185.379 644.634 186.296 641.102 185.537C639.395 185.16 637.601 183.966 636.616 182.545C635.402 180.945 635.279 178.71 635.838 177.031C637.037 173.638 639.554 171.534 642.03 169.788C644.563 168.073 647.29 166.811 650.052 165.802C655.593 163.802 661.277 162.837 666.775 162.369C677.753 161.476 688.161 162.758 696.548 165.382C704.97 167.966 711.313 171.661 715.616 174.233C719.879 176.837 722.32 178.329 722.32 178.329C722.749 178.575 722.888 179.115 722.63 179.532C722.391 179.925 721.867 180.06 721.455 179.869H721.447Z" fill="#E3BE72"/>
<path d="M709.178 164.826C709.178 164.826 707.408 163.441 704.312 161.016C701.216 158.626 696.683 155.415 690.717 152.533C687.688 151.188 684.346 149.894 680.643 148.977C678.849 148.342 676.856 148.251 674.903 147.85C672.947 147.461 670.974 147.246 668.791 147.111C664.695 146.889 660.356 147.008 656.173 147.866C652.184 148.719 647.516 150.438 645.932 153.335C645.547 154.014 645.523 154.546 645.765 155.05C645.492 154.891 646.277 155.788 646.468 156.062C646.722 156.137 646.786 156.34 647.182 156.451C648.461 157.058 650.755 156.713 652.819 156.328C657.086 155.455 661.46 154.331 665.735 153.649C670.053 152.962 674.133 152.482 678.281 152.557C680.242 152.664 682.12 152.641 683.989 152.855C685.882 153.188 687.712 153.514 689.467 153.819C696.29 155.475 701.458 158.118 704.974 160.027C708.451 162.024 710.297 163.453 710.297 163.453L709.174 164.83L709.178 164.826ZM709.21 164.846C709.21 164.846 707.423 163.596 703.95 161.817C702.18 161.012 700.092 159.892 697.516 159.035C695.012 158.015 692.031 157.277 688.847 156.443C687.24 156.185 685.573 155.911 683.842 155.629C682.064 155.451 680.119 155.502 678.174 155.427C674.515 155.411 670.359 155.943 666.274 156.673C662.131 157.404 657.975 158.551 653.482 159.551C651.219 159.912 648.802 160.674 645.801 159.579C645.091 159.368 644.34 158.765 643.689 158.178C643.257 157.543 643.11 157.697 642.519 156.451C641.76 154.959 641.975 153.026 642.717 151.783C645.912 146.778 651.048 145.734 655.51 144.643C660.13 143.781 664.687 143.734 669.093 144.051C673.284 144.365 677.638 145.242 681.429 146.198C685.303 147.227 688.792 148.648 691.947 150.112C698.187 153.204 702.621 156.923 705.649 159.432C708.63 162 710.329 163.469 710.329 163.469C710.702 163.79 710.738 164.346 710.408 164.707C710.099 165.052 709.579 165.096 709.206 164.842L709.21 164.846Z" fill="#E3BE72"/>
<path d="M775.206 534.155C775.206 534.155 759.777 524.351 739.717 506.056C734.736 501.448 729.484 496.288 724.332 490.449C719.188 484.619 714 478.196 709.761 470.758C705.562 463.284 702.462 454.988 700.834 446.145C700.072 441.719 699.683 437.159 700.072 432.546C700.576 427.998 701.315 423.135 705.006 419.079C705.963 418.114 707.284 417.249 708.872 416.955C710.44 416.614 712.178 417.134 713.171 417.567C715.953 418.642 717.7 421.139 718.482 423.489C719.978 428.26 719.712 432.749 719.823 437.143C719.791 445.907 720.085 454.421 721.871 462.443C723.546 470.441 727.611 477.355 731.779 483.734C736.018 490.06 740.59 495.705 744.933 500.805C753.645 510.998 761.627 518.917 767.271 524.374C772.939 529.82 776.321 532.769 776.321 532.769C776.69 533.091 776.722 533.647 776.389 534.008C776.087 534.337 775.579 534.385 775.21 534.151L775.206 534.155ZM775.122 534.087C775.122 534.087 771.649 531.17 765.85 525.799C760.067 520.417 751.891 512.614 742.896 502.484C738.431 497.392 733.795 491.684 729.409 485.25C725.138 478.847 720.784 471.504 718.938 463.078C716.989 454.782 716.592 445.939 716.521 437.19C716.402 432.868 716.477 428.339 715.219 424.604C714.58 422.794 713.417 421.365 711.881 420.778C709.94 419.948 708.959 420.274 707.558 421.54C704.99 424.191 703.923 428.692 703.514 432.82C703.109 437.063 703.422 441.382 704.097 445.597C705.546 454.012 708.467 462.173 712.436 469.329C716.453 476.506 721.498 482.852 726.515 488.62C731.54 494.399 736.7 499.543 741.598 504.139C761.179 522.672 776.234 532.698 776.234 532.698L775.126 534.083L775.122 534.087Z" fill="#E3BE72"/>
<path d="M780.576 542.419C780.576 542.419 777.024 540.823 770.752 538.414C764.477 535.929 755.264 532.984 744.401 528.653C733.608 524.283 721.252 517.762 710.484 507.862C705.133 502.96 699.771 497.598 695.448 491.2C693.281 488.024 691.344 484.615 689.947 480.896C688.689 477.188 687.383 473.108 689.085 468.543C689.859 466.201 693.007 464.376 695.329 464.673C698.235 464.737 700.255 466.582 701.493 468.222C704.002 471.631 705.332 475.168 706.927 478.554C709.956 485.353 713.326 491.787 717.783 497.189C722.312 502.571 727.742 506.703 733.045 510.637C738.348 514.503 743.531 517.972 748.382 521.08C767.767 533.559 781.386 540.847 781.386 540.847C781.822 541.073 781.985 541.605 781.751 542.029C781.525 542.438 781.009 542.601 780.58 542.415L780.576 542.419ZM780.509 542.387C780.509 542.387 766.7 535.381 746.925 523.251C741.983 520.215 736.76 516.718 731.338 512.848C726.011 508.97 720.224 504.612 715.449 499.031C710.674 493.414 707.062 486.698 703.918 479.883C702.307 476.529 700.822 472.973 698.751 470.274C697.738 468.928 696.44 468.103 695.353 468.111C693.741 468.087 692.983 468.639 692.38 469.929C691.241 472.6 692.011 476.466 693.186 479.756C694.408 483.146 696.175 486.385 698.199 489.429C702.22 495.558 707.34 500.861 712.552 505.687C722.955 515.408 734.859 521.822 745.476 526.228C756.09 530.713 765.275 533.916 771.534 536.56C777.849 539.16 781.314 540.819 781.314 540.819L780.509 542.387Z" fill="#E3BE72"/>
<path d="M783.95 546.936C783.95 546.936 783.16 547.019 781.58 547.011C779.941 546.971 777.659 546.805 774.809 546.455C769.089 545.761 760.996 544.439 751.375 542.427C741.785 540.291 730.635 537.624 718.962 533.643C713.127 531.61 707.161 529.13 701.664 525.442C698.925 523.613 696.345 521.445 694.118 518.857C692.043 516.238 689.756 513.225 690.189 508.871C690.356 507.795 690.939 506.664 691.828 505.814C692.36 505.453 692.705 505.068 693.44 504.814C693.888 504.679 694.059 504.517 694.734 504.401C697.413 503.882 699.275 505.013 700.767 505.989C703.637 508.105 705.74 510.466 708.027 512.653C712.484 517.047 717.196 521.108 722.201 524.196C727.345 527.248 732.723 529.308 737.951 531.289C743.158 533.23 748.203 534.798 752.827 536.31C771.435 542.149 784.117 545.201 784.117 545.201C784.601 545.316 784.887 545.789 784.772 546.261C784.676 546.63 784.359 546.884 783.994 546.924H783.946L783.95 546.936ZM783.692 546.912C783.692 546.912 770.903 544.169 752.037 538.759C747.334 537.37 742.265 535.766 736.958 533.869C731.723 531.94 726.003 529.793 720.657 526.677C715.267 523.45 710.369 519.354 705.725 514.936C703.406 512.765 701.148 510.403 698.786 508.74C697.667 507.922 696.321 507.561 695.722 507.696C695.579 507.64 695.027 507.934 694.702 508.037C694.642 508.021 694.424 508.275 694.261 508.339C694.011 508.629 693.797 508.962 693.733 509.47C693.388 511.59 694.936 514.531 696.802 516.742C698.711 519.04 701.041 521.08 703.569 522.835C708.614 526.347 714.346 528.876 720.014 530.88C731.425 534.897 742.503 537.66 751.998 539.866C761.492 542.113 769.486 543.653 775.099 544.487C777.913 544.907 780.112 545.118 781.537 545.201C783.017 545.253 783.863 545.189 783.863 545.189L783.692 546.916V546.912Z" fill="#E3BE72"/>
<path d="M707.237 966.098C706.713 966.145 706.272 966.066 705.935 965.963C704.323 965.455 703.518 963.887 702.926 962.748L702.7 962.315C702.7 962.315 702.7 962.315 702.7 962.307C696.81 951.388 694.13 942.715 693.745 933.316C692.086 905.829 716.394 878.58 747.159 844.076C754.471 835.875 762.032 827.397 769.716 818.387C801.542 780.866 819.352 753.879 828.397 710.507C832.851 689.022 833.311 666.639 829.739 645.785C821.999 600.472 797.568 568.548 762.723 558.196C738.113 550.893 712.27 556.331 696.893 572.041C682.338 586.902 679.162 608.327 687.95 632.377C694.115 647.849 705.629 658.296 718.736 660.285C726.48 661.456 733.323 659.28 737.486 654.311C743.508 647.551 748.755 644.416 752.752 645.142C754.741 645.515 756.225 646.837 756.936 648.869C758.428 653.136 756.352 659.439 751.772 664.552C746.103 670.863 735.379 677.638 721.99 677.678C712.913 677.71 699.207 674.538 685.418 659.241C674.245 646.98 668.315 630.976 667.799 611.678C667.148 566.714 699.66 543.716 732.271 540.803C732.366 540.795 732.469 540.783 732.568 540.775C776.98 536.977 830.223 567.591 842.187 643.781C845.691 666.139 844.874 689.998 839.813 712.77C829.66 758.388 810.786 786.22 777.278 824.595C769.316 833.668 761.599 842.103 754.137 850.26C724.237 882.946 700.616 908.762 701.684 932.994C701.958 944.561 705.844 951.936 708.424 956.81C710.039 959.874 711.111 961.902 710.511 963.704C710.23 964.546 709.622 965.209 708.701 965.665C708.166 965.939 707.677 966.062 707.241 966.102L707.237 966.098ZM705.562 960.827L705.824 961.315C706.042 961.736 706.618 962.859 706.939 962.958L707.431 962.72C707.606 962.184 706.459 960.009 705.534 958.258C702.99 953.436 698.735 945.366 698.437 933.106C697.318 907.623 721.324 881.383 751.72 848.156C759.17 840.011 766.878 831.589 774.813 822.543C807.972 784.573 826.635 757.066 836.646 712.107C841.611 689.705 842.421 666.246 838.971 644.265C827.33 570.08 775.797 540.243 732.838 543.915C732.743 543.923 732.648 543.931 732.549 543.943C701.43 546.721 670.414 568.679 671.033 611.598C671.53 630.115 677.182 645.444 687.843 657.137C698.131 668.553 709.932 674.558 721.982 674.514C734.295 674.463 744.143 668.263 749.326 662.476C753.546 657.768 754.8 652.584 753.859 649.901C753.359 648.472 752.434 648.298 752.121 648.242C751.136 648.059 747.294 648.091 739.951 656.339C735.129 662.079 726.968 664.738 718.216 663.404C703.95 661.245 691.507 650.06 684.91 633.492C675.67 608.22 679.099 585.639 694.543 569.866C710.773 553.294 737.911 547.519 763.667 555.176C799.736 565.885 824.984 598.718 832.922 645.253C836.566 666.481 836.094 689.26 831.561 711.123C821.503 759.372 799.676 787.995 772.197 820.395C764.485 829.433 756.908 837.927 749.584 846.144C719.303 880.096 695.385 906.917 696.968 933.141C697.334 942.072 699.902 950.348 705.55 960.831L705.562 960.827Z" fill="#E3BE72"/>
<path d="M710.611 642.134C710.861 644.92 708.745 647.381 705.887 647.635C703.029 647.889 700.513 645.841 700.263 643.058C700.013 640.272 702.128 637.807 704.986 637.549C707.844 637.295 710.361 639.343 710.611 642.134Z" fill="#E3BE72"/>
<path d="M701.247 625.066C701.497 627.848 699.386 630.313 696.528 630.571C693.67 630.825 691.157 628.773 690.907 625.991C690.657 623.2 692.769 620.743 695.627 620.489C698.485 620.235 700.997 622.279 701.247 625.066Z" fill="#E3BE72"/>
<path d="M697.064 607.236C697.314 610.022 695.198 612.483 692.34 612.741C689.482 612.995 686.966 610.943 686.72 608.161C686.47 605.378 688.581 602.917 691.439 602.659C694.297 602.405 696.814 604.454 697.064 607.236Z" fill="#E3BE72"/>
<path d="M700.366 585.814C700.612 588.597 698.505 591.062 695.643 591.316C692.785 591.57 690.268 589.518 690.018 586.739C689.768 583.953 691.884 581.488 694.742 581.23C697.604 580.976 700.116 583.024 700.366 585.814Z" fill="#E3BE72"/>
<path d="M716.938 569.652C717.188 572.434 715.072 574.899 712.214 575.157C709.356 575.411 706.84 573.363 706.59 570.576C706.34 567.79 708.455 565.329 711.313 565.075C714.171 564.821 716.688 566.865 716.938 569.652Z" fill="#E3BE72"/>
<path d="M740.396 562.479C740.646 565.266 738.534 567.722 735.672 567.98C732.815 568.235 730.298 566.186 730.048 563.404C729.798 560.622 731.914 558.157 734.771 557.899C737.633 557.645 740.146 559.697 740.396 562.479Z" fill="#E3BE72"/>
<path d="M766.049 566.44C766.299 569.223 764.191 571.688 761.329 571.946C758.472 572.2 755.955 570.152 755.705 567.365C755.455 564.579 757.571 562.118 760.429 561.86C763.29 561.606 765.799 563.654 766.049 566.44Z" fill="#E3BE72"/>
<path d="M786.375 578.134C786.625 580.916 784.51 583.381 781.648 583.635C778.794 583.889 776.278 581.837 776.028 579.058C775.777 576.272 777.893 573.807 780.747 573.549C783.609 573.295 786.125 575.343 786.375 578.134Z" fill="#E3BE72"/>
<path d="M833.248 679.135C833.101 679.147 832.942 679.139 832.791 679.111C811.366 674.959 799.684 658.796 797.088 629.702C795.568 612.67 784.081 600.461 783.966 600.342C783.462 599.814 783.394 599.016 783.791 598.405C784.208 597.797 784.998 597.531 785.673 597.766C809.627 605.676 822.146 621.367 825.087 647.127C827.735 670.339 834.133 676.332 834.2 676.388C834.728 676.868 834.879 677.638 834.55 678.273C834.288 678.77 833.796 679.087 833.248 679.139V679.135ZM790.015 602.747C793.794 608.034 799.251 617.544 800.311 629.412C802.594 654.942 812.084 669.906 829.279 675.003C826.901 670.839 823.591 662.615 821.868 647.484C819.28 624.76 809.373 610.753 790.015 602.747Z" fill="#E3BE72"/>
<path d="M818.458 752.192L815.247 751.819C822.408 695.246 788.05 683.644 786.586 683.179C785.931 682.969 785.482 682.377 785.474 681.699C785.466 681.024 785.895 680.413 786.554 680.186C786.943 680.048 796.612 676.789 807.103 682.616C817.819 688.562 825.214 701.529 829.084 721.161L825.901 721.772C822.221 703.125 815.374 690.884 805.551 685.394C800.557 682.608 795.723 682.183 792.329 682.381C802.359 687.998 824.325 705.824 818.455 752.192H818.458Z" fill="#E3BE72"/>
<path d="M776.698 814.303C776.305 814.338 775.9 814.231 775.567 813.981C774.992 813.552 761.762 803.094 776.524 771.387C786.002 751.033 784.172 734.414 784.153 734.247C784.069 733.545 784.47 732.878 785.141 732.604C785.804 732.338 786.574 732.521 787.026 733.064C787.336 733.442 817.554 771.137 777.766 813.791C777.48 814.096 777.099 814.267 776.706 814.303H776.698ZM787.554 739.53C787.407 746.318 786.05 758.543 779.473 772.681C768.411 796.437 774.003 807.166 776.544 810.385C805.495 778.286 793.905 750.168 787.554 739.53Z" fill="#E3BE72"/>
<path d="M775.984 812.481C775.984 812.481 777.067 809.956 778.234 806.118C778.842 804.205 779.774 802.058 780.37 799.613C780.965 797.172 781.596 794.568 782.231 791.96C783.029 789.396 783.708 786.8 783.978 784.299C784.371 781.819 784.74 779.501 785.05 777.52C785.74 773.555 786.304 770.903 786.304 770.903L786.324 770.82C786.395 770.49 786.729 770.28 787.066 770.344C787.379 770.407 787.586 770.681 787.566 770.979C787.566 770.979 787.395 773.678 786.975 777.734C786.732 779.763 786.455 782.124 786.153 784.661C785.97 787.217 785.391 789.88 784.676 792.52C783.93 795.147 783.18 797.767 782.477 800.232C781.775 802.689 780.727 804.888 780.028 806.817C778.548 810.667 777.131 812.985 777.131 812.981L777.103 813.029C776.928 813.322 776.54 813.414 776.242 813.243C775.968 813.08 775.865 812.755 775.984 812.481Z" fill="#E3BE72"/>
<path d="M756.273 476.823C756.162 476.835 756.05 476.831 755.931 476.819C755.403 476.756 754.943 476.446 754.693 475.986C754.288 475.228 744.933 457.16 755.463 433.92C764.743 413.427 762.532 396.859 762.508 396.692C762.409 395.994 762.802 395.315 763.465 395.025C764.132 394.736 764.91 394.914 765.37 395.458C765.68 395.827 796.485 433.082 757.348 476.295C757.071 476.605 756.681 476.791 756.277 476.827L756.273 476.823ZM766.013 401.952C765.993 408.759 764.842 420.996 758.424 435.178C750.605 452.444 754.574 466.924 756.614 472.294C784.355 440.088 772.495 412.458 766.013 401.956V401.952Z" fill="#E3BE72"/>
<path d="M755.554 475.009C755.554 475.009 756.594 472.469 757.702 468.615C758.281 466.694 759.178 464.531 759.738 462.082C760.294 459.629 760.889 457.017 761.48 454.405C762.234 451.825 762.878 449.225 763.112 446.725C763.469 444.24 763.798 441.918 764.084 439.929C764.711 435.956 765.239 433.297 765.239 433.297L765.255 433.221C765.323 432.888 765.648 432.67 765.989 432.733C766.299 432.789 766.509 433.063 766.497 433.36C766.497 433.36 766.37 436.059 766.013 440.12C765.803 442.148 765.561 444.514 765.295 447.054C765.152 449.61 764.612 452.281 763.937 454.929C763.227 457.569 762.524 460.2 761.861 462.669C761.199 465.138 760.182 467.349 759.512 469.29C758.095 473.16 756.709 475.497 756.709 475.497L756.686 475.545C756.511 475.839 756.126 475.942 755.824 475.771C755.55 475.617 755.443 475.295 755.554 475.013V475.009Z" fill="#E3BE72"/>
<path d="M776.738 300.288C776.627 300.3 776.516 300.296 776.397 300.284C775.869 300.22 775.408 299.911 775.158 299.45C774.753 298.692 765.406 280.628 775.936 257.381C785.188 236.947 783.005 220.32 782.981 220.153C782.89 219.451 783.275 218.776 783.938 218.486C784.609 218.204 785.375 218.379 785.843 218.919C786.153 219.288 816.966 256.547 777.814 299.76C777.536 300.066 777.147 300.252 776.742 300.288H776.738ZM786.486 225.416C786.466 232.224 785.315 244.465 778.897 258.643C771.078 275.909 775.043 290.389 777.079 295.759C804.828 263.553 792.968 235.923 786.486 225.42V225.416Z" fill="#E3BE72"/>
<path d="M776.023 298.474C776.023 298.474 777.067 295.934 778.171 292.08C778.75 290.158 779.647 287.995 780.207 285.542C780.763 283.093 781.358 280.481 781.95 277.87C782.704 275.29 783.343 272.694 783.581 270.189C783.938 267.705 784.268 265.383 784.549 263.394C785.18 259.421 785.704 256.757 785.704 256.757L785.72 256.678C785.788 256.345 786.113 256.126 786.455 256.19C786.764 256.245 786.975 256.519 786.963 256.817C786.963 256.817 786.836 259.516 786.478 263.581C786.268 265.609 786.026 267.974 785.764 270.515C785.621 273.071 785.081 275.742 784.406 278.39C783.7 281.025 782.993 283.661 782.331 286.13C781.668 288.599 780.652 290.809 779.981 292.746C778.564 296.616 777.178 298.954 777.178 298.954L777.155 299.002C776.98 299.292 776.595 299.399 776.293 299.228C776.019 299.077 775.912 298.748 776.023 298.47V298.474Z" fill="#E3BE72"/>
<path d="M865.141 307.941C864.926 307.96 864.708 307.941 864.494 307.873C864.331 307.821 847.986 302.812 825.698 308.127C800.402 314.176 783.799 302.038 783.113 301.518C782.688 301.201 782.458 300.701 782.485 300.181C782.513 299.661 782.807 299.188 783.267 298.915C833.724 268.864 865.922 304.98 866.24 305.345C866.704 305.881 866.752 306.658 866.343 307.242C866.065 307.647 865.617 307.897 865.145 307.937L865.141 307.941ZM838.416 302.844C847.624 302.022 855.055 302.765 859.79 303.574C850.312 295.509 824.504 279.287 787.173 300.312C792.23 303.205 806.158 309.544 824.944 305.055C829.735 303.908 834.256 303.217 838.416 302.844Z" fill="#E3BE72"/>
<path d="M783.962 299.665C783.962 299.665 786.558 298.74 790.718 298.057C792.79 297.752 795.199 297.168 797.803 296.958C800.414 296.747 803.197 296.529 805.979 296.311C808.77 296.128 811.552 296.073 814.164 296.382C816.772 296.573 819.205 296.751 821.289 296.906C825.452 297.271 828.199 297.621 828.199 297.621C828.54 297.668 828.782 297.974 828.739 298.307C828.695 298.613 828.433 298.835 828.12 298.839H828.036C828.036 298.839 825.262 298.883 821.142 298.796C819.082 298.72 816.684 298.633 814.116 298.537C811.548 298.327 808.813 298.49 806.078 298.764C803.336 298.879 800.597 298.994 798.029 299.097C795.457 299.204 793.119 299.693 791.079 299.911C786.998 300.3 784.256 300.859 784.256 300.859C783.914 300.931 783.585 300.717 783.513 300.383C783.45 300.082 783.629 299.784 783.918 299.681L783.97 299.661L783.962 299.665Z" fill="#E3BE72"/>
<path d="M777.341 523.565C777.23 523.573 777.119 523.573 776.996 523.557C776.468 523.493 776.008 523.184 775.758 522.723C775.353 521.965 765.997 503.897 776.528 480.657C785.78 460.22 783.589 443.597 783.565 443.43C783.466 442.732 783.859 442.053 784.522 441.763C785.184 441.477 785.958 441.656 786.419 442.192C786.736 442.565 817.557 479.816 778.413 523.029C778.135 523.339 777.746 523.525 777.341 523.561V523.565ZM787.078 448.693C787.054 455.504 785.907 467.738 779.489 481.92C771.669 499.186 775.638 513.666 777.679 519.036C805.42 486.83 793.559 459.204 787.078 448.697V448.693Z" fill="#E3BE72"/>
<path d="M776.623 521.751C776.623 521.751 777.663 519.211 778.77 515.356C779.35 513.435 780.247 511.272 780.806 508.819C781.366 506.37 781.957 503.758 782.549 501.147C783.303 498.571 783.942 495.967 784.18 493.466C784.537 490.981 784.867 488.659 785.149 486.671C785.776 482.698 786.304 480.034 786.304 480.034L786.32 479.955C786.387 479.621 786.713 479.403 787.054 479.467C787.364 479.522 787.574 479.796 787.562 480.094C787.562 480.094 787.435 482.793 787.078 486.857C786.867 488.886 786.625 491.255 786.363 493.792C786.22 496.348 785.681 499.019 785.006 501.667C784.299 504.302 783.593 506.938 782.93 509.407C782.267 511.875 781.251 514.086 780.58 516.027C779.163 519.901 777.778 522.235 777.778 522.235L777.754 522.283C777.579 522.572 777.19 522.676 776.893 522.509C776.619 522.354 776.512 522.029 776.623 521.751Z" fill="#E3BE72"/>
<path d="M796.648 560.876C796.477 560.891 796.306 560.879 796.136 560.84C795.62 560.725 795.191 560.367 795 559.883C794.683 559.085 787.336 540.148 800.327 518.111C811.75 498.733 811.393 481.967 811.385 481.801C811.365 481.098 811.826 480.459 812.513 480.245C813.195 480.026 813.949 480.276 814.358 480.868C814.624 481.269 841.198 521.517 797.592 560.463C797.33 560.701 796.993 560.844 796.644 560.876H796.648ZM814.299 487.397C813.537 494.169 811.056 506.227 803.133 519.675C793.484 536.036 795.862 550.853 797.306 556.406C828.386 527.228 819.598 498.515 814.299 487.393V487.397Z" fill="#E3BE72"/>
<path d="M705.443 966.92C705.288 966.931 705.129 966.927 704.97 966.904C704.645 966.844 672.252 960.7 673.058 910.009C673.213 899.804 673.852 889.309 674.467 879.156C676.499 845.632 678.428 813.918 662.051 804.804C659.019 807.67 653.303 810.933 648.21 807.305C645.551 805.408 644.317 802.546 644.817 799.446C645.519 795.116 649.318 791.226 654.49 789.535C662.226 787.01 671.168 789.84 679.035 797.31C695.659 813.108 689.665 854.729 685.291 885.118C684.18 892.826 683.223 899.482 682.782 904.706C678.75 953.007 705.649 963.478 705.919 963.577C706.776 963.891 707.245 964.788 706.999 965.653C706.792 966.364 706.165 966.856 705.447 966.92H705.443ZM661.543 800.946C661.853 800.919 662.178 800.97 662.476 801.109C682.195 810.377 680.167 843.881 678.007 879.346C677.396 889.46 676.765 899.919 676.602 910.048C676.269 931.371 681.81 944.271 688.137 952.035C682.159 942.644 677.301 927.715 679.254 904.444C679.694 899.117 680.663 892.417 681.782 884.657C685.811 856.67 691.904 814.374 676.559 799.795C669.672 793.258 662.011 790.702 655.613 792.813C651.743 794.08 648.814 796.953 648.322 799.978C648.115 801.252 648.298 803.07 650.322 804.511C654.815 807.726 660.138 801.796 660.36 801.546C660.666 801.196 661.102 800.99 661.547 800.95L661.543 800.946Z" fill="#E3BE72"/>
<path d="M706.451 966.169C706.094 966.201 705.729 966.118 705.415 965.911C703.934 964.955 669.505 941.576 698.008 865.95L699.052 863.184C712.968 826.294 730.235 780.528 714.782 764.747C711.341 766.493 705.443 767.922 701.946 763.445C700.108 761.091 699.787 758.245 701.061 755.641C702.847 752.006 707.122 749.569 712.222 749.37C719.688 749.112 726.793 753.891 731.711 762.488C740.868 778.461 734.255 809.678 711.504 857.909C676.856 931.431 707.165 963.176 707.475 963.49C708.047 964.069 708.086 964.978 707.55 965.598C707.265 965.931 706.868 966.126 706.451 966.165V966.169ZM714.893 761.21C715.33 761.171 715.783 761.31 716.132 761.611C734.624 778.024 717.342 823.837 702.085 864.263L701.041 867.034C687.041 904.182 688.78 928.378 693.924 943.219C689.463 925.763 689.256 897.565 708.563 856.607C730.536 810.008 737.371 778.869 728.877 764.04C724.57 756.515 718.533 752.319 712.317 752.534C708.662 752.716 705.228 754.455 703.986 756.995C703.454 758.071 703.125 759.73 704.526 761.528C707.642 765.521 714.104 761.5 714.159 761.46C714.393 761.317 714.639 761.238 714.897 761.214L714.893 761.21Z" fill="#E3BE72"/>
<path d="M808.885 575.097C808.817 575.105 808.742 575.101 808.67 575.101C808.424 575.089 807.98 574.819 807.349 574.272C806.515 573.549 805.356 572.347 803.919 570.632C773.047 538.045 751.859 505.16 739.209 470.218C729.679 443.895 720.212 405.472 729.23 371.897C735.772 344.319 751.16 324.472 772.527 316.046C790.46 308.977 810.83 310.929 827.016 321.253C841.925 330.799 849.899 349.165 846.422 365.923C843.623 379.363 833.839 388.591 819.57 391.247C814.208 391.862 811.08 388.349 810.588 384.499C810.139 380.978 811.957 377.132 816.252 376.009C816.641 375.862 817.101 375.814 817.53 375.767C817.565 375.767 817.649 375.759 817.716 375.759C819.55 375.314 823.372 373.838 826.075 370.19C829.838 365.101 830.434 357.572 827.83 347.803C824.559 338.912 814.993 331.883 802.903 329.589C787.526 326.667 772.054 331.772 761.453 343.215C734.867 371.178 737.975 423.763 752.851 463.479C777.941 530.451 799.466 560.113 806.888 569.092C807.706 569.953 808.535 570.814 809.365 571.676C809.381 571.688 809.389 571.704 809.405 571.719C810.02 572.402 810.723 573.18 810.214 574.192C809.968 574.696 809.452 575.038 808.885 575.089V575.097ZM789.543 315.244C784.176 315.724 778.85 316.963 773.733 318.979C753.371 327.005 738.693 346.057 732.374 372.647C723.558 405.492 732.886 443.255 742.265 469.159C752.268 496.78 767.676 523.12 789.094 549.067C778.465 531.368 764.545 503.921 749.803 464.586C734.601 423.969 731.568 370.031 759.071 341.099C770.435 328.835 787.07 323.389 803.538 326.497C816.736 329.005 827.231 336.809 830.926 346.871C835.562 364.252 829.949 372.373 824.432 376.144C822.329 377.581 819.102 378.759 817.323 379.014C814.529 379.625 813.529 381.955 813.803 384.106C814.096 386.408 815.954 388.571 819.078 388.139C831.882 385.753 840.726 377.434 843.25 365.32C846.422 350.038 838.845 332.621 825.234 323.905C814.553 317.094 801.951 314.137 789.543 315.244Z" fill="#E3BE72"/>
<path d="M736.835 356.131C736.577 356.155 736.304 356.115 736.049 356.008C735.268 355.682 734.883 354.821 735.172 354.035C735.248 353.809 743.476 331.053 749.334 301.618C755.213 272.146 750.863 232.601 727.42 215.426C718.283 208.535 706.447 206.888 695.798 210.964C687.407 214.175 681.445 220.443 680.234 227.333C679.651 234.474 681.008 239.757 684.275 242.901C686.787 245.31 689.752 245.743 690.959 245.814H690.967C690.967 245.814 690.983 245.814 690.991 245.814C691.3 245.79 691.674 245.763 692.043 245.826C693.96 245.985 695.587 246.91 696.611 248.442C697.885 250.355 698.016 252.915 696.949 254.963C695.98 256.809 694.158 257.968 691.939 258.166C691.844 258.174 691.753 258.182 691.666 258.186C680.631 258.123 672.141 252.582 668.267 242.984C663.464 231.065 666.91 216.426 676.65 207.392C687.216 197.632 701.954 193.496 716.1 196.322C732.942 199.688 746.881 212.235 755.344 231.656C765.854 253.927 767.91 280.7 760.964 305.071C755.677 323.635 747.54 338.277 741.598 348.962C740.324 351.253 739.157 353.36 738.133 355.281C737.871 355.782 737.371 356.087 736.835 356.135V356.131ZM704.458 205.749C713.266 204.963 722.11 207.424 729.389 212.913C753.923 230.886 758.579 271.805 752.518 302.209C749.632 316.681 746.179 329.557 743.397 338.976C748.39 329.577 753.927 317.975 757.841 304.233C764.584 280.577 762.592 254.59 752.383 232.942C744.317 214.457 731.203 202.565 715.433 199.414C702.339 196.794 688.661 200.628 678.873 209.674C670.212 217.712 667.013 231.235 671.276 241.817C673.256 246.719 678.523 254.955 691.594 255.031C692.948 254.892 693.726 254.173 694.055 253.538C694.591 252.514 694.519 251.125 693.88 250.168C693.388 249.422 692.614 249.013 691.622 248.962C691.614 248.962 691.598 248.962 691.586 248.962C689.899 249.113 687.299 248.402 685.867 247.759C681.219 245.675 675.912 240.376 677.015 226.952C678.432 218.835 685.176 211.635 694.619 208.027C697.838 206.793 701.14 206.039 704.45 205.745L704.458 205.749Z" fill="#E3BE72"/>
</g>
</g>
<defs>
<clipPath id="clip0_6_161">
<rect width="842" height="842" fill="white"/>
</clipPath>
</defs>
</svg>
